<?xml version="1.0" encoding="utf-8"?>
<!-- Generator: Adobe Illustrator 22.1.0, SVG Export Plug-In . SVG Version: 6.00 Build 0)  -->
<svg version="1.1" id="Layer_1" xmlns="http://www.w3.org/2000/svg" xmlns:xlink="http://www.w3.org/1999/xlink" x="0px" y="0px"
	 viewBox="0 0 102 102" enable-background="new 0 0 102 102" xml:space="preserve">
<g>
	<g>
		<g>
			<path id="path-0" fill="#999999" d="M6.6,1h88.9c3.1,0,5.6,2.5,5.6,5.6v88.9c0,3.1-2.5,5.6-5.6,5.6H6.6C3.5,101,1,98.5,1,95.4
				V6.6C1,3.5,3.5,1,6.6,1z"/>
		</g>
	</g>
	<g>
		<g>
			<path id="path-1" fill="#FFFFFF" d="M64.9,14.9c0,0-6.1,0-10.4,5.8c-3.9,5.1-2.9,9.5-2.9,9.5s0.3,0.1,0.9,0.1
				c1.7,0,5.5-0.5,9-4.7C65.8,20.3,64.9,14.9,64.9,14.9L64.9,14.9z M64,30.9c-5.4,0-9.6,3.1-11.8,3.1c-2.6,0-6.5-2.9-11.6-2.9
				c-7.7,0-16,7-16,20.2c0,13.5,9.8,30.2,17.5,30.2c2.7,0,6.8-2.7,11-2.7c4.1,0,7.1,2.6,11,2.6c8.5,0,14.7-17.7,14.7-17.7
				s-9-3.5-9-13.6c0-8.9,7.2-12.6,7.2-12.6S73.3,30.9,64,30.9L64,30.9z"/>
		</g>
	</g>
</g>
</svg>
