<?xml version="1.0" encoding="utf-8"?>
<!-- Generator: Adobe Illustrator 22.1.0, SVG Export Plug-In . SVG Version: 6.00 Build 0)  -->
<svg version="1.1" id="Layer_1" xmlns="http://www.w3.org/2000/svg" xmlns:xlink="http://www.w3.org/1999/xlink" x="0px" y="0px"
	 viewBox="0 0 102 102" enable-background="new 0 0 102 102" xml:space="preserve">
<g>
	<g>
		<path id="path-0_1_" fill="#666695" d="M6.6,1h88.9c3.1,0,5.5,2.5,5.5,5.5v88.9c0,3.1-2.5,5.5-5.5,5.5H6.6
			C3.4,101.1,1,98.6,1,95.6v-89C1,3.6,3.4,1,6.6,1z"/>
	</g>
</g>
<g>
	<path fill="#FFFFFF" d="M27.1,21l-7.8,7.8v51.9H32V70.4h4.6v10.2h12.2V21H27.1z M36.6,60.8H32V31.4h4.6V60.8z"/>
	<polygon fill="#FFFFFF" points="67.2,70.9 82.8,31.5 82.8,21.4 55.2,21.4 55.2,31.6 70,31.6 55.2,68.9 55.2,81.1 82.8,81.1 
		82.8,70.9 	"/>
</g>
</svg>
