<?xml version="1.0" encoding="utf-8"?>
<!-- Generator: Adobe Illustrator 22.1.0, SVG Export Plug-In . SVG Version: 6.00 Build 0)  -->
<svg version="1.1" id="Layer_1" xmlns="http://www.w3.org/2000/svg" xmlns:xlink="http://www.w3.org/1999/xlink" x="0px" y="0px"
	 viewBox="0 0 102 102" enable-background="new 0 0 102 102" xml:space="preserve">
<g>
	<g>
		<g>
			<g>
				<path id="path-0" fill="#2B4B79" d="M6.6,1h88.9c3.1,0,5.6,2.5,5.6,5.6v88.9c0,3.1-2.5,5.6-5.6,5.6H6.6C3.5,101,1,98.5,1,95.4
					V6.6C1,3.5,3.5,1,6.6,1z"/>
			</g>
		</g>
	</g>
	<g>
		<path fill="#003764" d="M27.1,66.1L19,57.9c-3.6-3.6-3.6-9.4,0-13l17.8-17.8l14.7,14.7L27.1,66.1z"/>
		<path fill="#00B0E9" d="M44.1,83L27,66l24.3-24.3l23.5,23.5L57.1,83C53.5,86.6,47.7,86.6,44.1,83z"/>
		<path fill="#65A0B5" d="M51.4,41.8L36.7,27.1l8.1-8.1c3.6-3.6,9.4-3.6,13,0l8.1,8.1L51.4,41.8z"/>
		<path fill="#A1D5E7" d="M60.2,50.6l14.7,14.7l8.1-8.1c3.6-3.6,3.6-9.4,0-13l-8.1-8.1L60.2,50.6z"/>
		
			<rect x="55.6" y="31.3" transform="matrix(0.7071 0.7071 -0.7071 0.7071 48.8273 -34.4482)" fill="#0054BF" width="20.7" height="20.7"/>
	</g>
</g>
</svg>
