<?xml version="1.0" encoding="utf-8"?>
<!-- Generator: Adobe Illustrator 22.1.0, SVG Export Plug-In . SVG Version: 6.00 Build 0)  -->
<svg version="1.1" id="Layer_1" xmlns="http://www.w3.org/2000/svg" xmlns:xlink="http://www.w3.org/1999/xlink" x="0px" y="0px"
	 viewBox="0 0 102 102" enable-background="new 0 0 102 102" xml:space="preserve">
<g>
	<g>
		<g>
			<path id="path-0_1_" fill="#F6F6F6" d="M6.6,1h88.9c3.1,0,5.5,2.5,5.5,5.5v89c0,3.1-2.4,5.5-5.5,5.5H6.6C3.4,101.1,1,98.5,1,95.6
				V6.5C1,3.5,3.4,1,6.6,1z"/>
		</g>
	</g>
	<g>
		<path fill="#333333" d="M52.3,49c3-1.5,5.2-3.4,6.6-5.8c1.5-2.4,2.2-4.9,2.2-7.6c0-2.9-0.8-5.7-2.5-8.3c-1.6-2.6-3.9-4.6-6.8-5.9
			c-2.9-1.3-6.8-1.9-11.6-1.9H16.6v63h24c4,0,7.4-0.4,10.2-1.1s5.1-1.7,6.9-3.1c1.8-1.4,3.4-3.3,4.6-5.9c1.2-2.5,1.9-5.3,1.9-8.2
			c0-3.7-1-6.8-3.1-9.5C59.1,52.1,56.1,50.1,52.3,49z M24.9,27h12.6c4.5,0,7.7,0.3,9.6,0.9c1.9,0.6,3.3,1.7,4.3,3.3
			c1,1.6,1.5,3.4,1.5,5.5c0,2.2-0.5,4-1.6,5.5s-2.7,2.5-4.8,3.1c-1.6,0.5-4.3,0.7-8,0.7H24.9V27z M54.3,69.6
			c-0.8,1.5-1.9,2.7-3.2,3.5s-2.9,1.4-4.8,1.7c-1.1,0.2-3,0.3-5.7,0.3H24.9V53.5h14.6c4,0,7.1,0.4,9.2,1.1c2.1,0.7,3.8,1.9,5,3.7
			c1.2,1.7,1.8,3.8,1.8,6.1C55.5,66.3,55.1,68.1,54.3,69.6z"/>
		<rect x="77.1" y="19.5" fill="#333333" width="8.3" height="63"/>
	</g>
</g>
</svg>
