<?xml version="1.0" encoding="utf-8"?>
<!-- Generator: Adobe Illustrator 22.1.0, SVG Export Plug-In . SVG Version: 6.00 Build 0)  -->
<svg version="1.1" id="Layer_1" xmlns="http://www.w3.org/2000/svg" xmlns:xlink="http://www.w3.org/1999/xlink" x="0px" y="0px"
	 viewBox="0 0 102 102" enable-background="new 0 0 102 102" xml:space="preserve">
<g>
	<g>
		<g>
			<path id="path-0" fill="#CA0700" d="M6.6,1h88.9c3.1,0,5.6,2.5,5.6,5.6v88.9c0,3.1-2.5,5.6-5.6,5.6H6.6C3.5,101,1,98.5,1,95.4
				V6.6C1,3.5,3.5,1,6.6,1z"/>
		</g>
	</g>
	<g transform="translate(36.000200735566295, 36) scale(1, -1) translate(-36.000200735566295, -36)">
		<g>
			<path id="path-1" fill="#FFFFFF" d="M62.2,3.6c-2.3,0-4.7,1.2-6.2,3.7c-2.1,3.4-7.3,12.2-7.3,12.2v-8.7c0-4.4-2.6-6.8-6.6-6.8
				h-9.3C9,4,8.8,38.2,32.5,38.2h5.3v-4.3l0,0h-6c-4.1,0-7.3-1.6-9.5-4c-2.1-2.4-3.2-5.6-3.2-8.8c0-2.3,0.6-4.7,1.8-6.7
				c0.4-0.7,0.9-1.4,1.5-2.1c1.2-1.3,2.6-2.3,4.4-3c1.6-0.6,3.4-1,5.5-1h9.9c1.2,0,2.3,1.1,2.3,2.3v20.8l0,0c0,0.7,0.3,1,0.6,1.1
				c0.1,0,0.2,0,0.2,0c0.1,0,0.3,0,0.4-0.1c0.1-0.1,0.2-0.2,0.3-0.3c2.9-4.7,14.1-22.9,14.1-22.9l0,0l0,0c0.4-0.6,1-0.9,1.6-0.9
				c0.2,0,0.3,0,0.5,0.1s0.5,0.2,0.7,0.4c0.4,0.4,0.6,1,0.6,1.7v21c0,0.6,0.2,0.9,0.5,1c0,0,0.1,0,0.1,0.1c0.1,0,0.2,0,0.2,0
				c0.3,0,0.5-0.1,0.7-0.4l0,0l0,0l0,0l0,0l0,0l0,0c2.9-4.7,14.1-22.9,14.1-22.9l0,0l0,0l0,0c0.4-0.6,1-0.9,1.6-0.9l0,0
				c0.2,0,0.3,0,0.5,0.1c0.7,0.2,1.3,1,1.3,2v0.1v27.7h4.3V10c0-4.2-2.7-6.3-5.8-6.3c-2.3,0-4.7,1.2-6.2,3.7
				c-2.1,3.4-7.3,12.2-7.3,12.2V10C67.9,5.8,65.2,3.6,62.2,3.6L62.2,3.6z M81,9.4c-0.2,0-0.5,0.1-0.7,0.5c0,0-11.2,18.2-14.1,22.9
				l0,0l0,0l0,0l0,0c-0.4,0.6-1,0.9-1.7,0.9c-0.2,0-0.4,0-0.5-0.1c-0.3-0.1-0.5-0.2-0.7-0.4c-0.1-0.1-0.1-0.1-0.2-0.2
				c-0.3-0.4-0.5-0.9-0.5-1.5v-21c0-0.2,0-0.4-0.1-0.5c-0.1-0.3-0.3-0.5-0.5-0.6c-0.1,0-0.1,0-0.2,0c-0.2,0-0.5,0.1-0.7,0.5
				c0,0-0.7,1.2-1.8,3C55.9,18.3,49.1,29.3,47,32.8l0,0c-0.4,0.6-1.1,0.9-1.7,0.9c-0.2,0-0.4,0-0.5-0.1c-0.1,0-0.3-0.1-0.4-0.2
				c-0.5-0.3-0.9-0.9-0.9-1.7c0-0.1,0-0.2,0-0.3V10.7c0-0.2,0-0.3-0.1-0.5c-0.2-0.4-0.6-0.7-1.1-0.7h-9.9c-1.2,0-2.3,0.1-3.3,0.4
				c-2.4,0.6-4.3,1.7-5.7,3.3c-1.5,1.6-2.4,3.6-2.7,5.7c-0.1,0.8-0.2,1.5-0.2,2.3c0,0.3,0,0.5,0,0.8c0.2,2.6,1.1,5.2,2.9,7.2
				c0.8,0.9,1.7,1.6,2.7,2.2c1.6,0.9,3.6,1.4,5.9,1.4h6l0,0v-4.3h-6c-9.7,0-10.7-14.8,0.7-14.8l0,0H38c0.7,0,1.1,0.5,1.1,1.1V32
				c0,3.6,2.5,6.1,5.5,6.3l0,0c0.1,0,0.3,0,0.4,0c2.2,0,4.6-1.3,6.4-4.3c4.4-7.6,6.9-12,6.9-12v10c0,3.8,2.8,6.4,6,6.4
				c2.2,0,4.6-1.3,6.4-4.3c4.4-7.6,6.9-12,6.9-12v16.2h4.3V10.6c0-0.7-0.3-1-0.6-1.1C81.1,9.5,81.1,9.4,81,9.4L81,9.4z"/>
		</g>
	</g>
</g>
</svg>
