<?xml version="1.0" encoding="utf-8"?>
<!-- Generator: Adobe Illustrator 22.1.0, SVG Export Plug-In . SVG Version: 6.00 Build 0)  -->
<svg version="1.1" id="Layer_1" xmlns="http://www.w3.org/2000/svg" xmlns:xlink="http://www.w3.org/1999/xlink" x="0px" y="0px"
	 viewBox="0 0 102 102" enable-background="new 0 0 102 102" xml:space="preserve">
<g>
	<g>
		<path id="path-0_1_" fill="#F2F2F2" d="M6.6,0.9h88.9c3.1,0,5.5,2.5,5.5,5.5v89c0,3.1-2.4,5.5-5.5,5.5H6.6C3.4,101,1,98.5,1,95.5
			V6.4C1,3.4,3.4,0.9,6.6,0.9z"/>
	</g>
</g>
<g>
	<path fill="#828282" d="M33.9,57.8c-2-3.2-3.6-6.3-4.5-9.7l-8.6-2.7v-8.5L18,42.1v5.5l8.9,2.7c0.9,3.6,2.9,7,5,10.3L33.9,57.8z"/>
	<g>
		<polygon fill="#828282" points="30.4,65.4 28.6,68 35.2,74.6 37.7,72.8 		"/>
		<path fill="#828282" d="M57.5,80.9l-2.7-8.1c-3.5-0.9-6.7-2.1-9.6-4.1l-2.6,1.9c3.2,2.1,6.6,3.7,10.1,4.6l2.7,8.4h8.4l2.7-2.9h-9
			C57.5,80.7,57.5,80.9,57.5,80.9z"/>
		<path fill="#828282" d="M84,53.3l-2-6.7l-5.1-1.9c-1.2-2.8-2.8-5.4-4.6-7.8l1.7-3.7l-5-5.1l-3.6,1.7c-2.4-1.8-5-3.5-7.8-4.6
			l-1.9-5.1l-6.5-1.8L48.8,23c-2.9-0.2-5.5,0.1-8,0.9l-5.6-4.4l-5.5,3.2l4.3,5.8c-1.7,2-3,4.5-3.7,7.6h-8.1v8.4l8.4,2.7
			c0.9,3.7,2.7,7.3,5,10.7l-4.5,6.5l7.6,7.7l6.4-4.5c3.4,2.3,7,4.1,10.7,5l2.7,8.5h8.4L66.7,73c3-0.6,5.5-1.9,7.6-3.8l5.9,4.4
			l3.2-5.7L78.9,62c0.8-2.4,0.9-5.2,0.6-8.2L84,53.3z M60.1,64.8c-10.8-0.8-21.2-11.2-22-22c-0.8-9.8,6.8-15.3,16.2-13.2
			C62.8,31.5,71,39.7,73,48.3C75.3,57.8,70,65.6,60.1,64.8"/>
		<path fill="#828282" d="M32,28.6l-3.4-4.5l-1,3.2l2.7,4.1C30.8,30.4,31.4,29.5,32,28.6"/>
		<path fill="#828282" d="M74.3,70.8c-0.9,0.6-1.7,1.2-2.8,1.7l4.5,3.4l3-1.6L74.3,70.8z"/>
		<path fill="#828282" d="M55.8,50.8l-1.4-9.9l2.2,0.4c0.6,0.1,1.3,0.4,1.8,0.7c0.6,0.3,1.1,0.7,1.5,1.2s0.8,1,1.1,1.6
			s0.5,1.2,0.6,1.9s0.1,1.3,0.1,1.9c-0.1,0.6-0.3,1-0.6,1.4s-0.7,0.6-1.2,0.8c-0.5,0.1-1.1,0.2-1.8,0.1L55.8,50.8 M56,37.4L49.6,36
			L52,54.9l6.9,0.6c1.3,0.1,2.4,0,3.5-0.4c0.9-0.4,1.6-0.9,2.2-1.6c0.6-0.7,0.9-1.6,1.1-2.7c0.1-1,0.1-2.1-0.1-3.5
			c-0.2-1.2-0.6-2.4-1.2-3.5s-1.3-2-2.1-3c-0.8-0.9-1.8-1.6-2.9-2.2C58.2,38.2,57.2,37.7,56,37.4"/>
	</g>
</g>
</svg>
