<?xml version="1.0" encoding="utf-8"?>
<!-- Generator: Adobe Illustrator 22.1.0, SVG Export Plug-In . SVG Version: 6.00 Build 0)  -->
<svg version="1.1" id="Layer_1" xmlns="http://www.w3.org/2000/svg" xmlns:xlink="http://www.w3.org/1999/xlink" x="0px" y="0px"
	 viewBox="0 0 102 102" enable-background="new 0 0 102 102" xml:space="preserve">
<g>
	<g>
		<g>
			<path id="path-0" fill="#F46899" d="M6.6,1h88.9c3.1,0,5.6,2.5,5.6,5.6v88.9c0,3.1-2.5,5.6-5.6,5.6H6.6C3.5,101,1,98.5,1,95.4
				V6.6C1,3.5,3.5,1,6.6,1z"/>
		</g>
	</g>
	<g transform="translate(36, 36) scale(1, -1) translate(-36, -36)">
		<g>
			<path id="path-1" fill="#FFFFFF" d="M51-3.9c3.3,0,6.6,0.7,9.7,2c-1.1,6.1-2.8,12.4-5.3,18.9h-0.1l-0.1,0
				c-0.4-0.2-0.9-0.4-1.6-0.6s-2-0.9-3.8-1.9s-3.6-2-5.2-3.1s-3.3-2.6-5-4.3c-1.7-1.8-3-3.7-3.9-5.6l-0.6,0.4
				C39.8-2,45.1-3.9,51-3.9L51-3.9z M64.9,0.3c2.8,1.9,5.2,4.3,7,7.2s3.1,6.1,3.6,9.5c-3.5,1-7,1.5-10.3,1.5c-1.7,0-3.5-0.1-5.2-0.4
				C62.3,12.1,63.9,6.2,64.9,0.3L64.9,0.3z M32.5,4.4c1.3,2.3,2.8,4.4,4.7,6.3s3.7,3.5,5.4,4.7c1.7,1.2,3.4,2.2,5,3.1
				c1.6,0.9,2.8,1.5,3.8,1.8l1.4,0.5c0.1,0,0.3,0.1,0.5,0.1c0.2,0.1,0.4,0.1,0.5,0.2c-0.5,1.2-1.2,2.6-2,4.2
				c-7.9-2.4-16.4-3.5-25.6-3.5c0-0.2,0-0.4,0-0.8c0-3.1,0.6-6.1,1.7-9S30.4,6.6,32.5,4.4L32.5,4.4z M75.9,21.3
				c-0.1,5.9-2,11.1-5.7,15.6l0,0c-0.2-0.3-0.5-0.6-0.7-0.9c-0.3-0.3-0.8-0.9-1.7-1.7c-0.8-0.8-1.7-1.6-2.7-2.3
				c-0.9-0.7-2.2-1.5-3.8-2.5s-3.2-1.7-5-2.4c0.6-1.3,1.2-2.5,1.7-3.6c0.1-0.2,0.1-0.4,0.2-0.7c0.1-0.3,0.2-0.5,0.3-0.6
				c0.9,0.1,1.9,0.2,2.8,0.3c1,0.1,1.9,0.1,2.8,0.1s1.8,0,2.6-0.1c0.9,0,1.7-0.1,2.4-0.2c0.8-0.1,1.5-0.1,2.1-0.2s1.3-0.2,1.8-0.2
				c0.5-0.1,1-0.2,1.4-0.2s0.7-0.1,0.9-0.2L75.9,21.3L75.9,21.3z M26.6,26.1c7.6,0,15.3,1,23,3c-3,5.4-6.1,10.2-9.3,14.4
				c-3.5-1.6-6.5-4-8.9-7.1S27.4,30,26.6,26.1L26.6,26.1z M54.5,30.7c1.7,0.7,3.4,1.4,4.9,2.3s2.8,1.7,3.7,2.3s1.7,1.4,2.5,2.2
				c0.8,0.8,1.2,1.3,1.4,1.5l0.5,0.7c-4.7,4.2-10.2,6.2-16.4,6.2c-1.9,0-3.9-0.2-5.9-0.7C48.4,40.9,51.5,36.1,54.5,30.7L54.5,30.7z
				 M51-8.2C34.9-8.2,21.8,4.9,21.8,21S34.9,50.2,51,50.2S80.2,37.1,80.2,21S67.1-8.2,51-8.2L51-8.2z"/>
		</g>
	</g>
</g>
</svg>
