<?xml version="1.0" encoding="utf-8"?>
<!-- Generator: Adobe Illustrator 22.1.0, SVG Export Plug-In . SVG Version: 6.00 Build 0)  -->
<svg version="1.1" id="Layer_1" xmlns="http://www.w3.org/2000/svg" xmlns:xlink="http://www.w3.org/1999/xlink" x="0px" y="0px"
	 viewBox="0 0 102 102" enable-background="new 0 0 102 102" xml:space="preserve">
<g>
	<g>
		<g>
			<path id="path-0" fill="#313131" d="M6.6,1h88.9c3.1,0,5.5,2.6,5.5,5.5v89c0,3.1-2.6,5.5-5.5,5.5H6.6C3.5,101.1,1,98.6,1,95.6
				V6.5C0.9,3.6,3.5,1,6.6,1z"/>
		</g>
	</g>
	<path fill="#FFFFFF" d="M67,84.9c2.2,0,4.5,0,6.7,0c0-22.8,0-45.7,0-68.4c-3.6-0.4-7.9-0.1-11.6-0.2c-0.4,6.9-0.1,14.7-0.2,22
		c-0.8,0.1-1.3-0.7-1.9-1.2c-1.9-1.4-4.8-3-7.9-3.3c-4.3-0.4-7.6,0.5-10.1,1.7c-7.8,3.5-12.9,12-13.6,21.7c-1,14,5.6,27.3,19.2,28.5
		c1.2,0,2.5,0,3.6,0c5.2-0.7,8.5-3.4,11.6-6C64.3,81.4,65.5,83.3,67,84.9z M61.9,70.3c-0.5,2.3-3.9,4.3-5.7,5.1
		c-4.1,1.6-8.8,0.2-11.1-2c-8-7.5-6-29.6,6.7-29.9c5-0.1,7.8,3.1,10.1,6c0,3.7,0,6.9,0,10.5C61.9,63.2,62.6,67.1,61.9,70.3z"/>
</g>
</svg>
