<?xml version="1.0" encoding="utf-8"?>
<!-- Generator: Adobe Illustrator 22.1.0, SVG Export Plug-In . SVG Version: 6.00 Build 0)  -->
<svg version="1.1" id="Layer_1" xmlns="http://www.w3.org/2000/svg" xmlns:xlink="http://www.w3.org/1999/xlink" x="0px" y="0px"
	 viewBox="0 0 102 102" enable-background="new 0 0 102 102" xml:space="preserve">
<g>
	<g>
		<g>
			<path id="path-0" fill="#CA0813" d="M6.6,1h88.9c3.1,0,5.6,2.5,5.6,5.6v88.9c0,3.1-2.5,5.6-5.6,5.6H6.6C3.5,101,1,98.5,1,95.4
				V6.6C1,3.5,3.5,1,6.6,1z"/>
		</g>
	</g>
	<g>
		<g>
			<path id="path-1" fill="#FFFFFF" d="M10.2,39.9l-0.6,6.3h19.1l0.7-6.3H10.2z M33.7,39.9c-1.4,0.1-2.1,0.6-3.1,1.9
				c-0.8,1-1,3.4-1.1,4.4h42.3c0.1-0.9,0.3-3.4-0.1-4.3c-0.6-1.2-1.4-1.9-2.9-2H33.7z M73.2,39.9l-0.6,6.3H94l0-3.8
				c-0.2-1.5-1.3-2.4-3-2.5H73.2z M9.3,48.4L7.9,62v0.1h18.9l0.7-6.3H16.2l0.3-1.9h11.3l0.6-5.6H9.3z M29.3,48.4
				c-0.1,0.6-0.2,1.8,0.2,3.2c0.5,2,2.4,2.1,2.8,2.1c0,0,0.1,0,0.1,0l10.3-0.1l-0.4,2.2l-13.7,0L28,62.1h17.6
				c1.3-0.1,2.9-1.3,3.7-3.7c0.1-0.6,0.7-6.3,0.7-6.7c0-1.5-0.8-2.7-1.9-3.2H29.3z M51.2,48.4l-1.4,13.7h7.4l0.8-8.6h10.1
				c2.3-0.3,3.3-3.1,3.4-5.1H51.2z M72.3,48.4L71,62.1h7.3l1.6-13.7H72.3z M86.1,48.4l-1.4,13.7h7.3l1.6-13.7H86.1z"/>
		</g>
	</g>
</g>
</svg>
