<?xml version="1.0" encoding="utf-8"?>
<!-- Generator: Adobe Illustrator 22.1.0, SVG Export Plug-In . SVG Version: 6.00 Build 0)  -->
<svg version="1.1" id="Layer_1" xmlns="http://www.w3.org/2000/svg" xmlns:xlink="http://www.w3.org/1999/xlink" x="0px" y="0px"
	 viewBox="0 0 102 102" enable-background="new 0 0 102 102" xml:space="preserve">
<g>
	<g>
		<g>
			<g>
				<path id="path-0" fill="#F2F2F2" d="M6.6,1h88.9c3.1,0,5.6,2.5,5.6,5.6v88.9c0,3.1-2.5,5.6-5.6,5.6H6.6C3.5,101,1,98.5,1,95.4
					V6.6C1,3.5,3.5,1,6.6,1z"/>
			</g>
		</g>
	</g>
	<g>
		<path fill="#0A598B" d="M27,71V48.9c0-2.1,1.7-3.6,3.9-3.6h4.9c2.1,0,3.9,1.7,3.9,3.6v21.8c0.8,0.1,2.2,0,4-2.8
			c-0.1-0.3-0.1-0.6-0.1-1V40.7c0-2.2,1.7-4,3.9-4h4.9c2.1,0,3.9,1.8,3.9,4v22.4c1.1,0.7,3.9,1.7,5-2.2c-0.3-0.6-0.4-1.1-0.4-1.7
			V33.1c0-2.2,1.7-4,3.9-4h4.9c2.1,0,3.9,1.8,3.9,4v22.4c2.5-1.3,13.2-7.1,16.2-15.8c-4.9-16.8-20.4-29-38.7-29
			c-22.4,0-40.4,18.1-40.4,40.4c0,7.9,2.2,15.3,6.2,21.5C19.3,73.8,22.9,74.2,27,71z"/>
		<path fill="#979695" d="M91.2,47.7c0,0-21.9,22.2-34.6,27.1c-8.8,3.3-21.8,6.4-31.1,7.6c6.9,5.7,15.8,9,25.6,9
			c22.4,0,40.4-18.1,40.4-40.4C91.3,49.9,91.3,48.9,91.2,47.7L91.2,47.7z"/>
	</g>
</g>
</svg>
