<?xml version="1.0" encoding="utf-8"?>
<!-- Generator: Adobe Illustrator 22.1.0, SVG Export Plug-In . SVG Version: 6.00 Build 0)  -->
<svg version="1.1" id="Layer_1" xmlns="http://www.w3.org/2000/svg" xmlns:xlink="http://www.w3.org/1999/xlink" x="0px" y="0px"
	 viewBox="0 0 102 102" enable-background="new 0 0 102 102" xml:space="preserve">
<g>
	<g>
		<g>
			<path id="path-0" fill="#385084" d="M6.6,1h88.9c3.1,0,5.6,2.5,5.6,5.6v88.9c0,3.1-2.5,5.6-5.6,5.6H6.6C3.5,101,1,98.5,1,95.4
				V6.6C1,3.5,3.5,1,6.6,1z"/>
		</g>
	</g>
	<g>
		<g>
			<path id="path-1" fill="#FFFFFF" d="M70,101V61.7h13l1.9-15.3H70v-9.8c0-4.4,1.2-7.4,7.5-7.4l8,0V15.5c-1.4-0.2-6.1-0.6-11.6-0.6
				c-11.5,0-19.4,7.1-19.4,20.2v11.3h-13v15.3h13V101H70z"/>
		</g>
	</g>
</g>
</svg>
