<?xml version="1.0" encoding="utf-8"?>
<!-- Generator: Adobe Illustrator 22.1.0, SVG Export Plug-In . SVG Version: 6.00 Build 0)  -->
<svg version="1.1" id="Layer_1" xmlns="http://www.w3.org/2000/svg" xmlns:xlink="http://www.w3.org/1999/xlink" x="0px" y="0px"
	 viewBox="0 0 102 102" enable-background="new 0 0 102 102" xml:space="preserve">
<g>
	<g>
		<path id="path-0_1_" fill="#040607" d="M6.6,1h88.9c3.1,0,5.5,2.5,5.5,5.5v89c0,3.1-2.4,5.5-5.5,5.5H6.6C3.4,101.1,1,98.5,1,95.6
			V6.5C1,3.5,3.4,1,6.6,1z"/>
	</g>
</g>
<path fill="#E32856" d="M0.8,13.2c7-2.3,14.5-3.7,22-4.2c34.6-1.9,65,19.2,77.2,49.6v-1.9C87.4,26.8,57,6.7,22.8,8.1
	c-7.5,0.5-15,1.9-22,4.2L0.8,13.2L0.8,13.2z"/>
<polygon fill="#FFFFFF" points="0.8,81.5 0.8,81.5 28.4,2 17.2,2 0.8,80.1 "/>
<polygon fill="#FFFFFF" points="1.3,81.5 51.8,2 39.2,2 1.3,81.5 "/>
<polygon fill="#040607" stroke="#040607" stroke-width="1.948" stroke-miterlimit="2.6131" points="34.5,50.2 34.5,24.4 50.4,24.4 
	50.9,31.5 42,31.5 42,34.7 49.5,34.7 49.5,41.8 42,41.8 42,50.2 "/>
<polygon fill="#040607" stroke="#040607" stroke-width="1.948" stroke-miterlimit="2.6131" points="96.7,50.2 88.8,36.6 96.2,24.4 
	87.8,24.4 85,30.1 81.8,24.4 73.3,24.4 80.8,37.1 73.3,50.2 81.3,50.2 85,43.6 88.8,50.2 "/>
<path fill="#040607" stroke="#040607" stroke-width="1.948" stroke-miterlimit="2.6131" d="M65.9,42.7l0.5-10.8
	c0-1.4-1.4-2.3-2.3-2.3c-1.4,0-2.3,0.9-2.3,2.3v10.8c0,1.4,0.9,2.3,2.3,2.3C64.9,45,65.9,44.1,65.9,42.7L65.9,42.7z M50.9,37.5
	c0-7,5.6-13.1,13.1-13.1c7,0,13.1,6.1,13.1,13.1S71,50.1,64,50.1C56.5,50.2,50.9,44.6,50.9,37.5L50.9,37.5z"/>
<polygon fill="#FFFFFF" points="34.5,50.2 34.5,24.4 50.4,24.4 50.9,31.5 42,31.5 42,34.7 49.5,34.7 49.5,41.8 42,41.8 42,50.2 "/>
<polygon fill="#FFFFFF" points="96.7,50.2 88.8,36.6 96.2,24.4 87.8,24.4 85,30.1 81.8,24.4 73.3,24.4 80.8,37.1 73.3,50.2 
	81.3,50.2 85,43.6 88.8,50.2 "/>
<path fill="#FFFFFF" d="M65.9,42.7l0.5-10.8c0-1.4-1.4-2.3-2.3-2.3c-1.4,0-2.3,0.9-2.3,2.3v10.8c0,1.4,0.9,2.3,2.3,2.3
	C64.9,45,65.9,44.1,65.9,42.7L65.9,42.7z M50.9,37.5c0-7,5.6-13.1,13.1-13.1c7,0,13.1,6.1,13.1,13.1S71,50.1,64,50.1
	C56.5,50.2,50.9,44.6,50.9,37.5L50.9,37.5z"/>
<polygon fill="#040607" stroke="#040607" stroke-width="1.948" stroke-miterlimit="2.6131" points="37.3,54.4 52.3,54.4 52.3,60 
	42.9,60 42.9,63.3 50.9,63.3 50.9,68.4 42.9,68.4 42.9,72.1 52.3,72.1 52.3,77.8 37.3,77.8 "/>
<polygon fill="#040607" stroke="#040607" stroke-width="1.948" stroke-miterlimit="2.6131" points="53.7,54.4 59.3,54.4 62.1,67.9 
	64.9,54.4 70.1,54.4 72.9,67.9 75.7,54.4 80.8,54.4 75.2,77.8 70.1,77.8 67.3,64.2 64.4,77.8 58.8,77.8 "/>
<path fill="#040607" stroke="#040607" stroke-width="1.948" stroke-miterlimit="2.6131" d="M85,69.3c0.5,2.3,1.9,3.3,4.2,3.3
	c1.4,0,1.9-0.9,1.9-1.9c0-1.9-1.4-1.4-3.7-2.3c-4.7-1.4-7-3.3-7-7c0-4.7,3.3-8,8.9-8c3.7,0,6.5,2.3,8,6.1L92,60.9
	c-0.9-1.4-1.9-2.3-3.3-2.3s-2.3,0.9-2.3,1.9c0,1.4,1.4,1.4,3.7,2.3c2.3,0.5,3.7,0.9,5.6,2.3c0.9,0.9,1.9,2.8,1.9,4.7
	c0,1.9-0.9,3.7-1.9,5.1c-1.9,1.9-4.2,2.8-7,2.8c-5.1,0-8.4-2.3-9.4-7L85,69.3L85,69.3z"/>
<polygon fill="#040607" stroke="#040607" stroke-width="1.948" stroke-miterlimit="2.6131" points="29.8,54.4 29.8,66.1 22.8,54.4 
	16.3,54.4 16.3,77.8 21.9,77.8 21.9,64.2 30.3,77.8 35.9,77.8 35.9,54.4 "/>
<polygon fill="#FFFFFF" points="37.3,54.4 52.3,54.4 52.3,60 42.9,60 42.9,63.3 50.9,63.3 50.9,68.4 42.9,68.4 42.9,72.1 52.3,72.1 
	52.3,77.8 37.3,77.8 "/>
<polygon fill="#FFFFFF" points="53.7,54.4 59.3,54.4 62.1,67.9 64.9,54.4 70.1,54.4 72.9,67.9 75.7,54.4 80.8,54.4 75.2,77.8 
	70.1,77.8 67.3,64.2 64.4,77.8 58.8,77.8 "/>
<path fill="#FFFFFF" d="M85,69.3c0.5,2.3,1.9,3.3,4.2,3.3c1.4,0,1.9-0.9,1.9-1.9c0-1.9-1.4-1.4-3.7-2.3c-4.7-1.4-7-3.3-7-7
	c0-4.7,3.3-8,8.9-8c3.7,0,6.5,2.3,8,6.1L92,60.9c-0.9-1.4-1.9-2.3-3.3-2.3s-2.3,0.9-2.3,1.9c0,1.4,1.4,1.4,3.7,2.3
	c1.9,0.5,3.7,0.9,5.6,2.3c0.9,0.9,1.9,2.8,1.9,4.7c0,1.9-0.9,3.7-1.9,5.1c-1.9,1.9-4.2,2.8-7,2.8c-5.1,0-8.4-2.3-9.4-7L85,69.3
	L85,69.3z"/>
<polygon fill="#FFFFFF" points="29.8,54.4 29.8,66.1 22.8,54.4 16.3,54.4 16.3,77.8 21.9,77.8 21.9,64.2 30.3,77.8 35.9,77.8 
	35.9,54.4 "/>
</svg>
