<?xml version="1.0" encoding="utf-8"?>
<!-- Generator: Adobe Illustrator 22.1.0, SVG Export Plug-In . SVG Version: 6.00 Build 0)  -->
<svg version="1.1" id="Layer_1" xmlns="http://www.w3.org/2000/svg" xmlns:xlink="http://www.w3.org/1999/xlink" x="0px" y="0px"
	 viewBox="0 0 102 102" enable-background="new 0 0 102 102" xml:space="preserve">
<g>
	<g>
		<path id="path-0" fill="#96CB5F" d="M6.6,1h88.9c3.1,0,5.5,2.5,5.5,5.5v89c0,3.1-2.4,5.5-5.5,5.5H6.6C3.4,101.1,1,98.5,1,95.6V6.5
			C1,3.5,3.4,1,6.6,1z"/>
	</g>
</g>
<g>
	<g>
		<polygon fill="#FFFFFF" points="51.1,89.8 73.2,76.7 73.2,51.1 51.1,64.3 		"/>
		<polygon fill="#FFFFFF" points="51.1,38.5 73.2,51.1 73.2,25.4 		"/>
		<polygon fill="#DFEED1" points="51.1,38.5 51.1,64.3 73.2,51.1 		"/>
	</g>
	<g>
		<polygon fill="#FFFFFF" points="28.8,51.7 28.8,77.4 51.1,64.3 		"/>
		<polygon fill="#FFFFFF" points="51.1,12.2 28.8,25.3 28.8,51.7 51.1,38.5 		"/>
		<polygon fill="#96CB5F" points="51.1,38.5 28.8,51.7 51.1,64.3 		"/>
	</g>
</g>
</svg>
