<?xml version="1.0" encoding="utf-8"?>
<!-- Generator: Adobe Illustrator 22.1.0, SVG Export Plug-In . SVG Version: 6.00 Build 0)  -->
<svg version="1.1" id="Layer_1" xmlns="http://www.w3.org/2000/svg" xmlns:xlink="http://www.w3.org/1999/xlink" x="0px" y="0px"
	 viewBox="0 0 102 102" enable-background="new 0 0 102 102" xml:space="preserve">
<g>
	<g>
		<path id="path-0_1_" fill="#C6C6C5" d="M6.6,1h88.9c3.1,0,5.5,2.5,5.5,5.5v89c0,3.1-2.4,5.5-5.5,5.5H6.6C3.4,101.1,1,98.5,1,95.6
			V6.5C1,3.5,3.4,1,6.6,1z"/>
	</g>
</g>
<g>
	<path fill="#3578BD" d="M21.8,28.2v17.5h18.4V28.2h10v45.6h-10V54.1H21.8v19.7h-10V28.2H21.8z"/>
	<path fill="#3578BD" d="M69.6,28.2c2.9,0,5.7,0.5,8.2,1.4s4.7,2.3,6.6,4.2c1.9,1.9,3.3,4.2,4.3,7c1,2.8,1.6,6.1,1.6,9.9
		c0,3.3-0.4,6.4-1.3,9.2c-0.9,2.8-2.1,5.2-3.9,7.3c-1.7,2-3.9,3.6-6.4,4.8c-2.6,1.2-5.6,1.8-9.1,1.8H49.9V28.2H69.6z M68.9,65.4
		c1.4,0,2.8-0.2,4.2-0.7c1.4-0.5,2.6-1.2,3.6-2.3c1.1-1.1,1.9-2.5,2.6-4.2c0.6-1.7,1-3.9,1-6.4c0-2.3-0.2-4.4-0.7-6.2
		c-0.4-1.9-1.2-3.4-2.2-4.8c-1-1.3-2.4-2.3-4.1-3c-1.7-0.7-3.8-1.1-6.2-1.1H60v28.7C60,65.4,68.9,65.4,68.9,65.4z"/>
</g>
</svg>
