<?xml version="1.0" encoding="utf-8"?>
<!-- Generator: Adobe Illustrator 22.1.0, SVG Export Plug-In . SVG Version: 6.00 Build 0)  -->
<svg version="1.1" id="Layer_1" xmlns="http://www.w3.org/2000/svg" xmlns:xlink="http://www.w3.org/1999/xlink" x="0px" y="0px"
	 viewBox="0 0 102 102" enable-background="new 0 0 102 102" xml:space="preserve">
<g>
	<g>
		<g>
			
				<radialGradient id="path-0_1_" cx="-1180.6528" cy="1284.6528" r="0.8415" gradientTransform="matrix(72 0 0 -72 85058 92546)" gradientUnits="userSpaceOnUse">
				<stop  offset="1" style="stop-color:#DBA628"/>
				<stop  offset="1" style="stop-color:#FAF3A9"/>
			</radialGradient>
			<path id="path-0" fill="url(#path-0_1_)" d="M6.6,1h88.9c3.1,0,5.6,2.5,5.6,5.6v88.9c0,3.1-2.5,5.6-5.6,5.6H6.6
				C3.5,101,1,98.5,1,95.4V6.6C1,3.5,3.5,1,6.6,1z"/>
		</g>
	</g>
	<g>
		<g>
			<path id="path-2" fill="#231F1E" d="M58.4,41.5c1,0,2,0.1,2,1.2v16.3c0,1-0.9,1.1-1.8,1.1c-0.2,0-0.5,0-0.7,0V41.5
				C58,41.5,58.2,41.5,58.4,41.5L58.4,41.5z M76.9,45.1c0.6,0,0.9,0.3,0.9,1l0,14c0,0.7-0.3,1.2-0.9,1.2c0,0-0.9-0.5-0.9-1.2l0-14
				C76,45.4,76.3,45.1,76.9,45.1L76.9,45.1z M69.4,37.1v27.8h5.4c0,0,0.4-1.5,0.8-1.5c0,0,0.1,0,0.1,0c0.5,0.2,2.7,1.2,4.3,1.2
				c0,0,2.2-0.1,3-0.5c0.9-0.7,1.4-1.6,1.4-2.7V45.4c0.2-2.3-2.2-3.7-4-3.8c-0.1,0-0.1,0-0.2,0c-1.7,0-3.5,1.2-4.2,1.9v-6.4H69.4z
				 M17.7,37.1v27.8h6.5V37.1H17.7z M27.4,37.1v27.8h5.8V49.3L36,64.9h4l2.7-15.6v15.6h5.5V37.1h-8.8l-1.5,13.1l-2.2-13.1H27.4z
				 M51.6,37.1v27.8h7.3c4.1,0,5.5-0.5,6.7-1.4c1.2-1,1.7-2.3,1.7-4V42.6c0-1.9-0.6-3.2-1.8-4.1c-1.2-0.9-2.3-1.3-6.6-1.3H51.6z"/>
		</g>
	</g>
</g>
</svg>
