<?xml version="1.0" encoding="utf-8"?>
<svg version="1.1" xmlns="http://www.w3.org/2000/svg" xmlns:xlink="http://www.w3.org/1999/xlink" height="72" width="72">
  <defs>
    <path id="path-0" opacity="1" d="M4,0 L68,0 C70.207660097976,0 72,1.792339902024 72,4 L72,68 C72,70.207660097976 70.207660097976,72 68,72 L4,72 C1.792339902024,72 0,70.207660097976 0,68 L0,4 C0,1.792339902024 1.792339902024,0 4,0Z"/>
    <path id="path-1" opacity="1" d="M50.342314199999976,19.777390600000004 C51.38201929999997,19.777390600000004 52.232841699999994,20.648461999999995 52.232841699999994,21.71334660000001 L52.232841699999994,26.34701050000001 C52.232841699999994,27.411895200000004 51.38201929999997,28.2829665 50.342314199999976,28.2829665 L45.5951503,28.2829665 C44.55501989999999,28.2829665 43.70462279999998,27.411895200000004 43.70462279999998,26.34701050000001 L43.70462279999998,21.71334660000001 C43.70462279999998,20.648461999999995 44.55501989999999,19.777390600000004 45.5951503,19.777390600000004 L50.342314199999976,19.777390600000004ZM36.039563199999975,28.038630999999995 C40.69824159999996,28.038630999999995 44.47504249999997,31.785108699999995 44.47504249999997,36.4061421 C44.47504249999997,41.0276109 40.69824159999996,44.77408869999999 36.039563199999975,44.77408869999999 C31.381310299999996,44.77408869999999 27.604509399999984,41.0276109 27.604509399999984,36.4061421 C27.604509399999984,31.785108699999995 31.381310299999996,28.038630999999995 36.039563199999975,28.038630999999995 L36.039563199999975,28.038630999999995ZM52.254112299999974,33.1840493 L52.254112299999974,51.3480639 C52.254112299999974,52.2883854 51.502410699999984,53.0575414 50.58437319999996,53.0575414 L21.336925699999995,53.0575414 C20.418462799999986,53.0575414 19.66718659999998,52.2883854 19.66718659999998,51.3480639 L19.66718659999998,33.1840493 L23.52439019999997,33.1840493 C23.174702199999956,34.353462500000006 22.985819599999957,35.5912548 22.985819599999957,36.8734718 C22.985819599999957,44.0258384 28.830544499999974,49.8236891 36.040414099999964,49.8236891 C43.25028359999999,49.8236891 49.09543389999999,44.0258384 49.09543389999999,36.8734718 C49.09543389999999,35.5912548 48.906125900000006,34.353462500000006 48.55643789999999,33.1840493 L52.254112299999974,33.1840493ZM20.390811100000008,15 C17.425694799999974,15 14.999574600000017,17.483424299999996 15,20.518672300000006 L15,52.4808921 C15,55.5165757 17.425694799999974,58 20.390811100000008,58 L51.60918889999999,58 C54.574305200000026,58 57,55.5165757 57,52.4808921 L57,20.519107899999995 C57,17.483424299999996 54.574305200000026,15 51.60918889999999,15 L20.390811100000008,15Z"/>
  </defs>
  <g opacity="1">
    <g opacity="1">
      <use xlink:href="#path-0" fill="rgb(38,93,137)" fill-opacity="1"/>
    </g>
    <g opacity="1">
      <use xlink:href="#path-1" fill="rgb(255,255,255)" fill-opacity="1"/>
    </g>
  </g>
</svg>