<?xml version="1.0" encoding="utf-8"?>
<!-- Generator: Adobe Illustrator 22.1.0, SVG Export Plug-In . SVG Version: 6.00 Build 0)  -->
<svg version="1.1" id="Layer_1" xmlns="http://www.w3.org/2000/svg" xmlns:xlink="http://www.w3.org/1999/xlink" x="0px" y="0px"
	 viewBox="0 0 102 102" enable-background="new 0 0 102 102" xml:space="preserve">
<g>
	<g>
		<g>
			<path id="path-0_1_" fill="#F2F2F2" d="M6.6,1h88.9c3.1,0,5.5,2.5,5.5,5.5v89c0,3.1-2.4,5.5-5.5,5.5H6.6C3.4,101.1,1,98.5,1,95.6
				V6.5C1,3.5,3.4,1,6.6,1z"/>
		</g>
	</g>
	<path fill="#AA1E23" d="M58.4,29.2c-13-0.6-24.6,6.8-25.8,19.5c-0.1-1.8-0.3-3.5-0.2-5.4c0.9-12.4,11-21.6,22.9-22.6
		c6.6-0.5,13.9,1.2,18,4.4c-4.5-5.7-9.6-9.7-18.3-10.3c-6.8-0.5-13.6,1.2-18.4,4c-9.3,5.3-17.4,16-17.4,28.8
		c0,8.9,4.6,16.5,9.9,21.2c3.9,3.4,9.4,6.1,16.2,6.1c12.6,0,22-6.8,24-18.3c0.3,7.9-2.3,14-6.5,18.6c-4,4.3-9.9,7.8-16.9,8.3
		c-7.1,0.5-12.9-1.8-17.1-5.1c0-0.1-0.1-0.2-0.2,0c1.7,2.1,2.8,3.7,4.4,5.1c9.2,7.7,23.8,6.5,33.6,0.5c8.7-5.4,16-15.5,15.9-28.3
		c0-8-3.3-14.6-7.9-19.2C70.8,32.8,65.3,29.5,58.4,29.2z M45.6,58c-1.4-1.4-2.1-4.1-1.4-6.7c0.8-3.2,3.6-5.5,7.2-6.1
		c4.6-0.7,8.1,1.9,8.3,5.9C59.8,57.8,50.5,62.7,45.6,58z"/>
</g>
</svg>
