<?xml version="1.0" encoding="utf-8"?>
<!-- Generator: Adobe Illustrator 22.1.0, SVG Export Plug-In . SVG Version: 6.00 Build 0)  -->
<svg version="1.1" id="Layer_1" xmlns="http://www.w3.org/2000/svg" xmlns:xlink="http://www.w3.org/1999/xlink" x="0px" y="0px"
	 viewBox="0 0 102 102" enable-background="new 0 0 102 102" xml:space="preserve">
<g>
	<g>
		<path id="path-0" fill="#010101" d="M6.6,1h88.9c3.1,0,5.5,2.6,5.5,5.5v89c0,3.1-2.6,5.5-5.5,5.5H6.6C3.6,101.1,1,98.6,1,95.6V6.5
			C1,3.6,3.6,1,6.6,1z"/>
	</g>
</g>
<g>
	<path fill="#FFFFFF" d="M18.2,24.5c0-4.6,3.7-8.3,8.3-8.3s8.3,3.7,8.3,8.3c0,4.5-3.7,8.3-8.3,8.3S18.2,29,18.2,24.5 M44.9,66.8
		c3.9,4.3,9.8,7.4,15.9,7.4c5.8,0,9.9-3.6,9.9-8.6c0-8.7-12.7-9.8-21.6-15.1c-5.3-3.2-9.6-7.8-9.6-15.4c0-12.1,11.1-19.1,22.2-19.1
		c6.8,0,13.3,1.6,19.6,6.3l-6.6,9.9c-2.8-2.6-7.2-4.5-11.6-4.5c-4.9,0-10.4,2-10.4,7.3c0,10.9,31.2,7.6,31.2,30.3
		c0,12.2-10.8,20.5-23,20.5c-9.1,0-17.6-3.8-24.5-10.1L44.9,66.8z M32.7,85H20.3V38h12.7v46.9h-0.2V85z"/>
</g>
</svg>
