<?xml version="1.0" encoding="utf-8"?>
<!-- Generator: Adobe Illustrator 22.1.0, SVG Export Plug-In . SVG Version: 6.00 Build 0)  -->
<svg version="1.1" id="Layer_1" xmlns="http://www.w3.org/2000/svg" xmlns:xlink="http://www.w3.org/1999/xlink" x="0px" y="0px"
	 viewBox="0 0 102 102" enable-background="new 0 0 102 102" xml:space="preserve">
<g>
	<g>
		<g>
			<path id="path-0_1_" fill="#33383E" d="M6.6,1h88.9c3.1,0,5.5,2.5,5.5,5.5v89c0,3.1-2.4,5.5-5.5,5.5H6.6C3.4,101.1,1,98.5,1,95.6
				V6.5C1,3.5,3.4,1,6.6,1z"/>
		</g>
	</g>
	<path id="XMLID_4_" fill="#FFFFFF" d="M79.8,62.4c0,6.2-2.9,11.5-8.7,15.2c-5.7,3.9-13.4,5.8-23.4,5.8c-5.5,0-10.5-0.5-14.8-1.4
		c-4.5-1.1-8-2.3-10.7-3.3V62.4H24c1.1,0.6,2.3,1.4,3.5,2.3c1.3,0.8,3.1,1.8,5.5,2.7c1.9,0.8,4.3,1.4,6.9,2.1c2.6,0.6,5.3,1,8.4,1
		c3.9,0,6.6-0.5,8.5-1.3c1.9-1,2.7-2.3,2.7-3.9c0-1.4-0.5-2.6-1.6-3.2c-1.1-0.6-3.2-1.3-6.2-1.9c-1.4-0.4-3.3-0.8-5.8-1.1
		c-2.6-0.4-4.8-0.8-6.9-1.4c-5.5-1.4-9.7-3.7-12.4-6.8s-4.1-6.9-4.1-11.5c0-6,2.7-10.9,8.4-14.8c5.6-4.1,13.2-6,23-6
		c4.5,0,9,0.5,13.2,1.4s7.4,1.9,9.8,3.1v15.4h-1.6c-2.9-1.9-6.3-3.5-9.9-4.8c-3.9-1.3-7.6-1.9-11.5-1.9c-3.2,0-5.8,0.5-8,1.3
		c-2.1,0.8-3.2,2.1-3.2,3.7c0,1.4,0.5,2.6,1.4,3.3c1,0.8,3.3,1.6,6.9,2.3c2.1,0.5,4.2,0.8,6.6,1.3c2.3,0.4,4.7,0.8,6.9,1.4
		c5.1,1.3,9,3.3,11.5,6.2C78.5,54.2,79.8,57.9,79.8,62.4"/>
</g>
</svg>
