<?xml version="1.0" encoding="utf-8"?>
<!-- Generator: Adobe Illustrator 22.1.0, SVG Export Plug-In . SVG Version: 6.00 Build 0)  -->
<svg version="1.1" id="Layer_1" xmlns="http://www.w3.org/2000/svg" xmlns:xlink="http://www.w3.org/1999/xlink" x="0px" y="0px"
	 viewBox="0 0 102 102" enable-background="new 0 0 102 102" xml:space="preserve">
<g>
	<g>
		<g>
			<path id="path-0_1_" fill="#333333" d="M6.6,1h88.9c3.1,0,5.5,2.5,5.5,5.5v89c0,3.1-2.4,5.5-5.5,5.5H6.6C3.4,101.1,1,98.5,1,95.6
				V6.5C1,3.5,3.4,1,6.6,1z"/>
		</g>
	</g>
	<path fill="#F26322" d="M84.4,64l-2.7,1c0,0,0.8,12.1-6.5,8.7c-7.3-3.3-6.9-19.4-6.2-23.5c0-0.2,0.1-0.3,0.1-0.6
		c1.2-5.3,9.9-27.4,9.9-27.4h-5.8l-9.3,16.2c-3.5-9.4-10.6-18-20.8-17.6c-14.6,0.5-26.4,13.4-26.4,30S28.5,80.9,43,80.9
		c8.9,0,16.8-5.1,21.6-12.8c1.8,5,6.1,13.8,13.1,13.1C88.9,79.9,84.4,64,84.4,64z M43.5,75.5c-8.9,0-16.1-11.2-16.1-25
		s7.1-24.7,16-25.2c8-0.4,15.9,11.4,16.2,25.2C60,66.9,52.4,75.5,43.5,75.5z"/>
</g>
</svg>
