<?xml version="1.0" encoding="utf-8"?>
<!-- Generator: Adobe Illustrator 22.1.0, SVG Export Plug-In . SVG Version: 6.00 Build 0)  -->
<svg version="1.1" id="Layer_1" xmlns="http://www.w3.org/2000/svg" xmlns:xlink="http://www.w3.org/1999/xlink" x="0px" y="0px"
	 viewBox="0 0 102 102" enable-background="new 0 0 102 102" xml:space="preserve">
<g>
	<g>
		<g>
			<path id="path-0_1_" fill="#101A2C" d="M6.6,1h88.9c3.1,0,5.5,2.6,5.5,5.5v89c0,3.1-2.6,5.5-5.5,5.5H6.6C3.6,101.1,1,98.6,1,95.6
				V6.5C1,3.6,3.6,1,6.6,1z"/>
		</g>
	</g>
	<g>
		<path fill="#FFFFFF" d="M32.3,58.9H13.8c0,0-0.7,4.6,0,10s12.1,8.9,23.2,8.9s21.6-4,21.6-17S46.1,45.6,41.9,44.2s-7.2-3.4-8.4-6
			c-1.1-2.6-1.1-4,2.2-4c3.5,0,3.8,7.1,3.8,7.1h18.7v-7.7c0,0-0.7-9.3-22.5-9.4c-19.4-0.1-22.9,7.7-22.9,18
			c0,10.2,15.4,14,18.7,14.8c4.9,1.3,6.8,3.7,6.8,3.7s1.9,6.8-2.2,6.8C32.1,67.3,32.3,58.9,32.3,58.9L32.3,58.9z"/>
		<polygon fill="#FFFFFF" points="68.8,24.4 89.2,24.4 89.2,77.5 68.8,77.5 		"/>
	</g>
</g>
</svg>
