<?xml version="1.0" encoding="utf-8"?>
<!-- Generator: Adobe Illustrator 22.1.0, SVG Export Plug-In . SVG Version: 6.00 Build 0)  -->
<svg version="1.1" id="Layer_1" xmlns="http://www.w3.org/2000/svg" xmlns:xlink="http://www.w3.org/1999/xlink" x="0px" y="0px"
	 viewBox="0 0 102 102" enable-background="new 0 0 102 102" xml:space="preserve">
<g>
	<g>
		<g>
			<g>
				<path id="path-0" fill="#191414" d="M5,1h92c2.2,0,4,1.8,4,4v92c0,2.2-1.8,4-4,4H5c-2.2,0-4-1.8-4-4V5C1,2.8,2.8,1,5,1z"/>
			</g>
		</g>
		<g>
			<g>
				<g>
					
						<ellipse id="ellipse-1" transform="matrix(3.067434e-03 -1 1 3.067434e-03 -0.1539 100.4537)" fill="#191414" cx="50.3" cy="50.3" rx="33.1" ry="33.1"/>
				</g>
			</g>
			<g>
				<g>
					<path id="path-2" fill="#1DB954" d="M44.3,30.7c12,0,24.7,2.5,33.9,7.9c1.2,0.7,2.1,1.8,2.1,3.7c0,2.2-1.8,3.8-3.9,3.8
						c-0.8,0-1.3-0.2-2.1-0.6c-7.4-4.4-18.9-6.9-30.1-6.9c-5.6,0-11.2,0.6-16.4,2c-0.6,0.1-1.3,0.4-2.1,0.4c-2.2,0-3.9-1.7-3.9-3.9
						c0-2.2,1.4-3.5,2.9-3.9C30.7,31.5,37.2,30.7,44.3,30.7L44.3,30.7z M43.5,44.8c10.7,0,21.1,2.7,29.3,7.6
						c1.4,0.8,1.9,1.8,1.9,3.2c0,1.8-1.4,3.2-3.2,3.2c-0.9,0-1.4-0.4-2.1-0.7c-6.7-4-15.9-6.6-26-6.6c-5.2,0-9.7,0.7-13.4,1.7
						c-0.8,0.2-1.2,0.5-2,0.5c-1.8,0-3.2-1.4-3.2-3.2c0-1.7,0.8-2.9,2.5-3.4C31.9,45.8,36.6,44.8,43.5,44.8L43.5,44.8z M44,58.2
						c9,0,17,2.1,23.8,6.2c1,0.6,1.6,1.2,1.6,2.7c0,1.5-1.2,2.6-2.5,2.6c-0.7,0-1.1-0.2-1.7-0.6c-5.9-3.6-13.3-5.5-21.2-5.5
						c-4.4,0-8.8,0.6-12.9,1.4c-0.7,0.1-1.5,0.4-2,0.4c-1.6,0-2.6-1.2-2.6-2.6c0-1.7,1-2.6,2.2-2.8C33.7,58.8,38.8,58.2,44,58.2
						L44,58.2z M50.3,9.3c-22.6,0-41,18.3-41,41s18.3,41,41,41s41-18.3,41-41S72.9,9.3,50.3,9.3L50.3,9.3z"/>
				</g>
			</g>
		</g>
	</g>
</g>
</svg>
