<?xml version="1.0" encoding="utf-8"?>
<!-- Generator: Adobe Illustrator 22.1.0, SVG Export Plug-In . SVG Version: 6.00 Build 0)  -->
<svg version="1.1" id="Layer_1" xmlns="http://www.w3.org/2000/svg" xmlns:xlink="http://www.w3.org/1999/xlink" x="0px" y="0px"
	 viewBox="0 0 102 102" enable-background="new 0 0 102 102" xml:space="preserve">
<g>
	<g>
		<g>
			<path id="path-0" fill="#010101" d="M6.6,1h88.9c3.1,0,5.5,2.5,5.5,5.5v89c0,3.1-2.4,5.5-5.5,5.5H6.6C3.4,101.1,1,98.5,1,95.6
				V6.5C1,3.5,3.4,1,6.6,1z"/>
		</g>
	</g>
	<g>
		<polygon fill="#75BEE5" points="23.2,35.4 23.2,46.1 60.5,46.1 70.6,35.4 		"/>
		<path fill="#A3DDF4" d="M76,29.1c0-4.5-3.7-8.2-8.3-8.2H31.4c-4.6,0-8.3,3.7-8.3,8.2v3.3h52.8L76,29.1L76,29.1z"/>
		<polygon fill="#6498CC" points="23.2,49.1 23.2,60.2 47.1,60.2 57.6,49.1 		"/>
		<path fill="#4C83B7" d="M23.2,63.1v3.5c0,4.5,3.7,8.2,8.3,8.2h2l11.1-11.7H23.2z"/>
		<polygon fill="#55B0DE" points="76,35.4 70.6,35.4 60.5,46.1 76,46.1 		"/>
		<polygon fill="#4084C5" points="76,49.1 57.6,49.1 47.1,60.2 76,60.2 		"/>
		<path fill="#1E69A9" d="M54.2,85.4l10.6-10.6h3c4.6,0,8.3-3.7,8.3-8.2v-3.5H44.5L33.5,74.8h20.8L54.2,85.4L54.2,85.4z"/>
	</g>
</g>
</svg>
