<?xml version="1.0" encoding="utf-8"?>
<!-- Generator: Adobe Illustrator 22.1.0, SVG Export Plug-In . SVG Version: 6.00 Build 0)  -->
<svg version="1.1" id="Layer_1" xmlns="http://www.w3.org/2000/svg" xmlns:xlink="http://www.w3.org/1999/xlink" x="0px" y="0px"
	 viewBox="0 0 102 102" enable-background="new 0 0 102 102" xml:space="preserve">
<g>
	<g>
		<g>
			<g>
				<path id="path-0" fill="#CA0813" d="M6.6,1h88.9c3.1,0,5.6,2.5,5.6,5.6v88.9c0,3.1-2.5,5.6-5.6,5.6H6.6C3.5,101,1,98.5,1,95.4
					V6.6C1,3.5,3.5,1,6.6,1z"/>
			</g>
		</g>
	</g>
	<g>
		<path id="XMLID_94_" fill="#FFFFFF" d="M13.2,64.1c-6.4,0.6-7.3-3.4-7.6-5.1L9,58.8c0.1,0.8,0.7,2.7,3.7,2.4
			c1-0.1,1.7-0.3,2.3-0.7c0.7-0.4,1-1.1,0.8-1.8c-0.1-1.3-1.3-1.6-3.1-1.8l-1.8-0.3c-2.7-0.4-5.4-0.7-5.6-4.7
			c-0.1-0.8-0.1-2.3,0.7-3.7c1-1.4,2.5-2.3,4.9-2.5c2.3-0.3,4,0.3,5.2,1.6c1.3,1.3,1.6,2.8,1.7,3.5L14.4,51
			c-0.1-0.7-0.6-2.5-3.5-2.3C10.1,48.9,9.4,49,9,49.5c-0.6,0.4-0.8,1-0.7,1.7c0.1,1.4,1.3,1.6,1.8,1.6l4.1,0.7
			c2.3,0.4,4.4,1.1,4.8,4.2c0.3,2.3-0.6,4-2.3,5.1C15.5,63.9,13.8,64,13.2,64.1"/>
		<polyline id="XMLID_93_" fill="#FFFFFF" points="27.6,62.2 24.3,62.6 22.8,48.2 17.9,48.7 17.6,45.5 30.9,44.2 31.2,47.3 
			26.2,47.9 27.6,62.2 		"/>
		<polyline id="XMLID_92_" fill="#FFFFFF" points="83.3,56.5 70.8,57.8 69.2,40.3 81.2,39.1 81.4,42.3 72.8,43.1 73.2,46.8 
			81.2,45.9 81.4,49 73.5,49.9 74,54.3 83,53.4 83.3,56.5 		"/>
		<path id="XMLID_89_" fill="#FFFFFF" d="M41.1,60.7l-1.4-3.5l-5.9,0.6L33,61.5l-3.7,0.4l4-17.9l4-0.4l7.5,16.9L41.1,60.7
			 M34.3,54.8l4.1-0.4l-2.7-6.6L34.3,54.8z"/>
		<path id="XMLID_86_" fill="#FFFFFF" d="M49,60l-3.4,0.3l-1.8-17.5l7.5-0.7c3.1-0.3,5.4,1.7,5.6,5.1c0.1,0.8,0,2.3-0.6,3.5
			c-0.7,1.6-2.1,2.4-4.1,2.7l-3.8,0.4L49,60 M48.1,50.7l3.1-0.3c2.5-0.3,2.3-2.1,2.3-3c-0.1-1.7-1.1-2.3-3.2-2.1l-2.7,0.3L48.1,50.7
			z"/>
		<path id="XMLID_85_" fill="#FFFFFF" d="M58.7,57.1l-1.3-12.7c-0.1-1.8,1.1-3.4,3-3.5c1.7-0.1,3.2,0.8,3.7,2.5l1.7,5.6l-3.1,1
			l-1.8-6.1c0,0,0-0.1-0.1,0c0,0,0,0,0,0.1l1.1,11.6l8-0.8l0.3,3.1l-9.6,1C59.5,58.9,58.7,58.1,58.7,57.1"/>
		<path id="XMLID_78_" fill="#FFFFFF" d="M90.9,56.2c-6.4,0.6-7.3-3.4-7.6-5.1l3.4-0.3c0.1,0.8,0.7,2.7,3.7,2.4
			c1-0.1,1.7-0.3,2.3-0.7c0.7-0.4,1-1.1,0.8-1.8c-0.1-1.3-1.3-1.6-3.1-1.8l-1.8-0.3c-2.7-0.4-5.4-0.7-5.6-4.7
			c-0.1-0.7-0.1-2.3,0.8-3.5c1-1.4,2.5-2.3,4.9-2.5c2.3-0.3,4,0.3,5.2,1.6c1.3,1.3,1.6,2.8,1.7,3.5l-3.4,0.3
			c-0.1-0.7-0.6-2.5-3.5-2.3c-0.7,0.1-1.4,0.3-1.8,0.7c-0.6,0.4-0.8,1-0.7,1.7c0.1,1.4,1.3,1.6,1.8,1.6l4.1,0.7
			c2.3,0.4,4.4,1.1,4.8,4.2c0.3,2.3-0.6,4-2.3,5.1C93.2,55.9,91.6,56.2,90.9,56.2"/>
	</g>
</g>
</svg>
