<?xml version="1.0" encoding="utf-8"?>
<!-- Generator: Adobe Illustrator 22.1.0, SVG Export Plug-In . SVG Version: 6.00 Build 0)  -->
<svg version="1.1" id="Layer_1" xmlns="http://www.w3.org/2000/svg" xmlns:xlink="http://www.w3.org/1999/xlink" x="0px" y="0px"
	 viewBox="0 0 102 102" enable-background="new 0 0 102 102" xml:space="preserve">
<g>
	<g>
		<g>
			<path id="path-0" fill="#F2F3F4" d="M6.6,1h88.9c3.1,0,5.6,2.5,5.6,5.6v88.9c0,3.1-2.5,5.6-5.6,5.6H6.6C3.5,101,1,98.5,1,95.4
				V6.6C1,3.5,3.5,1,6.6,1z"/>
		</g>
	</g>
	<g>
		<g>
			<path id="path-1" d="M84.3,27.4c0,0-10.3,0-13.8,0l-1,0.2v1.3c0,0.2,0.5,0.3,0.6,0.4s0.5,0.2,0.6,0.2l1.2,0.1
				c1.4,0.1,1.8,0.4,2.4,0.9c0.5,0.5,0.6,1.5,0.2,2.8L62.4,65.6l-0.5-0.1l-7.7-17.7c0.1-0.3,0.2-0.4,0.2-0.4l6.3-13.3
				c0.7-1.4,1.5-2.6,1.8-3.2c0.7-1.1,1-1.3,2.8-1.4c0.4,0,0.5-0.2,0.5-0.6v-1.3l-0.1-0.1c0,0-7.6,0-11,0v0.1v1.3
				c0,0.2-0.1,0.3,0,0.4s0.2,0.2,0.3,0.2l0.5,0.1c1.4,0.1,2,0.5,2.2,0.7c0.3,0.5,0.5,1-0.3,2.9l-4.9,10.9L48.2,34
				c-1.4-3.2-1.8-4.2,0.4-4.4l0.6-0.1c0.4,0,0.4-0.2,0.4-0.5v-1.4v-0.1c0,0-8.1,0-11.8,0l-0.1,0.1V29c0,0.3,0.3,0.4,0.9,0.5
				c2,0.3,2,0.5,4,5c0.3,0.7,1.2,2.7,1.2,2.7l4.6,10.1c0,0,0.5,1.3,1.3,3.3L43,65.5l-0.4-0.1c0,0-10.4-24.4-13.4-32.6
				c-0.3-0.8-0.5-1.5-0.5-1.9c0-0.8,0.7-1.3,2-1.3l2-0.1c0.4,0,1.1-0.2,1.1-0.5v-1.3l-0.6-0.1c0,0-12.7,0-15.3,0l-0.4,0.1V29
				c0,0.3,0.3,0.4,0.9,0.5c1.6,0.1,2.6,0.4,3.1,0.8c0.5,0.5,1,1.7,1.7,3.5c4,10.2,12,28.3,15.9,38.6c1.1,2.8,2.5,3.2,4.2-0.1
				c1.8-3.7,5.3-11.8,7.9-17.8c2.4,6,5.7,14.1,7.3,17.7c1.3,2.9,2.7,3.2,4.2,0.1C66.5,62.8,77.8,34,77.8,34c0.5-1.4,1.2-2.5,2-3.3
				c0.9-0.8,2.2-1.2,4-1.3c0.4,0,0.5-0.2,0.5-0.6v-1.3V27.4z"/>
		</g>
	</g>
</g>
</svg>
