<?xml version="1.0" encoding="utf-8"?>
<!-- Generator: Adobe Illustrator 22.1.0, SVG Export Plug-In . SVG Version: 6.00 Build 0)  -->
<svg version="1.1" id="Layer_1" xmlns="http://www.w3.org/2000/svg" xmlns:xlink="http://www.w3.org/1999/xlink" x="0px" y="0px"
	 viewBox="0 0 102 102" enable-background="new 0 0 102 102" xml:space="preserve">
<g>
	<g>
		<g>
			<path id="path-0" fill="#191619" d="M6.6,1h88.9c3.1,0,5.6,2.5,5.6,5.6v88.9c0,3.1-2.5,5.6-5.6,5.6H6.6C3.5,101,1,98.5,1,95.4
				V6.6C1,3.5,3.5,1,6.6,1z"/>
		</g>
	</g>
	<g>
		<g>
			<g>
				<path id="path-1" fill="#FF9900" d="M78.3,68.5c-2.3,0-5,0.5-7.1,2c-0.6,0.4-0.5,1,0.1,1c0,0,0.1,0,0.1,0
					c1.2-0.2,3.3-0.4,5.1-0.4c1.4,0,2.6,0.2,3,0.7c0.9,1.2-1,5.9-1.8,8.1c-0.2,0.4,0,0.7,0.3,0.7c0.2,0,0.4-0.1,0.6-0.3
					c3.7-3.2,4.7-9.8,3.9-10.8C82.1,68.9,80.4,68.5,78.3,68.5L78.3,68.5z M19.8,71.1c-0.5,0-0.8,0.6-0.3,1.1
					c8.3,7.6,19.2,12.2,31.4,12.2c8.7,0,18.8-2.8,25.7-8c1-0.7,0.4-1.8-0.5-1.8c-0.2,0-0.3,0-0.5,0.1c-7.8,3.4-16.3,5-24,5
					c-11.4,0-22.5-3.2-31.4-8.5C20.1,71.1,19.9,71.1,19.8,71.1L19.8,71.1z"/>
			</g>
		</g>
		<g transform="translate(35.92273961218834, 29.58018243243248) scale(1, -1) translate(-35.92273961218834, -29.58018243243248)">
			<g>
				<path id="path-2" fill="#FFFFFF" d="M48.5,3.3c2.1,0,3.9,1.3,5.1,3.4c1.4,2.6,1.4,5,1.4,7.9v1.6c-5.3,0-10.9-1.2-10.9-7.5
					C44.1,5.5,45.7,3.3,48.5,3.3L48.5,3.3z M44.3-4.2c-6.2,0-11,3.9-11,11.6c0,6,3.2,10.2,7.8,12.2c4,1.8,9.5,2.1,13.8,2.6v1
					c0,1.8,0.1,3.9-0.9,5.4c-0.9,1.4-2.6,1.9-4.1,1.9c-2.8,0-5.3-1.5-5.9-4.5c-0.1-0.7-0.6-1.3-1.3-1.4l-7.1,0.8
					c-0.6,0.1-1.3,0.6-1.1,1.6C36.2,35.7,44,38.4,51,38.4c3.6,0,8.2-1,11-3.7c3.6-3.4,3.2-7.9,3.2-12.8V10.2c0-3.5,1.4-5,2.8-6.9
					c0.5-0.7,0.6-1.5,0-2c-1.5-1.3-4.2-3.6-5.6-4.9l0,0c-0.3-0.3-0.6-0.4-1-0.4c-0.3,0-0.5,0.1-0.8,0.2c-2.4,2.1-2.9,3-4.2,5
					C52.4-3,49.6-4.2,44.3-4.2L44.3-4.2z"/>
			</g>
		</g>
	</g>
</g>
</svg>
