<?xml version="1.0" encoding="utf-8"?>
<!-- Generator: Adobe Illustrator 22.1.0, SVG Export Plug-In . SVG Version: 6.00 Build 0)  -->
<svg version="1.1" id="Layer_1" xmlns="http://www.w3.org/2000/svg" xmlns:xlink="http://www.w3.org/1999/xlink" x="0px" y="0px"
	 viewBox="0 0 102 102" style="enable-background:new 0 0 102 102;" xml:space="preserve">
<style type="text/css">
	.st0{fill:#FFFFFF;}
	.st1{fill:#404B9F;}
</style>
<g>
	<g>
		<g>
			<path id="path-0_1_" class="st0" d="M6.6,1h88.9c3.1,0,5.5,2.5,5.5,5.5v88.9c0,3.1-2.5,5.5-5.5,5.5H6.6C3.4,101.1,1,98.6,1,95.6
				v-89C1,3.6,3.4,1,6.6,1z"/>
		</g>
	</g>
	<g>
		<path class="st1" d="M60.6,38.9c5.4,0.7,8.9-5.1,9.6-9.5s-2.8-9.5-6.6-10.4c-3.9-0.9-8.7,5.3-9.1,9.3
			C53.9,33.3,55.2,38.2,60.6,38.9z"/>
		<path class="st1" d="M29.4,52.9c7.4-1.6,6.4-10.4,6.1-12.3c-0.4-3-3.9-8.2-8.6-7.7c-6,0.5-6.8,9.1-6.8,9.1
			C19.3,46,22.1,54.5,29.4,52.9z"/>
		<path class="st1" d="M43.1,38.2c4.1,0,7.3-4.7,7.3-10.5s-3.3-10.5-7.3-10.5c-4.1,0-7.4,4.7-7.4,10.5S39,38.2,43.1,38.2z"/>
		<path class="st1" d="M37.2,68.2c-0.2,0.6-0.7,2.2-0.3,3.6c0.8,3.1,3.5,3.2,3.5,3.2h3.9v-9.4h-4.1C38.3,66.2,37.4,67.6,37.2,68.2z"
			/>
		<path class="st1" d="M82.1,46.3c0-2.1-1.7-8.4-8.2-8.4s-7.4,6-7.4,10.2c0,4,0.3,9.7,8.4,9.5C83,57.3,82.1,48.4,82.1,46.3z"/>
		<path class="st1" d="M73.9,64.7c0,0-8.4-6.5-13.3-13.5c-6.7-10.4-16.1-6.1-19.3-0.9c-3.2,5.3-8,8.6-8.8,9.5
			c-0.7,0.9-10.2,6-8.1,15.3s9.5,9.1,9.5,9.1s5.4,0.5,11.7-0.9s11.7,0.3,11.7,0.3S72,88.5,76,79C80.2,69.6,73.9,64.7,73.9,64.7z
			 M48.7,78.8h-9.6c-4.1-0.8-5.8-3.6-6-4.1s-1.4-2.8-0.8-6.6c1.8-5.8,6.9-6.2,6.9-6.2h5.2v-6.3l4.3,0.1V78.8z M66.5,78.8h-11
			c-4.3-1.1-4.5-4.1-4.5-4.1V62.5l4.5-0.1v10.9c0.3,1.2,1.7,1.4,1.7,1.4h4.5V62.5h4.8V78.8L66.5,78.8z"/>
	</g>
</g>
</svg>
