<?xml version="1.0" encoding="utf-8"?>
<!-- Generator: Adobe Illustrator 22.1.0, SVG Export Plug-In . SVG Version: 6.00 Build 0)  -->
<svg version="1.1" id="Layer_1" xmlns="http://www.w3.org/2000/svg" xmlns:xlink="http://www.w3.org/1999/xlink" x="0px" y="0px"
	 viewBox="0 0 102 102" enable-background="new 0 0 102 102" xml:space="preserve">
<g>
	<g>
		<g>
			<path id="path-0" d="M6.6,1h88.9c3.1,0,5.6,2.5,5.6,5.6v88.9c0,3.1-2.5,5.6-5.6,5.6H6.6C3.5,101,1,98.5,1,95.4V6.6
				C1,3.5,3.5,1,6.6,1z"/>
		</g>
	</g>
	<g>
		<g>
			<path id="path-1" fill="#FFFFFF" d="M19,44.8v4.6h2.1c0,0,2.8,0,2.8-2.5c0,0,0.1-2-2.4-2.1H19z M48.1,44.8v4.6h2.1
				c0,0,2.8,0,2.8-2.5c0,0,0.1-2-2.4-2.1H48.1z M22.2,52.3C22.2,52.3,22.2,52.3,22.2,52.3l-3.3,0v4.9h3.2c0,0,0,0,0.1,0
				c0.5,0,3.1-0.1,3.1-2.6C25.4,54.7,25.5,52.3,22.2,52.3L22.2,52.3z M51.3,52.3C51.3,52.3,51.3,52.3,51.3,52.3l-3.3,0v4.9h3.2
				c0,0,0,0,0.1,0c0.5,0,3.1-0.1,3.1-2.6C54.5,54.7,54.6,52.3,51.3,52.3L51.3,52.3z M21.9,42c5.4,0.5,5.1,4.8,5.1,4.8
				c0,2.6-2.2,3.6-2.2,3.6c3.9,1,3.7,4.5,3.7,4.5c0,5.1-5.6,5.1-5.7,5.1H16V42H21.9z M51,42c5.4,0.5,5.1,4.8,5.1,4.8
				c0,2.6-2.2,3.6-2.2,3.6c3.9,1,3.7,4.5,3.7,4.5c0,5.1-5.6,5.1-5.7,5.1H45V42H51z M81.2,41.8c0.5,0,1,0,1.6,0.1
				c0,0,1.9,0.2,4.7,1.4v3.3c0,0-3.1-2-6.5-2c0,0,0,0,0,0c-0.5,0-6.3,0.1-6.6,6.4c0,0-0.2,6,6.6,6.4c0,0,0.1,0,0.4,0
				c0.9,0,3.3-0.2,6.3-2.3v3.4c0,0-2.7,1.7-6.5,1.7c-1.4,0-3.1-0.3-4.7-0.9c0,0-5-1.9-5.2-8.3c0,0-0.2-6.5,6.5-8.7
				C77.8,42.3,79,41.8,81.2,41.8L81.2,41.8z M9.3,38.5v25h25.2v-25H9.3z M38.4,38.5v25h25.2v-25H38.4z M67.5,38.5v25h25.2v-25H67.5z
				"/>
		</g>
	</g>
</g>
</svg>
