<?xml version="1.0" encoding="utf-8"?>
<!-- Generator: Adobe Illustrator 22.1.0, SVG Export Plug-In . SVG Version: 6.00 Build 0)  -->
<svg version="1.1" id="Layer_1" xmlns="http://www.w3.org/2000/svg" xmlns:xlink="http://www.w3.org/1999/xlink" x="0px" y="0px"
	 viewBox="0 0 102 102" enable-background="new 0 0 102 102" xml:space="preserve">
<g>
	<g>
		<g>
			<path id="path-0_2_" fill="#191918" d="M6.6,1h88.9c3.1,0,5.5,2.5,5.5,5.5v89c0,3.1-2.4,5.5-5.5,5.5H6.6C3.4,101.1,1,98.5,1,95.6
				V6.5C1,3.5,3.4,1,6.6,1z"/>
		</g>
	</g>
	<g>
		<path fill="#FFFFFF" d="M37.8,33.5l-6.2-6.2H15.2v45.5h16.4l6.1-6.1V53l-3.1-3l3.1-3.1L37.8,33.5L37.8,33.5z M30.9,63.6l-2.5,2.5
			h-6.8l0.3-12.9h6.7l2.4,2.4L30.9,63.6L30.9,63.6z M30.9,44.4l-2.5,2.5h-6.8l0.3-12.9h6.7l2.4,2.4L30.9,44.4L30.9,44.4z"/>
		<path fill="#FFFFFF" d="M78.8,51.5l4.9-4.9V33.5L77.3,27H61.1l0.2,45.6h6.5V53.3h5l5.5,19.6h6.6L78.8,51.5z M77,44.4l-2.5,2.5
			h-6.8L67.8,34h6.8l2.4,2.4L77,44.4L77,44.4z"/>
		<polygon fill="#FFFFFF" points="43.6,59.5 43.6,51.7 55.1,40.4 55.1,48.5 		"/>
	</g>
</g>
</svg>
