<?xml version="1.0" encoding="utf-8"?>
<!-- Generator: Adobe Illustrator 22.1.0, SVG Export Plug-In . SVG Version: 6.00 Build 0)  -->
<svg version="1.1" id="Layer_1" xmlns="http://www.w3.org/2000/svg" xmlns:xlink="http://www.w3.org/1999/xlink" x="0px" y="0px"
	 viewBox="0 0 102 102" enable-background="new 0 0 102 102" xml:space="preserve">
<g>
	<g>
		<path id="path-0_1_" fill="#F2F2F2" d="M6.6,0.9h88.9c3.1,0,5.5,2.6,5.5,5.5v89c0,3.1-2.6,5.5-5.5,5.5H6.6C3.4,101,1,98.6,1,95.5
			V6.5C1,3.5,3.4,0.9,6.6,0.9z"/>
	</g>
</g>
<g>
	<path fill="#EF3E3F" d="M50.9,63.6c7,0,12.8-5.7,12.8-12.8S58,38.1,50.9,38.1s-12.8,5.7-12.8,12.8C38.1,58,43.9,63.6,50.9,63.6z"/>
	<path fill="#EF3E3F" d="M50.9,51"/>
	<path fill="#EF3E3F" d="M36.2,63.6c-7,0-12.8-5.7-12.8-12.8S29.1,38,36.2,38V63.6L36.2,63.6z"/>
	<path fill="#EF3E3F" d="M65.6,77.8v-12h12.2C77.8,72.4,72.4,77.8,65.6,77.8z"/>
	<path fill="#EF3E3F" d="M36.2,24.2v12.2H24C24,29.6,29.5,24.2,36.2,24.2"/>
	<path fill="#EF3E3F" d="M36.2,77.8v-12H24C24,72.4,29.5,77.8,36.2,77.8z"/>
	<path fill="#EF3E3F" d="M80.4,62V40c3.7,2.2,6.2,6.3,6.2,11C86.7,55.6,84.1,59.6,80.4,62z"/>
	<path fill="#EF3E3F" d="M40,21.5h22c-2.2-3.8-6.3-6.2-11-6.2S42.1,17.8,40,21.5z"/>
	<path fill="#EF3E3F" d="M61.7,80.5h-22c2.2,3.8,6.3,6.2,10.9,6.2C55.4,86.7,59.5,84.2,61.7,80.5z"/>
	<path fill="#EF3E3F" d="M63.7,65.8c0,7-5.7,12.8-12.8,12.8s-12.8-5.7-12.8-12.8H63.7L63.7,65.8z"/>
	<path fill="#EF3E3F" d="M65.6,63.6c7,0,12.8-5.7,12.8-12.8S72.7,38,65.6,38V63.6L65.6,63.6z"/>
	<path fill="#EF3E3F" d="M63.7,36.2c0-7-5.7-12.8-12.8-12.8s-12.8,5.7-12.8,12.8H63.7z"/>
	<path fill="#EF3E3F" d="M21.4,62V40c-3.7,2.2-6.2,6.3-6.2,11S17.7,59.6,21.4,62z"/>
	<path fill="#EF3E3F" d="M77.8,36.2H65.6V24.2C72.4,24.2,77.8,29.6,77.8,36.2"/>
</g>
</svg>
