<?xml version="1.0" encoding="utf-8"?>
<!-- Generator: Adobe Illustrator 22.1.0, SVG Export Plug-In . SVG Version: 6.00 Build 0)  -->
<svg version="1.1" id="Layer_1" xmlns="http://www.w3.org/2000/svg" xmlns:xlink="http://www.w3.org/1999/xlink" x="0px" y="0px"
	 viewBox="0 0 102 102" enable-background="new 0 0 102 102" xml:space="preserve">
<g>
	<g>
		<g>
			<path id="path-0" fill="#0066A7" d="M6.6,1h88.8c3.1,0,5.6,2.5,5.6,5.6v88.8c0,3.1-2.5,5.6-5.6,5.6H6.6C3.5,100.9,1,98.4,1,95.3
				V6.6C1,3.5,3.5,1,6.6,1z"/>
		</g>
	</g>
	<g transform="translate(36.000200735566295, 36) scale(1, -1) translate(-36.000200735566295, -36)">
		<g>
			<path id="path-1" fill="#FFFFFF" d="M62.1,3.7c-2.3,0-4.7,1.2-6.2,3.7c-2.1,3.4-7.3,12.2-7.3,12.2v-8.7c0-4.4-2.6-6.8-6.6-6.8
				h-9.3c-23.8,0-24,34.2-0.3,34.2h5.3v-4.3l0,0h-6c-4.1,0-7.3-1.6-9.5-4c-2.1-2.4-3.2-5.6-3.2-8.8c0-2.3,0.6-4.7,1.8-6.7
				c0.4-0.7,0.9-1.4,1.5-2.1c1.2-1.3,2.6-2.3,4.4-3c1.6-0.6,3.4-1,5.5-1h9.9c1.2,0,2.3,1.1,2.3,2.3v20.8l0,0c0,0.7,0.3,1,0.6,1.1
				c0.1,0,0.2,0,0.2,0c0.1,0,0.3,0,0.4-0.1c0.1-0.1,0.2-0.2,0.3-0.3C48.9,27.4,60,9.3,60,9.3l0,0l0,0c0.4-0.6,1-0.9,1.6-0.9
				c0.2,0,0.3,0,0.5,0.1c0.2,0.1,0.5,0.2,0.7,0.4c0.4,0.4,0.6,1,0.6,1.7v21c0,0.6,0.2,0.9,0.5,1c0,0,0.1,0,0.1,0.1
				c0.1,0,0.2,0,0.2,0c0.3,0,0.5-0.1,0.7-0.4l0,0l0,0l0,0l0,0l0,0l0,0C67.8,27.5,79,9.4,79,9.4l0,0l0,0l0,0c0.4-0.6,1-0.9,1.6-0.9
				l0,0c0.2,0,0.3,0,0.5,0.1c0.7,0.2,1.3,1,1.3,2v0.1v27.7h4.3V10.1c0-4.2-2.7-6.3-5.8-6.3c-2.3,0-4.7,1.2-6.2,3.7
				c-2.1,3.4-7.3,12.2-7.3,12.2v-9.6C67.8,5.9,65.1,3.7,62.1,3.7L62.1,3.7z M80.9,9.5c-0.2,0-0.5,0.1-0.7,0.5
				c0,0-11.2,18.2-14.1,22.9l0,0l0,0l0,0l0,0c-0.4,0.6-1,0.9-1.7,0.9c-0.2,0-0.4,0-0.5-0.1c-0.3-0.1-0.5-0.2-0.7-0.4
				c-0.1-0.1-0.1-0.1-0.2-0.2c-0.3-0.4-0.5-0.9-0.5-1.5v-21c0-0.2,0-0.4-0.1-0.5c-0.1-0.3-0.3-0.5-0.5-0.6c-0.1,0-0.1,0-0.2,0
				c-0.2,0-0.5,0.1-0.7,0.5c0,0-0.7,1.2-1.8,3C55.8,18.4,49.1,29.3,47,32.8l0,0c-0.4,0.6-1.1,0.9-1.7,0.9c-0.2,0-0.4,0-0.5-0.1
				c-0.1,0-0.3-0.1-0.4-0.2c-0.5-0.3-0.9-0.9-0.9-1.7c0-0.1,0-0.2,0-0.3V10.8c0-0.2,0-0.3-0.1-0.5c-0.2-0.4-0.6-0.7-1.1-0.7h-9.9
				c-1.2,0-2.3,0.1-3.3,0.4c-2.4,0.6-4.3,1.7-5.7,3.3c-1.5,1.6-2.4,3.6-2.7,5.7c-0.1,0.8-0.2,1.5-0.2,2.3c0,0.3,0,0.5,0,0.8
				c0.2,2.6,1.1,5.2,2.9,7.2c0.8,0.9,1.7,1.6,2.7,2.2c1.6,0.9,3.6,1.4,5.9,1.4h6l0,0v-4.3h-6c-9.7,0-10.7-14.8,0.7-14.8l0,0H38
				c0.7,0,1.1,0.5,1.1,1.1V32c0,3.6,2.5,6.1,5.5,6.3l0,0c0.1,0,0.3,0,0.4,0c2.2,0,4.6-1.3,6.4-4.3c4.4-7.6,6.9-12,6.9-12v10
				c0,3.8,2.8,6.4,6,6.4c2.2,0,4.6-1.3,6.4-4.3c4.4-7.6,6.9-12,6.9-12v16.2h4.3V10.7c0-0.7-0.3-1-0.6-1.1C81,9.6,81,9.5,80.9,9.5
				L80.9,9.5z"/>
		</g>
	</g>
</g>
</svg>
