<?xml version="1.0" encoding="utf-8"?>
<!-- Generator: Adobe Illustrator 22.1.0, SVG Export Plug-In . SVG Version: 6.00 Build 0)  -->
<svg version="1.1" id="Layer_1" xmlns="http://www.w3.org/2000/svg" xmlns:xlink="http://www.w3.org/1999/xlink" x="0px" y="0px"
	 viewBox="0 0 102 102" enable-background="new 0 0 102 102" xml:space="preserve">
<g>
	<g>
		<g>
			<path id="path-0" d="M6.6,1h88.9c3.1,0,5.6,2.5,5.6,5.6v88.9c0,3.1-2.5,5.6-5.6,5.6H6.6C3.5,101,1,98.5,1,95.4V6.6
				C1,3.5,3.5,1,6.6,1z"/>
		</g>
	</g>
	<g>
		<path fill="#FFFFFF" d="M51,16.3c-19.2,0-34.7,15.5-34.7,34.7S31.8,85.7,51,85.7c19.2,0,34.7-15.5,34.7-34.7S70.2,16.3,51,16.3z
			 M51,80c-16,0-29-13-29-29s13-29,29-29c16,0,29,13,29,29S67,80,51,80z"/>
		<path fill="#FFFFFF" d="M72.5,44.2C72.4,44.2,72.4,44.2,72.5,44.2c0-0.1,0-0.2,0-0.2c0,0,0-0.1,0-0.1c0,0,0-0.1,0-0.1
			c0,0,0-0.1,0-0.1c0,0,0-0.1-0.1-0.1c0,0,0-0.1-0.1-0.1c0,0-0.1-0.1-0.1-0.1c0,0,0-0.1-0.1-0.1c0,0-0.1-0.1-0.1-0.1
			c0,0,0,0-0.1-0.1c0,0-0.1-0.1-0.1-0.1c0,0-0.1,0-0.1-0.1c0,0,0,0,0,0L52,29.8c-0.6-0.4-1.4-0.4-2,0L30.4,42.9c0,0,0,0,0,0
			c0,0-0.1,0-0.1,0.1c0,0-0.1,0.1-0.1,0.1c0,0,0,0-0.1,0.1c0,0-0.1,0.1-0.1,0.1c0,0,0,0.1-0.1,0.1c0,0-0.1,0.1-0.1,0.1
			c0,0,0,0.1-0.1,0.1c0,0,0,0.1-0.1,0.1c0,0,0,0.1,0,0.1c0,0,0,0.1,0,0.1c0,0,0,0.1,0,0.1c0,0.1,0,0.1,0,0.2c0,0,0,0.1,0,0.1
			c0,0.1,0,0.2,0,0.2v13.1c0,0.1,0,0.2,0,0.2c0,0,0,0.1,0,0.1c0,0.1,0,0.1,0,0.2c0,0,0,0.1,0,0.1c0,0,0,0.1,0,0.1c0,0,0,0.1,0,0.1
			c0,0,0,0.1,0.1,0.1c0,0,0,0.1,0.1,0.1c0,0,0.1,0.1,0.1,0.1c0,0,0,0.1,0.1,0.1c0,0,0.1,0.1,0.1,0.1c0,0,0,0,0.1,0.1
			c0,0,0.1,0.1,0.1,0.1c0,0,0.1,0,0.1,0.1c0,0,0,0,0,0L50,72.2c0.3,0.2,0.7,0.3,1,0.3c0.4,0,0.7-0.1,1-0.3l19.6-13.1c0,0,0,0,0,0
			c0,0,0.1,0,0.1-0.1c0,0,0.1-0.1,0.1-0.1c0,0,0,0,0.1-0.1c0,0,0.1-0.1,0.1-0.1c0,0,0-0.1,0.1-0.1c0,0,0.1-0.1,0.1-0.1
			c0,0,0-0.1,0.1-0.1c0,0,0-0.1,0.1-0.1c0,0,0-0.1,0-0.1c0,0,0-0.1,0-0.1c0,0,0-0.1,0-0.1c0-0.1,0-0.1,0-0.2c0,0,0-0.1,0-0.1
			c0-0.1,0-0.2,0-0.2V44.5C72.5,44.4,72.5,44.3,72.5,44.2z M52.8,34.8l14.5,9.6l-6.5,4.3l-8-5.4V34.8z M49.2,34.8v8.6l-8,5.4
			l-6.5-4.3L49.2,34.8z M33.2,47.9l4.6,3.1l-4.6,3.1V47.9z M49.2,67.2l-14.5-9.6l6.5-4.3l8,5.3V67.2z M51,55.4L44.5,51l6.5-4.4
			l6.5,4.4L51,55.4z M52.8,67.2v-8.6l8-5.3l6.5,4.3L52.8,67.2z M68.8,54.1L64.2,51l4.6-3.1V54.1z"/>
	</g>
</g>
</svg>
