<?xml version="1.0" encoding="utf-8"?>
<!-- Generator: Adobe Illustrator 22.1.0, SVG Export Plug-In . SVG Version: 6.00 Build 0)  -->
<svg version="1.1" id="Layer_1" xmlns="http://www.w3.org/2000/svg" xmlns:xlink="http://www.w3.org/1999/xlink" x="0px" y="0px"
	 viewBox="0 0 102 102" style="enable-background:new 0 0 102 102;" xml:space="preserve">
<style type="text/css">
	.st0{fill:#FFFFFF;}
</style>
<g>
	<g>
		<g>
			<g>
				<path id="path-0" class="st0" d="M6.6,1h88.9c3.1,0,5.6,2.5,5.6,5.6v88.9c0,3.1-2.5,5.6-5.6,5.6H6.6C3.5,101,1,98.5,1,95.4V6.6
					C1,3.5,3.5,1,6.6,1z"/>
			</g>
		</g>
	</g>
	<path d="M50.9,8.5C27.5,8.5,8.4,27.5,8.4,51s19,42.5,42.5,42.5c11.7,0,22.2-4.7,29.9-12.2c0.6-1.9,1-5-1.4-5.7
		c-1.5-0.4-2.9-0.1-4,0.3c-6.4,6.1-15,10-24.4,10c-10.3,0-19.4-4.4-26-11.4l18.3-28.8v14.6c0,0,0.6,6.5,5.3,7.6s8.1-5.6,8.1-5.6
		l11-17.1v9.6c0,0,0.6,12.9,12.8,12.9c0.4,0,0.8,0,1.3-0.1l0,0c0.3,0,0.4-0.1,0.7-0.1l0,0c1.4-0.1,2.5-0.6,3.6-1.1
		c4-1.9,6-5.6,6.9-7.8c0-0.3,0.1-0.4,0.1-0.7c0.3-1.9,0.6-4,0.6-6c0-0.4,0-0.7,0-1.1C93.6,27.5,74.4,8.5,50.9,8.5z M80.2,60.2
		c-4.2,0.1-4.9-4-4.9-4s0.4-10.6-0.1-13.6c-0.6-3.1-1.2-6.2-5.3-7.2c-4-1-7.4,3.6-7.4,3.6L51.1,57c0,0,0.4-15.1-0.1-19.4
		c-0.7-4.4-2.8-5.3-5.3-5.7c-2.4-0.4-4.9,3.2-4.9,3.2L20,67.5c-2.6-5-4.2-10.7-4.2-16.7c0-19.3,15.7-35,35-35s35.1,15.7,35.1,35
		c0,1.8-0.1,3.6-0.4,5.3C84.4,57.9,82.6,60.2,80.2,60.2z"/>
</g>
</svg>
