<?xml version="1.0" encoding="utf-8"?>
<!-- Generator: Adobe Illustrator 22.1.0, SVG Export Plug-In . SVG Version: 6.00 Build 0)  -->
<svg version="1.2" baseProfile="tiny" id="Layer_1" xmlns="http://www.w3.org/2000/svg" xmlns:xlink="http://www.w3.org/1999/xlink"
	 x="0px" y="0px" viewBox="0 0 102 102" xml:space="preserve">
<g>
	<g>
		<g>
			<g>
				<path id="path-0" fill="#101820" d="M6.6,1h88.9c3.1,0,5.6,2.5,5.6,5.6v88.9c0,3.1-2.5,5.6-5.6,5.6H6.6C3.5,101,1,98.5,1,95.4
					V6.6C1,3.5,3.5,1,6.6,1z"/>
			</g>
		</g>
	</g>
	<g>
		<path fill="#FCC119" d="M74.3,20.9c0.4,0.1,0.7,0.3,1.1,0.3c3,0.8,5.4,3.5,5.6,6.5c0.3,3.6-1.3,6.6-4.3,8.1
			c-2.9,1.4-6.5,1-8.7-1.3c-3.3-3.6-8.4-3.5-11.7,0c-2.9,3.1-7.7,2.8-10.9-0.2c-2.1-2-4.5-2.9-7.3-2.2c-4.6,1.1-8.7,7.4-4.4,12.8
			c1.2,1.6,2.5,3.1,2.8,5.2c0.3,2.6-0.5,4.9-2.4,6.9C30,61.4,32,68.5,37.8,70.1c3,0.9,5.5-0.1,7.7-2.2c1.6-1.5,3.5-2.3,5.8-2.2
			c3.9,0.2,6.8,2.9,7.4,6.9c0.5,3.4-1.7,7-5.2,8.2c-0.5,0.2-1,0.4-1.4,0.5c-0.7,0-1.4,0-2.1,0c-2.1-0.5-3.8-1.7-5.5-3.2
			c-2.6-2.3-6.6-2.3-9.3,0c-1.7,1.5-3.4,2.7-5.5,3.2c-0.7,0-1.4,0-2.1,0c-0.3-0.1-0.6-0.2-0.9-0.3c-2.5-0.8-4.3-2.4-5.2-4.9
			c-0.2-0.5-0.4-1-0.6-1.5c0-0.7,0-1.4,0-2.1c0.5-2.2,1.8-3.9,3.2-5.6c2.3-2.6,2.2-6.6,0-9.2c-1.5-1.7-2.7-3.4-3.2-5.5
			c0-0.7,0-1.4,0-2.1c0.6-2.1,1.8-3.8,3.2-5.5c2.3-2.6,2.3-6.6-0.1-9.3c-1.5-1.6-2.7-3.3-3.2-5.5c0-0.7,0-1.4,0-2.1
			c0.1-0.3,0.2-0.6,0.3-0.9c0.8-2.5,2.3-4.3,4.9-5.3c0.5-0.2,1-0.4,1.5-0.5c0.7,0,1.4,0,2.1,0c2.1,0.5,3.8,1.7,5.4,3.1
			c2.6,2.3,6.4,2.3,9.2,0.1c1.7-1.4,3.5-2.7,5.7-3.2c0.7,0,1.4,0,2.1,0c2.1,0.6,3.7,1.8,5.4,3.2c2.6,2.2,6.4,2.2,9.1,0
			c1.7-1.3,3.4-2.6,5.5-3.2C72.9,20.9,73.6,20.9,74.3,20.9z"/>
		<path fill="#FCC119" d="M70.6,73.4c0-1.6,1.2-2.7,2.7-2.6c1.4,0,2.6,1.2,2.6,2.6c0,1.5-1.2,2.7-2.7,2.7
			C71.8,76.2,70.6,75,70.6,73.4z"/>
		<path fill="#FCC119" d="M70.6,51.6c0-1.6,1.1-2.6,2.7-2.6c1.5,0,2.6,1.2,2.6,2.6c0,1.5-1.3,2.7-2.7,2.7S70.6,53.1,70.6,51.6z"/>
		<path fill="#FCC119" d="M53.7,51.8c0,1.5-1.2,2.7-2.7,2.7s-2.7-1.3-2.7-2.8c0.1-1.4,1.2-2.6,2.7-2.6
			C52.6,49.1,53.7,50.3,53.7,51.8z"/>
	</g>
</g>
</svg>
