<?xml version="1.0" encoding="utf-8"?>
<!-- Generator: Adobe Illustrator 22.1.0, SVG Export Plug-In . SVG Version: 6.00 Build 0)  -->
<svg version="1.1" id="Layer_1" xmlns="http://www.w3.org/2000/svg" xmlns:xlink="http://www.w3.org/1999/xlink" x="0px" y="0px"
	 viewBox="0 0 102 102" enable-background="new 0 0 102 102" xml:space="preserve">
<g>
	<g>
		<g>
			<g>
				<path id="path-0" fill="#253137" d="M6.6,1h88.9c3.1,0,5.6,2.5,5.6,5.6v88.9c0,3.1-2.5,5.6-5.6,5.6H6.6C3.5,101,1,98.5,1,95.4
					V6.6C1,3.5,3.5,1,6.6,1z"/>
			</g>
		</g>
	</g>
	<g>
		<path fill="#FFFFFF" d="M57.5,67.7l-12.6,5.5v-0.5c-2.4,0.6-5.1,1-7.7,1.1C25.4,73.6,16,67.4,15.9,60v-2.7
			c3.9,5.6,11.8,9.4,21.3,9.3c3.2,0.1,6.5-0.4,9.3-1.1l1.1-2.7c-3.3,1-6.9,1.7-10.4,1.6c-11.8,0-21.2-6.2-21.3-13.7v-2.2
			c3.9,5.2,11.8,9,21.3,8.7c4.3,0.3,8.5-0.6,12-2.2l0.5-2.7c-3.5,1.8-7.9,2.9-12.6,2.7c-11.8,0.1-21.2-6-21.3-13.7v-2.2
			c3.9,5.3,11.8,9.1,21.3,9.3c5.4-0.2,10.6-1.6,14.8-3.8l0.5-3.3c-3.8,2.8-9.4,4.7-15.3,4.9C25.4,46.1,16,39.9,15.9,32.2
			c0.1-7.4,9.5-13.6,21.3-13.7c7.1,0.1,13.6,2.6,17.5,6.6l0.4,0.6l2.8,0l-0.4-0.6c-3.9-5.3-11.6-8.7-20.2-8.7
			c-13.1,0-23.5,7.2-23.5,15.9v0.5v27.9c0.5,8.4,10.6,15.3,23.5,15.3C45.8,75.9,53.4,72.6,57.5,67.7z"/>
		<path fill="#FABF2C" d="M52.4,86.9l4.4-18.8l-12.7,5.5l7.7-32.6H36.9l3.9-16h47.5l-3.9,16H68.9L65.6,50l17.1-7.2L52.4,86.9z
			 M60.1,64.3l-2.2,11l18.2-27.6l-14.9,6.6l6.6-15.5h14.9l2.8-11.6h-43l-2.8,11.6h14.9l-7.2,30.9L60.1,64.3z"/>
	</g>
</g>
</svg>
