<?xml version="1.0" encoding="utf-8"?>
<!-- Generator: Adobe Illustrator 22.1.0, SVG Export Plug-In . SVG Version: 6.00 Build 0)  -->
<svg version="1.1" id="Layer_1" xmlns="http://www.w3.org/2000/svg" xmlns:xlink="http://www.w3.org/1999/xlink" x="0px" y="0px"
	 viewBox="0 0 102 102" enable-background="new 0 0 102 102" xml:space="preserve">
<g>
	<g>
		<path id="path-0_1_" fill="#F2F2F2" d="M6.8,1.2h88.9c3.1,0,5.5,2.5,5.5,5.5v89c0,3.1-2.4,5.5-5.5,5.5H6.8
			c-3.2,0.1-5.6-2.5-5.6-5.4V6.7C1.2,3.7,3.7,1.2,6.8,1.2z"/>
	</g>
</g>
<g>
	<path fill="#62B253" d="M77.5,63.2c0,1.9-1.5,3.5-3.5,3.5H19.5c-1.9,0-3.5-1.5-3.5-3.5v-29c0-1.9,1.5-3.5,3.5-3.5h54.6
		c1.9,0,3.5,1.5,3.5,3.5L77.5,63.2L77.5,63.2z"/>
	<path fill="#FFFFFF" d="M29.2,37.2c0,0.3-0.2,0.5-0.5,0.5h-1.4c-0.3,0-0.5-0.2-0.5-0.5l0,0c0-0.3,0.2-0.5,0.5-0.5h1.4
		C28.9,36.7,29.2,36.9,29.2,37.2L29.2,37.2z"/>
	<path fill="#FFFFFF" d="M67.7,37.2c0,0.3-0.2,0.5-0.5,0.5h-1.4c-0.3,0-0.5-0.2-0.5-0.5l0,0c0-0.3,0.2-0.5,0.5-0.5h1.4
		C67.5,36.7,67.7,36.9,67.7,37.2L67.7,37.2z"/>
	<path fill="#FFFFFF" d="M18.6,38.6v-1.2c0-1.9,1.4-3.5,3.3-3.5h50.5c1.9,0,3.4,1.5,3.4,3.5v1.2h0.3h0.1v-3.3c0-1.9-1.6-3.5-3.5-3.5
		H21c-1.9,0-3.5,1.5-3.5,3.5v3.3H18.6L18.6,38.6z"/>
	<path fill="#5F5F60" d="M90.2,21.4h-3.7v-4.7c0-1.3-1.4-2.3-3-2.3c-1.7,0-3,1-3,2.3v4.7H15.1c-1.6,0-2.8,1.3-2.8,2.8
		s1.3,2.8,2.8,2.8h12v9.6c0,0.4,0.3,0.6,0.6,0.6c0.4,0,0.6-0.3,0.6-0.6V27h37.5v9.6c0,0.4,0.3,0.6,0.6,0.6c0.4,0,0.6-0.3,0.6-0.6V27
		h13.3v61.1h6.1v-61h3.7h0.1L90.2,21.4C90.3,21.4,90.2,21.4,90.2,21.4z"/>
	<path fill="#FFFFFF" d="M34.4,57.5c-4.2,0-7.2-2.8-7.2-6.8s3-6.7,7.3-6.7c1.3,0,2.4,0.2,3.5,0.8v3.7c-0.8-0.8-1.9-1.2-3.1-1.2
		c-2.1,0-3.6,1.3-3.6,3.4c0,2.1,1.4,3.5,3.7,3.5c1.3,0,2.2-0.4,3-1.3v3.8C36.9,57.2,35.7,57.5,34.4,57.5z"/>
	<path fill="#FFFFFF" d="M46.1,57.5c-4.2,0-7.1-3-7.1-6.8s2.9-6.8,7.1-6.8s7.1,2.9,7.1,6.8C53.2,54.5,50.3,57.5,46.1,57.5z
		 M46.1,47.3c-2.1,0-3.3,1.3-3.3,3.4c0,2,1.3,3.4,3.3,3.4s3.3-1.3,3.3-3.4C49.4,48.7,48.2,47.3,46.1,47.3z"/>
	<path fill="#FFFFFF" d="M54.5,57.5V44.9h3v2c1-1.6,2-2.4,3.4-2.4c1.7,0,2.8,0.8,3.2,2.6c1-1.7,2.2-2.6,3.6-2.6c1.5,0,2.5,0.7,3,2
		c0.4,0.9,0.4,2,0.4,3.3c0,0.1,0,0.3,0,0.4v7.4h-3v-6.2c0-2.5-0.2-3.8-1.7-3.8c-1.6,0-2.2,1.5-2.2,4.5v5.5h-3v-6.2
		c0-2.4-0.2-3.8-1.6-3.8c-1.6,0-2.2,1.5-2.2,4.5v5.5L54.5,57.5L54.5,57.5z"/>
	<circle fill="#FFFFFF" cx="22.7" cy="55.2" r="2.3"/>
</g>
</svg>
