<?xml version="1.0" encoding="utf-8"?>
<!-- Generator: Adobe Illustrator 22.1.0, SVG Export Plug-In . SVG Version: 6.00 Build 0)  -->
<svg version="1.1" id="Layer_1" xmlns="http://www.w3.org/2000/svg" xmlns:xlink="http://www.w3.org/1999/xlink" x="0px" y="0px"
	 viewBox="0 0 102 102" enable-background="new 0 0 102 102" xml:space="preserve">
<g>
	<g>
		<g>
			<path id="path-0_1_" fill="#DA3426" d="M6.6,1h88.9c3.1,0,5.5,2.5,5.5,5.5v89c0,3.1-2.4,5.5-5.5,5.5H6.6C3.4,101.1,1,98.5,1,95.6
				V6.5C1,3.5,3.4,1,6.6,1z"/>
		</g>
	</g>
	<g id="g4247" transform="matrix(0.33013561,0,0,0.33013561,-156.16947,-465.99311)">
		<path id="path4-0-1" fill="#FFFFFF" d="M627.5,1450.1c-64,0-115.9,51.9-115.9,115.9c0,64,51.9,115.9,115.9,115.9
			S743.4,1630,743.4,1566C743.4,1502,691.5,1450.1,627.5,1450.1z M704.3,1642.8c-20.5,20.5-47.8,31.8-76.8,31.8
			c-29,0-56.3-11.3-76.8-31.8c-20.5-20.5-31.8-47.8-31.8-76.8s11.3-56.3,31.8-76.8s47.8-31.8,76.8-31.8c29,0,56.3,11.3,76.8,31.8
			s31.8,47.8,31.8,76.8S724.8,1622.3,704.3,1642.8L704.3,1642.8z"/>
		<path id="path4727-7" fill="#FFFFFF" d="M589.5,1490.7c-0.7,0-1.4,0-2.1,0.1c-1.5,0.1-4.4,0.5-6.4,0.9l-3.6,0.7l-2.1,3
			c-1.2,1.7-2.2,3.2-2.3,3.4c-0.1,0.2,1.7,0.3,4.7,0.1c8-0.6,13.3-0.1,19.9,1.8l2.8,0.8l-2.5,1.1c-4.1,1.8-7.3,2.8-12.1,3.7
			c-4.3,0.8-6,1.5-7,3c-0.2,0.4-0.3,0.8-0.2,1c0.1,0.1,2.1,0,4.4-0.2c7.4-0.8,15.4-1,20-0.5c5.7,0.7,6.9,1.1,4.3,1.5
			c-4.3,0.7-10.2,2.5-13.8,4.3c-10,4.9-16.2,13.6-18,24.9c-0.7,4.2-0.5,13.3,0.2,18.7c1.5,10.6,6,33.3,11.7,59.5
			c1.9,8.4,4.9,22.2,6.7,30.8c1.8,8.5,3.8,17.7,4.4,20.3c0.1,0.5,0.2,0.9,0.3,1.4c5.7,3.6,28.4,10.1,57.6,0
			c-4.6-6.6-13.1-20.2-13.1-21c0-0.1,2,0.6,4.3,1.5c5.9,2.2,11.9,3.8,13.8,3.7c1.4-0.1,1.7-0.4,2.4-1.8c0.8-1.5,0.8-2.5,0.8-11.5
			c0-10.7-0.5-14.8-2.1-16.6c-0.8-0.9-1.1-1-2.5-0.8c-2.6,0.5-9.5,4.3-14.7,8.1c-2.7,2-4.9,3.3-5,3.1c-0.4-1.2-1.5-2-2.9-2
			c-1.2,0-1.5-0.2-2.1-1.6c-1.1-2.7-3.5-11.6-4.2-15.6c-0.9-5.4-0.9-15.9,0.1-15.9c0.1,0,1.1,0.5,2.2,1c3.9,2,13.9,5.7,18.1,6.8
			c9.3,2.4,14.6,2.2,26.8-0.8c13.1-3.3,18.5-6.2,18.5-9.8c0-0.7-0.4-1.5-1-1.9c-0.9-0.8-1.5-0.8-6.1-0.6c-2.8,0.1-7.2,0.5-9.8,0.9
			c-16.6,2.3-21.6,2.4-27.8,0.4c-6.3-2-9.2-3.9-10.6-6.7c-0.5-1-0.9-2.4-0.9-3.1c0-2.2,0.6-2.4,6.9-1.8c13.6,1.2,14,1.2,25.8-2.6
			c16.4-5.3,30.2-11.6,32.4-14.9c2.4-3.5-2.3-6.3-10.5-6.3c-4.2,0-9.1,1.2-22.6,5.3c-5,1.5-9.2,2.7-9.3,2.6s0-1.6,0.3-3.4
			c1.5-9.7-4-28.3-11.9-40.1c-4.6-6.9-10.2-11-18-13.3c-3.2-0.9-3.6-1.2-6.6-4.2C618.4,1499,600.4,1490.9,589.5,1490.7z M647,1530.6
			c2.7,0.1,5.2,1.3,6.7,3.3c0.9,1.3,0.9,1.4,0.2,1c-3.4-1.4-4.7-1.6-8.1-1.4c-2.8,0.1-3.8,0.4-4.8,1.1c-1.1,0.8-1.3,0.8-1.3,0.3
			c0-1.2,2.7-3.5,4.7-4C645.2,1530.7,646.1,1530.6,647,1530.6z M596.9,1533.4c2.2-0.1,4.5,0.6,5.8,1.7l1.1,1l-1.4-0.5
			c-2.4-0.8-6.4-0.2-9.3,1.3c-3.1,1.6-4.2,2.8-5,5l-0.6,1.6l-0.3-1.2c-0.4-1.4,0.3-4,1.5-5.5c1.1-1.4,3.8-2.7,6.6-3.2
			C595.9,1533.4,596.4,1533.4,596.9,1533.4L596.9,1533.4z M650.7,1546.6c1.8,0,4.4,1.6,5.4,3.4c1.6,2.8,0.8,5.9-2.1,8.1
			c-1.1,0.8-3.9,1.3-5,0.9c-2.8-1.2-5-4.6-4.5-7.2C645,1549.2,648.1,1546.6,650.7,1546.6L650.7,1546.6z M653.7,1549.4
			c-0.3,0-0.6,0.1-0.9,0.2c-1.4,0.8-0.8,3,0.8,3c0.4,0,0.9-0.2,1.2-0.5C655.9,1551,655,1549.4,653.7,1549.4L653.7,1549.4z
			 M601.8,1550.1c1.4-0.1,2,0.2,3.5,1.1c1.3,0.8,2.3,1.9,2.9,3.1c1.1,2.2,1.1,3.2,0.3,5.3c-1.6,3.9-5.4,5.8-8.8,4.6
			c-2-0.7-4-2.5-4.8-4.3c-1.8-4.3,1.5-9.4,6.3-9.8C601.4,1550.1,601.6,1550.1,601.8,1550.1L601.8,1550.1z M605,1553
			c-1.8,0-2.6,2.5-1.1,3.4c0.8,0.5,2.3,0.2,2.8-0.5C607.3,1554.8,606.2,1553,605,1553L605,1553z"/>
	</g>
</g>
</svg>
