<?xml version="1.0" encoding="utf-8"?>
<!-- Generator: Adobe Illustrator 22.1.0, SVG Export Plug-In . SVG Version: 6.00 Build 0)  -->
<svg version="1.1" id="Layer_1" xmlns="http://www.w3.org/2000/svg" xmlns:xlink="http://www.w3.org/1999/xlink" x="0px" y="0px"
	 viewBox="0 0 102 102" style="enable-background:new 0 0 102 102;" xml:space="preserve">
<style type="text/css">
	.st0{fill:#F7F7F7;}
	.st1{fill:#DE5833;}
	.st2{clip-path:url(#SVGID_2_);}
	.st3{fill:#D5D7D8;}
	.st4{fill:#FFFFFF;}
	.st5{fill:#2D4F8E;}
	.st6{fill:url(#SVGID_3_);}
	.st7{fill:url(#SVGID_4_);}
	.st8{fill:#FDD20A;}
	.st9{fill:#65BC46;}
	.st10{fill:#43A244;}
	.st11{fill:none;stroke:#DE5833;stroke-width:5;stroke-miterlimit:10;}
</style>
<g>
	<g>
		<g>
			<path id="path-0_1_" class="st0" d="M6.6,1h88.9c3.1,0,5.5,2.5,5.5,5.5v89c0,3.1-2.4,5.5-5.5,5.5H6.6C3.4,101.1,1,98.5,1,95.6
				V6.5C1,3.5,3.4,1,6.6,1z"/>
		</g>
	</g>
	<g>
		<circle class="st1" cx="51" cy="51" r="33.8"/>
		<g>
			<g>
				<g>
					<g>
						<g>
							<g>
								<g>
									<g>
										<g>
											<g>
												<g>
													<g>
														<g>
															<defs>
																<path id="SVGID_1_" d="M84.9,50.9c0,18.7-15.2,33.9-33.9,33.9c-18.7,0-33.9-15.2-33.9-33.9C17.1,32.2,32.3,17,51,17
																	C69.7,17,84.9,32.2,84.9,50.9z"/>
															</defs>
															<clipPath id="SVGID_2_">
																<use xlink:href="#SVGID_1_"  style="overflow:visible;"/>
															</clipPath>
															<g class="st2">
																<path class="st3" d="M64.8,101.3c-1.2-5.5-8.1-17.9-10.7-23.1c-2.6-5.2-5.2-12.6-4-17.4c0.2-0.9-2.3-7.5-1.6-7.9
																	c5.6-3.6,7,0.4,9.2-1.2c1.1-0.8,2.7,0.7,3.1-0.7c1.4-5-2-13.7-5.8-17.5c-1.2-1.2-3.2-2-5.3-2.4
																	c-0.8-1.1-2.2-2.2-4.1-3.2c-2.1-1.1-6.7-2.6-9.1-3c-1.6-0.3-2,0.2-2.7,0.3c0.7,0.1,3.8,1.6,4.4,1.7
																	c-0.6,0.4-2.4,0-3.5,0.5c-0.6,0.3-1,1.2-1,1.7c3.2-0.3,8.3,0,11.3,1.3c-2.4,0.3-6,0.6-7.6,1.4
																	c-4.5,2.4-6.5,7.9-5.3,14.6c1.2,6.7,6.4,30.9,8.1,39c1.7,8.1-3.6,13.3-6.9,14.8l3.6,0.2l-1.2,2.6c4.3,0.5,9-1,9-1
																	c-0.9,2.6-7.4,3.6-7.4,3.6s3.1,0.9,8.1-1c5-1.9,8.1-3.1,8.1-3.1l2.4,6.2l4.5-4.5l1.9,4.8
																	C62.5,108,66,106.8,64.8,101.3z"/>
																<path class="st4" d="M66.3,100.2c-1.2-5.5-8.1-17.9-10.7-23.1c-2.6-5.2-5.2-12.6-4-17.4c0.2-0.9,0.2-4.4,0.9-4.9
																	c5.6-3.6,5.2-0.1,7.4-1.7c1.1-0.8,2.1-1.9,2.5-3.2c1.4-5-2-13.7-5.8-17.5c-1.2-1.2-3.1-2-5.3-2.4
																	c-0.8-1.1-2.2-2.2-4-3.2c-3.6-1.9-8-2.6-12.1-1.9c0.7,0.1,2.1,1.4,2.8,1.5c-0.9,0.6-3.3,0.5-3.3,1.9
																	c3.2-0.3,6.8,0.2,9.8,1.5c-2.4,0.3-4.6,0.9-6.1,1.7c-4.5,2.4-5.7,7.1-4.5,13.8c1.2,6.7,6.4,30.9,8.1,39
																	c1.7,8.1-3.6,13.3-6.9,14.8l3.6,0.2l-1.2,2.6c4.3,0.5,9-1,9-1c-0.9,2.6-7.4,3.6-7.4,3.6s3.1,1,8.1-1
																	c5-1.9,8.1-3.1,8.1-3.1l2.4,6.2l4.5-4.5l1.9,4.8C63.9,106.9,67.5,105.7,66.3,100.2z"/>
																<path class="st5" d="M38.9,45.5c0-1.4,1.1-2.5,2.5-2.5c1.4,0,2.5,1.1,2.5,2.5c0,1.4-1.1,2.5-2.5,2.5
																	C40,48,38.9,46.9,38.9,45.5z"/>
																<path class="st4" d="M41.9,44.7c0-0.4,0.3-0.6,0.6-0.6c0.4,0,0.6,0.3,0.6,0.6c0,0.4-0.3,0.6-0.6,0.6
																	C42.2,45.4,41.9,45.1,41.9,44.7z"/>
																<path class="st5" d="M56,44.1c0-1.2,1-2.1,2.1-2.1c1.2,0,2.1,1,2.1,2.1c0,1.2-1,2.2-2.1,2.2
																	C56.9,46.2,56,45.2,56,44.1z"/>
																<path class="st4" d="M58.5,43.3c0-0.3,0.3-0.6,0.6-0.6c0.3,0,0.6,0.3,0.6,0.6c0,0.3-0.2,0.6-0.6,0.6
																	C58.8,43.9,58.5,43.7,58.5,43.3z"/>
																
																	<linearGradient id="SVGID_3_" gradientUnits="userSpaceOnUse" x1="1824.4657" y1="3128.1265" x2="1830.1227" y2="3128.1265" gradientTransform="matrix(1 0 0 1 -1788 -3089)">
																	<stop  offset="5.600000e-03" style="stop-color:#6176B9"/>
																	<stop  offset="0.691" style="stop-color:#394A9F"/>
																</linearGradient>
																<path class="st6" d="M42.1,38.3c0,0-1.9-0.9-3.7,0.3c-1.8,1.2-1.8,2.3-1.8,2.3s-1-2.2,1.6-3.2
																	C40.9,36.6,42.1,38.3,42.1,38.3z"/>
																
																	<linearGradient id="SVGID_4_" gradientUnits="userSpaceOnUse" x1="1842.2631" y1="3126.4038" x2="1847.4165" y2="3126.4038" gradientTransform="matrix(1 0 0 1 -1788 -3089)">
																	<stop  offset="5.600000e-03" style="stop-color:#6176B9"/>
																	<stop  offset="0.691" style="stop-color:#394A9F"/>
																</linearGradient>
																<path class="st7" d="M59.4,38.1c0,0-1.4-0.8-2.4-0.8c-2.2,0-2.7,1-2.7,1s0.4-2.3,3.1-1.8
																	C58.9,36.8,59.4,38.1,59.4,38.1z"/>
															</g>
														</g>
													</g>
												</g>
											</g>
										</g>
									</g>
								</g>
							</g>
						</g>
					</g>
				</g>
				<path class="st8" d="M49.1,55.2c0.3-1.5,4.2-4.4,6.9-4.5c2.8-0.2,3.6-0.1,5.9-0.7c2.3-0.6,8.3-2,9.9-2.8
					c1.7-0.8,8.7,0.4,3.7,3.1c-2.1,1.2-7.9,3.4-12,4.6c-4.1,1.2-6.6-1.2-8,0.8c-1.1,1.6-0.2,3.8,4.7,4.3c6.6,0.6,13-3,13.7-1.1
					c0.7,1.9-5.7,4.3-9.6,4.4c-3.9,0.1-11.7-2.6-12.9-3.4C50.3,59.1,48.7,57.2,49.1,55.2z"/>
			</g>
			<g>
				<path class="st9" d="M52.1,75.2c0,0-9.3-5-9.5-3c-0.2,2,0,10.2,1.1,10.9c1.1,0.6,8.8-4,8.8-4L52.1,75.2z"/>
				<path class="st9" d="M55.6,74.9c0,0,6.4-4.8,7.8-4.5c1.4,0.3,1.7,10.2,0.5,10.7c-1.2,0.5-8.5-2.5-8.5-2.5L55.6,74.9z"/>
				<path class="st10" d="M49.8,75.7c0,3.3-0.5,4.7,0.9,5c1.4,0.3,4,0,5-0.6c0.9-0.6,0.2-4.8-0.2-5.6C55.2,73.7,49.8,74.3,49.8,75.7
					z"/>
				<path class="st9" d="M50.4,75c0,3.3-0.5,4.7,0.9,5c1.4,0.3,4,0,5-0.6c0.9-0.6,0.2-4.8-0.2-5.6C55.8,73,50.4,73.6,50.4,75z"/>
			</g>
		</g>
		<circle class="st11" cx="51" cy="51" r="38"/>
	</g>
</g>
</svg>
