<?xml version="1.0" encoding="utf-8"?>
<!-- Generator: Adobe Illustrator 22.1.0, SVG Export Plug-In . SVG Version: 6.00 Build 0)  -->
<svg version="1.1" id="Layer_1" xmlns="http://www.w3.org/2000/svg" xmlns:xlink="http://www.w3.org/1999/xlink" x="0px" y="0px"
	 viewBox="0 0 102 102" style="enable-background:new 0 0 102 102;" xml:space="preserve">
<style type="text/css">
	.st0{fill:#F9F9F9;}
	.st1{fill:#EF3C40;}
	.st2{fill:#0A68B3;}
	.st3{fill:#FAAD1C;}
	.st4{fill:#6BB845;}
</style>
<g>
	<g>
		<g>
			<path id="path-0_2_" class="st0" d="M101,95.5c0,3.1-2.5,5.5-5.5,5.5H6.6C3.4,101.1,1,98.6,1,95.6V6.5C1,3.5,3.4,1,6.6,1h88.9
				c3.1,0,5.5,2.5,5.5,5.5"/>
		</g>
	</g>
	<g>
		<g>
			<g>
				<path class="st1" d="M22.4,41.4c-9.6,0-10,7.5-10,9.5c0,0-0.5,8.8,9.7,8.8c8.8,0,9.2-5.5,9.2-5.5h-4c0,0-0.8,3.1-5.1,3
					c-5.6-0.1-5.8-5.5-5.8-5.5H32C31.9,51.6,33,41.4,22.4,41.4z M16.5,48.9c0,0,0.3-4.9,5.8-4.9s5.5,4.9,5.5,4.9H16.5z"/>
			</g>
		</g>
		<g>
			<g>
				<path class="st2" d="M42.7,41.4c-4.8,0-7,2.9-7,2.9v-9.7h-3.9l0.1,20.5c0,0,0,2.4-0.2,4h3.8l0.2-2.4c0,0,1.7,2.9,7,2.9
					c5.1,0,9.2-3.2,9.3-9.1C52.1,44.7,47.6,41.4,42.7,41.4z M41.8,57.1c-6.1,0.1-6-6.5-6-6.5s-0.2-6.3,6-6.4c6.2-0.2,6,6.7,6,6.7
					S47.9,57,41.8,57.1z"/>
			</g>
		</g>
		<g>
			<g>
				<path class="st3" d="M69.9,55c0-2.7,0.1-5,0-6.7c-0.1-1.9,0.1-6.7-8.3-7c0,0-8.1-0.7-8.9,5.2h4.1c0,0,0.3-2.8,4.5-2.7
					c4,0.1,4.7,2,4.6,4.4c0,0-3.4,0-4.5,0c-2,0-9.1,0.2-9.8,4.6c-0.8,5.1,3.8,6.8,7.4,6.8s5.6-1.1,7.2-3.1l0.2,2.4H70
					C70,59,69.9,57.7,69.9,55z M59.7,57.2c0,0-3.9,0-4.1-3.1c-0.2-3.4,6-3.2,6-3.2H66C66,50.9,66.7,57.3,59.7,57.2z"/>
			</g>
		</g>
		<polygon class="st4" points="67.8,42 72.3,42 78.9,55.2 85.5,42 89.6,42 77.6,65.6 73.3,65.6 76.7,59 		"/>
	</g>
</g>
</svg>
