<?xml version="1.0" encoding="utf-8"?>
<!-- Generator: Adobe Illustrator 22.1.0, SVG Export Plug-In . SVG Version: 6.00 Build 0)  -->
<svg version="1.1" id="Layer_1" xmlns="http://www.w3.org/2000/svg" xmlns:xlink="http://www.w3.org/1999/xlink" x="0px" y="0px"
	 viewBox="0 0 102 102" enable-background="new 0 0 102 102" xml:space="preserve">
<g>
	<g>
		<g>
			<path id="path-0" fill="#D45F27" d="M6.6,1h88.9c3.1,0,5.5,2.6,5.5,5.5v89c0,3.1-2.6,5.5-5.5,5.5H6.6C3.4,101.1,1,98.6,1,95.6
				V6.5C1,3.6,3.4,1,6.6,1z"/>
		</g>
	</g>
	<path fill="#FFFFFF" d="M73.9,80.7c-1.7,0-1-0.8-8.7-0.8S30.9,80,26.5,80c-1.6,0-1.9-0.4-1.9-1.3s0.6-1.6,1.9-1.6
		c1.4,0,7.4,0.1,7.4-6.9s0-32.7,0-36.5S33,26.1,28,25.6c-1.9-0.2-1.8-0.9-1.8-1.8c0-0.8,0.3-1.5,1.5-1.5s13.2,0.3,21.2,0.3
		c16.7-0.1,20.7-1.3,23.7-1.3c1.6,0,1.9,1.2,1.9,1.8c0,0.7-0.7,2-0.7,4c0,1.8,0.5,3.8,0.5,5.4c0,1.6-1.4,2.1-2.2,2.1
		c-0.8,0-1.3-0.3-1.3-1.6c-0.2-2.6,1.9-6.4-18.5-6.4c-10.4,0-10.6,1.1-10.6,4.2c0,3.1,0.1,13.3,0.1,14.8s0.5,2,1.8,2s8.2,0,11,0
		s5.8-1.4,6.1-5.2c0.1-2,0.7-2,1.7-2s2,0.8,1.8,2.7s-0.6,3.9-0.6,6.6c0,2.7,0.6,5.4,0.6,7.4s-2.8,2.5-3.4,0.3
		c-0.5-2.1-1.3-5.7-7.9-5.7s-8,0-9.4,0s-2.1,0.7-2.1,3c0,2.3,0,13,0,15.7c0,2.8,0.9,5.6,6.8,5.6s16.6,0.6,21.6-3
		c2.1-1.6,2.8-3.9,3.5-7.6c0.3-1.7,4.3-1.6,4.1,2.2c-0.1,1.8-2,5.7-2,8.2C75.4,77.8,75.9,80.7,73.9,80.7z"/>
</g>
</svg>
