<?xml version="1.0" encoding="utf-8"?>
<!-- Generator: Adobe Illustrator 22.1.0, SVG Export Plug-In . SVG Version: 6.00 Build 0)  -->
<svg version="1.1" id="Layer_1" xmlns="http://www.w3.org/2000/svg" xmlns:xlink="http://www.w3.org/1999/xlink" x="0px" y="0px"
	 viewBox="0 0 102 102" enable-background="new 0 0 102 102" xml:space="preserve">
<g>
	<g>
		<g>
			<path id="path-0_1_" fill="#191716" d="M6.6,1h88.9c3.1,0,5.5,2.5,5.5,5.5v89c0,3.1-2.4,5.5-5.5,5.5H6.6C3.4,101.1,1,98.5,1,95.6
				V6.5C1,3.5,3.4,1,6.6,1z"/>
		</g>
	</g>
	<path fill="#F4F4F5" d="M26.6,81.4c-0.1-0.1-0.2-0.5-0.2-1.3c0-1.4-0.1-1.4,2.7-1.9c2.1-0.4,2.9-0.8,3.8-2c1.8-2.4,2.2-7,2.2-25.9
		c0-17.8-0.3-21.5-2.2-24.3c-0.8-1.2-2.2-1.9-4.6-2.2l-1.8-0.2l-0.1-1.4l-0.1-1.4l0.6-0.1c0.3-0.1,11.3-0.1,24.5-0.1h23.9l0.1,0.7
		c0.1,0.4,0.2,4.3,0.2,8.7l0.1,8l-1.2,0.4c-1.9,0.6-1.8,0.6-2.7-1.6c-2-5.4-4.4-8.5-7.6-10.1c-2.2-1.1-3.2-1.2-9.5-1.2h-5.4
		l-0.1,0.8C49,28,48.7,39,48.7,44.1v5.1h1.6c0.9,0,2.6-0.1,3.9-0.1c1.9-0.1,2.4-0.2,3.2-0.6c1.9-0.9,3.2-2.8,4-6l0.4-1.6l1.4-0.1
		l1.4-0.1v10.4v10.4l-1.4,0h-1.4l-0.4-1.6c-0.8-3.1-2.2-5.3-4-6.1c-0.8-0.4-2.9-0.6-6.8-0.7L48.7,53v3.9c0,4.3,0.2,10,0.5,13.1
		c0.4,4.4,1.5,6.8,3.5,7.6c0.4,0.2,1.6,0.4,2.7,0.6c1.1,0.2,2.1,0.4,2.3,0.5c0.4,0.2,0.4,2.5,0,2.6C57.5,81.5,26.9,81.5,26.6,81.4
		L26.6,81.4z"/>
</g>
</svg>
