<?xml version="1.0" encoding="utf-8"?>
<!-- Generator: Adobe Illustrator 22.1.0, SVG Export Plug-In . SVG Version: 6.00 Build 0)  -->
<svg version="1.1" id="Layer_1" xmlns="http://www.w3.org/2000/svg" xmlns:xlink="http://www.w3.org/1999/xlink" x="0px" y="0px"
	 viewBox="0 0 102 102" style="enable-background:new 0 0 102 102;" xml:space="preserve">
<style type="text/css">
	.st0{fill:#191919;}
	.st1{fill:#2AFC9C;}
	.st2{fill:#9740FA;}
	.st3{fill:#4A1F7C;}
	.st4{fill:#22CDFB;}
	.st5{fill:#FFF39F;}
	.st6{fill:#FB6769;}
</style>
<g>
	<g>
		<g>
			<path id="path-0" class="st0" d="M6.6,1h88.9c3.1,0,5.6,2.5,5.6,5.6v88.9c0,3.1-2.5,5.6-5.6,5.6H6.6C3.5,101,1,98.5,1,95.4V6.6
				C1,3.5,3.5,1,6.6,1z"/>
		</g>
	</g>
	<g>
		<g>
			<g>
				<rect id="rect-1" x="24.6" y="23.2" class="st1" width="6.9" height="55.6"/>
			</g>
		</g>
		<g>
			<g>
				<rect id="rect-2" x="70.4" y="35.7" class="st2" width="6.9" height="43.1"/>
			</g>
		</g>
		<g>
			<g>
				<rect id="rect-3" x="70.4" y="38.5" class="st3" width="6.9" height="6.9"/>
			</g>
		</g>
		<g>
			<g>
				<rect id="rect-4" x="24.6" y="77.4" class="st4" width="52.8" height="6.9"/>
			</g>
		</g>
		<g>
			<g>
				<rect id="rect-5" x="24.6" y="17.7" class="st5" width="34.7" height="6.9"/>
			</g>
		</g>
		<g>
			<g>
				<path id="path-6" class="st6" d="M56.6,17.7h6.9v6.9h6.9v6.9h6.9v6.9H56.6V17.7z"/>
			</g>
		</g>
	</g>
</g>
</svg>
