<?xml version="1.0" encoding="utf-8"?>
<!-- Generator: Adobe Illustrator 22.1.0, SVG Export Plug-In . SVG Version: 6.00 Build 0)  -->
<svg version="1.1" id="Layer_1" xmlns="http://www.w3.org/2000/svg" xmlns:xlink="http://www.w3.org/1999/xlink" x="0px" y="0px"
	 viewBox="0 0 102 102" enable-background="new 0 0 102 102" xml:space="preserve">
<g>
	<g>
		<g>
			<path id="path-0" d="M6.6,1h88.9c3.1,0,5.6,2.5,5.6,5.6v88.9c0,3.1-2.5,5.6-5.6,5.6H6.6C3.5,101,1,98.5,1,95.4V6.6
				C1,3.5,3.5,1,6.6,1z"/>
		</g>
	</g>
	<g>
		<g>
			<g>
				<rect id="rect-1" x="24.6" y="23.2" fill="#2AFC9C" width="6.9" height="55.6"/>
			</g>
		</g>
		<g>
			<g>
				<rect id="rect-2" x="70.4" y="35.7" fill="#9740FA" width="6.9" height="43.1"/>
			</g>
		</g>
		<g>
			<g>
				<rect id="rect-3" x="70.4" y="38.5" fill="#4A1F7C" width="6.9" height="6.9"/>
			</g>
		</g>
		<g>
			<g>
				<rect id="rect-4" x="24.6" y="77.4" fill="#22CDFB" width="52.8" height="6.9"/>
			</g>
		</g>
		<g>
			<g>
				<rect id="rect-5" x="24.6" y="17.7" fill="#FFF39F" width="34.7" height="6.9"/>
			</g>
		</g>
		<g>
			<g>
				<path id="path-6" fill="#FB6769" d="M56.6,17.7h6.9v6.9h6.9v6.9h6.9v6.9H56.6V17.7z"/>
			</g>
		</g>
	</g>
</g>
</svg>
