<?xml version="1.0" encoding="utf-8"?>
<!-- Generator: Adobe Illustrator 22.1.0, SVG Export Plug-In . SVG Version: 6.00 Build 0)  -->
<svg version="1.1" id="Layer_1" xmlns="http://www.w3.org/2000/svg" xmlns:xlink="http://www.w3.org/1999/xlink" x="0px" y="0px"
	 viewBox="0 0 102 102" enable-background="new 0 0 102 102" xml:space="preserve">
<g>
	<g>
		<g>
			<g>
				<path id="path-0" fill="#2C3137" d="M6.6,1h88.9c3.1,0,5.6,2.5,5.6,5.6v88.9c0,3.1-2.5,5.6-5.6,5.6H6.6C3.5,101,1,98.5,1,95.4
					V6.6C1,3.5,3.5,1,6.6,1z"/>
			</g>
		</g>
	</g>
	<g>
		<path fill="#FFFFFF" d="M51,11.8c-22.1,0-40.1,18.1-40.1,40.1c0,17.8,11.5,32.8,27.4,38.1c1.9,0.4,2.8-0.8,2.8-1.9
			c0-1,0-4.2,0-7.5c-11.1,2.4-13.5-4.7-13.5-4.7c-1.8-4.6-4.4-5.8-4.4-5.8c-3.6-2.5,0.3-2.5,0.3-2.5c4,0.3,6.1,4.2,6.1,4.2
			c3.6,6.1,9.4,4.3,11.7,3.3c0.4-2.6,1.4-4.3,2.5-5.4c-8.9-1-18.3-4.4-18.3-19.9c0-4.4,1.5-7.9,4.2-10.8c-0.4-1-1.8-5.1,0.4-10.6
			c0,0,3.3-1.1,11,4.2c3.2-0.8,6.7-1.4,10-1.4c3.5,0,6.8,0.4,10,1.4c7.6-5.1,11-4.2,11-4.2c2.2,5.6,0.8,9.6,0.4,10.6
			c2.6,2.8,4.2,6.4,4.2,10.8c0,15.4-9.4,18.8-18.3,19.7c1.4,1.3,2.8,3.8,2.8,7.4c0,5.4,0,9.7,0,11c0,1.1,0.7,2.4,2.8,1.9
			C79.6,84.5,91,69.5,91,51.7C91.1,29.9,73.1,11.8,51,11.8z M25.9,69.1c-0.1,0.1-0.4,0.3-0.7,0.1c-0.3-0.1-0.4-0.4-0.4-0.6
			c0.1-0.1,0.4-0.3,0.7-0.1C25.9,68.5,26,68.8,25.9,69.1z M27.9,70.7c-0.1,0.1-0.6,0.1-0.8-0.1c-0.3-0.3-0.3-0.7-0.1-0.8
			s0.6-0.1,0.8,0.1C28.1,70.2,28.1,70.6,27.9,70.7z M29.2,73.1c-0.3,0.1-0.7,0-0.8-0.3c-0.3-0.4-0.3-0.8,0-1c0.3-0.1,0.7,0,0.8,0.3
			C29.5,72.4,29.5,72.8,29.2,73.1z M31.6,75.6c-0.3,0.3-0.7,0.1-1-0.1c-0.4-0.3-0.4-0.8-0.3-1c0.3-0.3,0.7-0.1,1,0.1
			C31.7,74.9,31.8,75.4,31.6,75.6z M34.5,76.6c-0.1,0.3-0.6,0.4-1,0.3s-0.7-0.6-0.7-0.8c0.1-0.3,0.6-0.4,1-0.3
			C34.3,75.9,34.6,76.1,34.5,76.6z M37.8,76.8c0,0.3-0.4,0.6-0.8,0.6c-0.4,0-0.8-0.3-0.8-0.6s0.4-0.6,0.8-0.6
			C37.5,76.3,37.8,76.6,37.8,76.8z M41.1,76.7c0,0.3-0.3,0.7-0.7,0.7c-0.4,0.1-0.8-0.1-1-0.4c0-0.3,0.3-0.7,0.7-0.7
			C40.7,76.3,41.1,76.4,41.1,76.7z"/>
	</g>
</g>
</svg>
