<?xml version="1.0" encoding="utf-8"?>
<!-- Generator: Adobe Illustrator 22.1.0, SVG Export Plug-In . SVG Version: 6.00 Build 0)  -->
<svg version="1.1" id="Layer_1" xmlns="http://www.w3.org/2000/svg" xmlns:xlink="http://www.w3.org/1999/xlink" x="0px" y="0px"
	 viewBox="0 0 102 102" style="enable-background:new 0 0 102 102;" xml:space="preserve">
<style type="text/css">
	.st0{fill:#00A63F;}
	.st1{fill:#FFFFFF;}
	.st2{fill:none;stroke:#020202;stroke-width:0.7124;}
	.st3{fill:none;stroke:#020202;stroke-width:0.7124;stroke-linecap:round;}
	.st4{fill:#F58220;}
	.st5{fill:#FDD521;}
	.st6{fill:#020202;}
	.st7{fill:#BED73B;}
</style>
<g>
	<g>
		<path id="path-0" class="st0" d="M6.6,1h88.9c3.1,0,5.5,2.6,5.5,5.5v89c0,3.1-2.5,5.5-5.5,5.5H6.6C3.4,101.1,1,98.5,1,95.6V6.5
			C1,3.4,3.4,1,6.6,1z"/>
	</g>
</g>
<g>
	<path class="st1" d="M37.2,59.2c-4.4,1.5-5.1,3.3-4.9,5.9c0.2,2.7,3.3,3.8,6.3,3.5"/>
	<path class="st2" d="M37.2,59.2c-4.4,1.5-5.1,3.3-4.9,5.9c0.2,2.7,3.3,3.8,6.3,3.5"/>
	<path class="st1" d="M31.1,37.7c9.1-4.2,20.6-5.1,28.5,1c8,6.1,10.7,21.5,10.7,25.2c0,0.9-6.3,1.5-8.1,3.1c-2.2,2,4.1,9.6,3.9,13.2
		c0,0,0.7,5.1-4.1,6.1c-5.4,1.2-9-3.1-13.4,0c-0.7,0.5-2.9,1.9-5.3,3.3L31.1,37.7"/>
	<path class="st3" d="M31.1,37.7c9.1-4.2,20.6-5.1,28.5,1c8,6.1,10.7,21.5,10.7,25.2c0,0.9-6.3,1.5-8.1,3.1c-2.2,2,4.1,9.6,3.9,13.2
		c0,0,0.7,5.1-4.1,6.1c-5.4,1.2-9-3.1-13.4,0c-0.7,0.5-2.9,1.9-5.3,3.3L31.1,37.7z"/>
	<path class="st4" d="M47.7,27.2c0.5,1.1,0.1,2-0.5,3c-0.3,0.2-1.1,0.2-1.3,0.7c-0.1,0.7,0.3,1.1,0.9,1.4c1.5,0.6,3-0.4,3.7-1.5
		c1.9-3.5-1.7-6.6-2.2-10.1C48,18.5,50,16.1,50,14.1c0-0.7-2.4-0.8-3.1,0.4c-1.1,2.5-3.1,5.1-1.7,7.5C45.9,23.7,46.9,25.2,47.7,27.2
		"/>
	<g>
		<path class="st4" d="M54.7,27.2c0.3,1.2,0,2.2-0.4,3.5c-0.6,1.6,1.3,2.2,2.1,1.3c3.6-3.9,1.8-6,0.4-8.1c-1.4-2.1-1.6-2.6-2.5-4.2
			c-0.3-0.6-1.3-2.2,0.4-3.9c0.6-0.6,0.6-2.2-0.2-3c-2.4-1.6-3.2,1.4-4,4.2C49.5,20.6,53.7,23.5,54.7,27.2"/>
		<path class="st4" d="M30.6,30.4c0.8,0.9,0.8,1.9,0.4,3c-0.2,0.4-0.9,1.5-0.9,2c0.1,0.7,0.6,0.1,1.3,0.2c1.6,0.1,2.8-1.3,3-2.6
			c0.7-3.9-3.8-5.7-5.3-8.9c-1-2,0.2-4.9-0.4-7c-0.2-0.7-2.5,0-2.8,1.4c-0.3,2.8-1.2,5.8,0.7,7.6C27.8,27.6,29.3,28.7,30.6,30.4"/>
		<path class="st4" d="M37.2,26.3c0.4,1.2,0.1,2.2-0.2,3.5c-0.4,1.6,2,1.5,2.8,0.6c1.8-2.5,0.7-5.4-0.5-7.6s-3.2-4.3-3.4-6.7
			c0-0.7,1.4-0.7,2-1c0.8-0.2,2.6-1.1,1.7-1.7c-2.5-1.5-6.3,0.3-7.1,3.1C31.7,20,36,22.7,37.2,26.3"/>
	</g>
	<path class="st3" d="M50.6,69.5c3.9,5.7,6.3,9.3,14.5,10.3"/>
	<path class="st5" d="M33.9,39.9c0.6-0.5,2.2-5.4,2-5.8c-0.1-0.4,2.1,4.9,2.2,5.1c0.1,0.2,4.6,0.4,4.9,0.9c0.3,0.4-2.8,1.3-3.2,1.8
		s4.4,6.2,4.1,6.6c-0.2,0.4-6.4-3.8-6.7-3.6c-0.4,0.2-4.7,4.7-4.9,4.7s1.2-5.6,1.1-6c-0.2-0.4-3.3,0.2-3.6-0.3
		C29.9,42.7,33.9,39.9,33.9,39.9"/>
	<path class="st6" d="M35.7,45.5c-0.8,0.7-1.3,1.7-2,2.6c-0.2,0.2-0.1-0.2-0.1-0.2c0.3-1.1,0.4-2,0.6-3.3c0.1-0.4,0.3-0.7,0.5-1.1
		c0.1-0.3,0.1-0.6-0.1-0.9c-0.3-0.2-0.7-0.1-1.1,0.1c-0.8,0.4-1.7,0.4-2.6,0.1c0.3-0.5,0.7-0.6,1.1-0.8c0.5-0.2,1-0.4,1.4-0.9
		c0.2-0.1,0.4-0.1,0.5-0.3c0.2-0.3,0.6-0.6,0.9-1c0.8-1.3,0.9-3,1.4-4.4c0.7,1.4,1.1,3.3,1.7,4.9c0.1,0.2,0.4-0.1,0.5,0.2
		c0.6-0.4,1.2-0.3,1.9-0.3c0.4,0,0.8-0.1,1.2,0.3c-0.7,0.4-1.4,0.8-2.2,1.1c-0.2,0.2-0.6,0.7-0.3,1.2c0.1,0.3,0.4,0.4,0.6,0.6
		c1.1,1,2,2.2,2.9,3.6c-0.3,0.2-0.5-0.1-0.7-0.3c-1.2-1-2.6-1.4-3.8-2.6C37.2,43.2,36.6,44.8,35.7,45.5 M35.7,47.1
		c0.4-0.6,1-1.4,1.6-1.3c1.7,0.2,3.1,1.5,4.7,2.6c0.9,0.6,1.6,1.4,2.7,1.2c0.2,0,0.4-0.4,0.6-0.7c0.1-0.2-0.1-0.6-0.2-0.6
		c-0.8-0.7-1-1.7-1.6-2.6c-0.9-1.1-1.6-2.2-2.5-3.3c1-0.8,2.2-1,3.3-1.5c0.2-0.1,0.4-0.6,0.3-0.9c-0.1-0.2-0.2-0.4-0.3-0.4
		c-0.9-0.1-1.6-0.3-2.5-0.6c-1-0.2-2,0.1-3-0.4c-0.4-0.2-0.4-0.9-0.6-1.3c-0.4-1.7-1-3.4-1.7-4.9c-0.1-0.2-0.5-0.4-0.8-0.2
		c-0.2,0.2-0.4,0.7-0.4,1.2c0.4,1.7-0.5,3.5-0.9,5c-0.1,0.2-0.4,0.4-0.5,0.6c0,0.1,0,0.2,0,0.3c-0.8,0.7-1.6,1.2-2.6,1.7
		c-0.8,0.5-1.5,1.3-2.4,1.9c-0.4,0.3-0.5,1.2-0.1,1.3c1.4,0.4,2.8,0.3,4.1,0.2c0.1,1.6-0.4,3.3-0.9,4.8c-0.1,0.3-0.3,0.6-0.4,0.8
		c-0.2,0.6,0.2,1.2,0.5,1C33.6,50,34.6,48.7,35.7,47.1z"/>
	<path class="st2" d="M43.4,53.9c-7.6,0.3-9.9,2.7-11.1,4.3c-1.2,1.6-1.1,4.9,0.3,5.1"/>
	<path class="st7" d="M51,59.2c3.8,0,7-2.5,7-5.6S54.9,48,51,48s-7,2.5-7,5.6C44.1,56.6,47.2,59.2,51,59.2"/>
	<path class="st2" d="M51,59.2c3.8,0,7-2.5,7-5.6S54.9,48,51,48s-7,2.5-7,5.6C44.1,56.6,47.2,59.2,51,59.2z"/>
	<path class="st7" d="M68.8,57.9c4.3,0,7.7-1.7,7.7-4c0-2.2-3.5-4-7.7-4s-7.7,1.5-7.7,4S64.6,57.9,68.8,57.9"/>
	<path class="st2" d="M68.8,57.9c4.3,0,7.7-1.7,7.7-4c0-2.2-3.5-4-7.7-4s-7.7,1.5-7.7,4S64.6,57.9,68.8,57.9z"/>
	<path class="st7" d="M57.9,53.6c0,0,3.3-1,3.2,0.3"/>
	<path class="st2" d="M57.9,53.6c0,0,3.3-1,3.2,0.3"/>
</g>
</svg>
