<?xml version="1.0" encoding="utf-8"?>
<!-- Generator: Adobe Illustrator 22.1.0, SVG Export Plug-In . SVG Version: 6.00 Build 0)  -->
<svg version="1.1" id="Layer_1" xmlns="http://www.w3.org/2000/svg" xmlns:xlink="http://www.w3.org/1999/xlink" x="0px" y="0px"
	 viewBox="0 0 102 102" enable-background="new 0 0 102 102" xml:space="preserve">
<g>
	<g>
		<g>
			<g>
				<path id="path-0" d="M6.6,1h88.9c3.1,0,5.6,2.5,5.6,5.6v88.9c0,3.1-2.5,5.6-5.6,5.6H6.6C3.5,101,1,98.5,1,95.4V6.6
					C1,3.5,3.5,1,6.6,1z"/>
			</g>
		</g>
	</g>
	<g>
		<g>
			
				<linearGradient id="SVGID_1_" gradientUnits="userSpaceOnUse" x1="51.7491" y1="685.3509" x2="7.6683" y2="729.4318" gradientTransform="matrix(1 0 0 1 0 -664)">
				<stop  offset="0" style="stop-color:#00A0FF"/>
				<stop  offset="6.574450e-03" style="stop-color:#00A1FF"/>
				<stop  offset="0.2601" style="stop-color:#00BEFF"/>
				<stop  offset="0.5122" style="stop-color:#00D2FF"/>
				<stop  offset="0.7604" style="stop-color:#00DFFF"/>
				<stop  offset="1" style="stop-color:#00E3FF"/>
			</linearGradient>
			<path fill="url(#SVGID_1_)" d="M21.9,18.3c-0.8,0.8-1.2,2.1-1.2,3.7v58c0,1.6,0.5,2.9,1.2,3.7l0.2,0.2l32.5-32.5V51v-0.4
				L22.1,18.1L21.9,18.3z"/>
			
				<linearGradient id="SVGID_2_" gradientUnits="userSpaceOnUse" x1="83.3509" y1="715" x2="19.795" y2="715" gradientTransform="matrix(1 0 0 1 0 -664)">
				<stop  offset="0" style="stop-color:#FFE000"/>
				<stop  offset="0.4087" style="stop-color:#FFBD00"/>
				<stop  offset="0.7754" style="stop-color:#FFA500"/>
				<stop  offset="1" style="stop-color:#FF9C00"/>
			</linearGradient>
			<path fill="url(#SVGID_2_)" d="M65.5,62.2L54.6,51.4V51v-0.4l10.8-10.8l0.2,0.1l12.9,7.3c3.7,2.1,3.7,5.5,0,7.6l-12.9,7.3
				L65.5,62.2z"/>
			
				<linearGradient id="SVGID_3_" gradientUnits="userSpaceOnUse" x1="59.6817" y1="721.0183" x2="-9.552927e-02" y2="780.7955" gradientTransform="matrix(1 0 0 1 0 -664)">
				<stop  offset="0" style="stop-color:#FF3A44"/>
				<stop  offset="1" style="stop-color:#C31162"/>
			</linearGradient>
			<path fill="url(#SVGID_3_)" d="M65.7,62.1L54.6,51L21.9,83.7c1.2,1.3,3.2,1.4,5.5,0.2L65.7,62.1"/>
			
				<linearGradient id="SVGID_4_" gradientUnits="userSpaceOnUse" x1="13.6131" y1="662.9631" x2="40.3061" y2="689.6561" gradientTransform="matrix(1 0 0 1 0 -664)">
				<stop  offset="0" style="stop-color:#32A071"/>
				<stop  offset="6.850000e-02" style="stop-color:#2DA771"/>
				<stop  offset="0.4762" style="stop-color:#15CF74"/>
				<stop  offset="0.8009" style="stop-color:#06E775"/>
				<stop  offset="1" style="stop-color:#00F076"/>
			</linearGradient>
			<path fill="url(#SVGID_4_)" d="M65.7,39.9L27.3,18.1c-2.3-1.3-4.2-1.1-5.5,0.2L54.6,51L65.7,39.9z"/>
			<g>
				<path opacity="0.2" enable-background="new    " d="M65.5,61.9L27.3,83.5c-2.1,1.2-4,1.1-5.3,0l0,0l-0.2,0.2l0,0l0.2,0.2l0,0
					c1.2,1.1,3.1,1.2,5.3,0l38.4-21.8L65.5,61.9z"/>
				<path opacity="0.12" enable-background="new    " d="M21.9,83.4c-0.8-0.8-1.2-2.1-1.2-3.7V80c0,1.6,0.5,2.9,1.2,3.7l0.2-0.2
					L21.9,83.4z"/>
			</g>
			<path opacity="0.12" enable-background="new    " d="M78.6,54.4l-13.1,7.4l0.2,0.2l12.9-7.3c1.8-1,2.8-2.4,2.8-3.8l0,0
				C81.2,52.2,80.2,53.5,78.6,54.4z"/>
			<path opacity="0.25" fill="#FFFFFF" enable-background="new    " d="M27.3,18.5l51.2,29.1c1.7,0.9,2.6,2.2,2.8,3.4l0,0
				c0-1.4-0.9-2.7-2.8-3.8L27.3,18.1c-3.7-2.1-6.7-0.4-6.7,3.9v0.4C20.7,18.1,23.7,16.4,27.3,18.5z"/>
		</g>
	</g>
</g>
</svg>
