<?xml version="1.0" encoding="utf-8"?>
<!-- Generator: Adobe Illustrator 22.1.0, SVG Export Plug-In . SVG Version: 6.00 Build 0)  -->
<svg version="1.1" id="Layer_1" xmlns="http://www.w3.org/2000/svg" xmlns:xlink="http://www.w3.org/1999/xlink" x="0px" y="0px"
	 viewBox="0 0 102 102" enable-background="new 0 0 102 102" xml:space="preserve">
<g>
	<g>
		<g>
			<g>
				<path id="path-0_1_" fill="#0EA25E" d="M6.6,1h88.9c3.1,0,5.6,2.5,5.6,5.6v88.9c0,3.1-2.5,5.6-5.6,5.6H6.6
					C3.5,101,1,98.5,1,95.4V6.6C1,3.5,3.5,1,6.6,1z"/>
			</g>
		</g>
		<defs>
			<filter id="Adobe_OpacityMaskFilter" filterUnits="userSpaceOnUse" x="1" y="1" width="100" height="100">
				<feColorMatrix  type="matrix" values="1 0 0 0 0  0 1 0 0 0  0 0 1 0 0  0 0 0 1 0"/>
			</filter>
		</defs>
		<mask maskUnits="userSpaceOnUse" x="1" y="1" width="100" height="100" id="mask-1_1_">
			<rect x="1" y="1" filter="url(#Adobe_OpacityMaskFilter)" width="100" height="100"/>
			<g>
				<path id="path-0_2_" fill="#FFFFFF" d="M6.6,1h88.9c3.1,0,5.6,2.5,5.6,5.6v88.9c0,3.1-2.5,5.6-5.6,5.6H6.6
					C3.5,101,1,98.5,1,95.4V6.6C1,3.5,3.5,1,6.6,1z"/>
			</g>
		</mask>
		<g mask="url(#mask-1_1_)">
			<g>
				<g>
					<path id="path-2" fill="#3A8AF8" d="M52.4,59.3L91.3,101H12.1L52.4,59.3z"/>
				</g>
			</g>
			<g>
				<g>
					<path id="path-3" fill="#D3D3D3" d="M71.8,42.7l6.9,12.5v25l-25-22.2L71.8,42.7z"/>
				</g>
			</g>
			<g>
				<g>
					<path id="path-4" fill="#B5B5B5" d="M101,98.2V20.4l-20.8,4.2l-1.4,56.9l18.1,16.7H101z"/>
				</g>
			</g>
			<g>
				<g>
					<path id="path-5" fill="#F1F1F1" d="M85.7,101H101v-2.8L56.6,53.8l-8.3,9.7L85.7,101z"/>
				</g>
			</g>
			<g>
				<g>
					<path id="path-6" fill="#FFDF46" d="M1,98.2v2.8h15.3l69.4-69.4l-15.3-2.8L1,98.2z"/>
				</g>
			</g>
			<g>
				<g>
					<g>
						
							<linearGradient id="path-7_1_" gradientUnits="userSpaceOnUse" x1="-1159.3507" y1="1279.7963" x2="-1159.3507" y2="1278.4073" gradientTransform="matrix(32 0 0 -54 37178.0039 69110)">
							<stop  offset="1" style="stop-color:#DF473C"/>
							<stop  offset="1" style="stop-color:#DD4E40"/>
						</linearGradient>
						<path id="path-7" fill="url(#path-7_1_)" d="M63.9,7.3c-9,8.4-10.6,21.7,0,33C77.4,54.5,76,76,78.7,76s1.4-22.9,14.8-35.7
							c10.9-10.5,9-24.7,0-33C84.4-1.1,73-1.1,63.9,7.3z"/>
					</g>
				</g>
				<g>
					<g>
						<path id="path-9" fill="#802D27" d="M71.8,24.6c0-3.8,3.1-6.9,6.9-6.9c3.8,0,7,3.1,7,6.9s-3.1,6.9-7,6.9
							C74.9,31.6,71.8,28.4,71.8,24.6z"/>
					</g>
				</g>
			</g>
		</g>
	</g>
	<path fill="#FFFFFF" d="M42.4,27.9c0-1.1-0.1-2.3-0.3-3.4H26.5v6.4h8.9c-0.4,2-1.6,3.8-3.3,5v0c-4.6,3-10.8,1.6-13.8-3
		c-0.4-0.7-0.8-1.4-1.1-2.2l0,0v0c-0.7-2-0.7-4.2,0-6.3v0c1.3-4,5-6.8,9.2-6.8v0c2.3,0,4.6,0.9,6.3,2.5l4.7-4.7
		c-3-2.8-7-4.3-11.1-4.3c-6.2,0-11.9,3.5-14.8,9.1c-2.4,4.7-2.4,10.2,0,14.9c2.8,5.6,8.5,9.1,14.8,9.1c4,0.1,7.9-1.3,10.9-4l0,0h0
		C40.6,37.1,42.4,32.9,42.4,27.9L42.4,27.9z"/>
</g>
</svg>
