<?xml version="1.0" encoding="utf-8"?>
<!-- Generator: Adobe Illustrator 22.1.0, SVG Export Plug-In . SVG Version: 6.00 Build 0)  -->
<svg version="1.1" id="Layer_1" xmlns="http://www.w3.org/2000/svg" xmlns:xlink="http://www.w3.org/1999/xlink" x="0px" y="0px"
	 viewBox="0 0 102 102" enable-background="new 0 0 102 102" xml:space="preserve">
<title>google</title>
<path id="path-0" fill="#FFFFFF" d="M5,1h92c2.2,0,4,1.8,4,4v92c0,2.2-1.8,4-4,4H5c-2.2,0-4-1.8-4-4V5C1,2.8,2.8,1,5,1z"/>
<path id="Shape" fill="#4285F4" d="M77.1,51.6c0-1.8-0.2-3.7-0.5-5.5H51.5v10.3h14.4c-0.6,3.3-2.5,6.2-5.3,8v6.7h8.6
	C74.2,66.5,77.2,59.7,77.1,51.6L77.1,51.6z"/>
<path id="Shape-2" fill="#34A853" d="M51.5,77.7c6.5,0.2,12.8-2.1,17.7-6.5l-8.6-6.7c-7.5,4.8-17.5,2.7-22.3-4.8
	c-0.7-1.1-1.3-2.3-1.7-3.6h-8.9V63C32.2,72,41.5,77.7,51.5,77.7z"/>
<path id="Shape-3" fill="#FBBC05" d="M36.6,56.1c-1.1-3.3-1.1-6.9,0-10.1v-7h-8.9c-3.8,7.5-3.8,16.5,0,24L36.6,56.1L36.6,56.1z"/>
<path id="Shape-4" fill="#EA4335" d="M51.5,34.9c3.8-0.1,7.5,1.4,10.2,4l7.6-7.6c-4.8-4.5-11.2-7-17.8-6.9
	C41.5,24.3,32.2,30,27.7,39l8.9,6.9C38.7,39.4,44.7,35,51.5,34.9L51.5,34.9z"/>
</svg>
