<?xml version="1.0" encoding="utf-8"?>
<!-- Generator: Adobe Illustrator 22.1.0, SVG Export Plug-In . SVG Version: 6.00 Build 0)  -->
<svg version="1.1" id="Layer_1" xmlns="http://www.w3.org/2000/svg" xmlns:xlink="http://www.w3.org/1999/xlink" x="0px" y="0px"
	 viewBox="0 0 102 102" enable-background="new 0 0 102 102" xml:space="preserve">
<g>
	<g>
		<g>
			<g>
				<g>
					<path id="path-0" fill="#FFFFFF" d="M6.6,1h88.8c3.1,0,5.6,2.5,5.6,5.6v88.8c0,3.1-2.5,5.6-5.6,5.6H6.6
						C3.5,100.9,1,98.4,1,95.3V6.6C1,3.5,3.5,1,6.6,1z"/>
				</g>
			</g>
		</g>
	</g>
	<g>
		<path fill="#F4481E" d="M80.6,47L25.7,15.8c-2.3-1.3-4.4-1.2-5.7,0c-0.9,0.9-1.4,2.3-1.4,4.1v62.3c0,1.8,0.5,3.2,1.4,4.1
			c1.3,1.3,3.4,1.4,5.7,0l54.9-31.2C84.5,52.9,84.5,49.3,80.6,47L80.6,47z"/>
		<path fill="#FFFFFF" d="M80.6,47.4L25.7,16.2c-4-2.2-7.2-0.4-7.2,4.1v-0.4c0-3.1,1.5-4.9,3.7-5.1h0.6c0.9,0.1,1.9,0.4,2.9,0.9
			L80.6,47c2.1,1.1,3,2.7,2.9,4.3C83.4,49.9,82.5,48.5,80.6,47.4L80.6,47.4z"/>
		<path fill="#FFD119" d="M75.2,58.2c0.7-2.3,1-4.7,1-7.2c0-10-5.7-19.2-14.7-23.6c-9-4.4-19.7-3.4-27.7,2.7
			c-8,6.1-11.8,16.2-9.8,26c2,9.8,9.3,17.7,19,20.3L75.2,58.2L75.2,58.2z"/>
		<path fill="#FF8C00" d="M66.3,51.1c0,9.1-7.4,16.5-16.5,16.5c-9.1,0-16.5-7.4-16.5-16.5c0-9.1,7.4-16.5,16.5-16.5
			C58.9,34.6,66.3,42,66.3,51.1L66.3,51.1z"/>
		<path fill="#FFFFFF" d="M49.8,25.2c14.5,0,26.2,11.7,26.3,26.2v-0.3c0-7-2.8-13.7-7.7-18.6c-4.9-4.9-11.6-7.7-18.6-7.7
			c-7,0-13.7,2.8-18.6,7.7c-4.9,4.9-7.7,11.6-7.7,18.6v0.2C23.6,36.8,35.4,25.2,49.8,25.2L49.8,25.2z"/>
		<path fill="#757575" d="M50.6,43.2v10.1c-0.6-0.3-1.3-0.5-1.9-0.5c-2.1,0-3.8,1.7-3.8,3.8c0,2.1,1.7,3.8,3.8,3.8
			c2.1,0,3.9-1.7,4-3.8v-9.3h3.7v-4.1L50.6,43.2L50.6,43.2L50.6,43.2z"/>
		<path fill="#FAFAFA" d="M49.8,42.4v10.1c-0.6-0.3-1.3-0.5-1.9-0.5c-2.1,0-3.8,1.7-3.8,3.8c0,2.1,1.7,3.8,3.8,3.8
			c2.1,0,3.9-1.7,4-3.8v-9.3h3.7v-4.1L49.8,42.4L49.8,42.4L49.8,42.4z"/>
	</g>
</g>
</svg>
