<?xml version="1.0" encoding="utf-8"?>
<!-- Generator: Adobe Illustrator 22.1.0, SVG Export Plug-In . SVG Version: 6.00 Build 0)  -->
<svg version="1.1" id="Layer_1" xmlns="http://www.w3.org/2000/svg" xmlns:xlink="http://www.w3.org/1999/xlink" x="0px" y="0px"
	 viewBox="0 0 102 102" enable-background="new 0 0 102 102" xml:space="preserve">
<g>
	<g>
		<g>
			<g>
				<path id="path-0" fill="#010101" d="M6.6,1h88.9c3.1,0,5.6,2.5,5.6,5.6v88.9c0,3.1-2.5,5.6-5.6,5.6H6.6C3.5,101,1,98.5,1,95.4
					V6.6C1,3.5,3.5,1,6.6,1z"/>
			</g>
		</g>
	</g>
	<g>
		<polygon fill="#FFFFFF" points="59.9,58.6 59.9,54.3 40.2,54.3 40.2,54.5 38.9,54.5 38.9,78.2 40.2,78.2 43.3,78.2 59.9,78.2 
			59.9,73.8 43.3,73.8 43.3,68.7 59.9,68.7 59.9,64.4 43.3,64.4 43.3,58.6 		"/>
		<polygon fill="#FFFFFF" points="29.4,24.5 29.4,34.1 17.3,34.1 17.3,24.5 12.9,24.5 12.9,48.1 17.3,48.1 17.3,38.4 29.4,38.4 
			29.4,48.1 33.7,48.1 33.7,24.5 		"/>
		<polygon fill="#FFFFFF" points="45.3,48.1 52.1,33.7 59.5,48.1 64.3,48.1 54.5,28.8 52,23.8 49.7,28.8 40.5,48.1 		"/>
		<path fill="#FFFFFF" d="M83.5,24.5c-0.9-0.1-1.9-0.3-2.8-0.3c-0.9,0-1.9,0.1-2.8,0.3c-2.8,0.7-5.2,2.1-7,4.3
			c-1.6,2-2.5,4.6-2.5,7.4c0,2.9,1.1,5.6,2.8,7.6c2.3,2.7,5.6,4.3,9.5,4.3l0,0l0,0h8.6v-3.3v-0.9H82h-3.1c-3.6-0.7-6.3-3.9-6.3-7.6
			c0-3.5,2.4-6.4,5.6-7.4h4.4h6.7v-1.2v-3.1C89.4,24.5,83.5,24.5,83.5,24.5z"/>
		<path fill="#FFFFFF" d="M74,77.8c0.9,0.1,1.9,0.3,2.8,0.3c0.9,0,1.9-0.1,2.8-0.3c2.8-0.7,5.2-2.1,7-4.3c1.6-2,2.5-4.6,2.5-7.4
			c0-2.9-1.1-5.6-2.8-7.6c-2.3-2.7-5.6-4.3-9.5-4.3l0,0l0,0h-8.6v3.3v0.9h7.2h3.1c3.6,0.7,6.3,3.9,6.3,7.6c0,3.5-2.4,6.4-5.6,7.4
			h-4.4h-6.7v1.2v3.1H74L74,77.8z"/>
		<polygon fill="#FFFFFF" points="24.4,78.2 30.6,78.2 18.7,66.3 30.6,54.5 24.4,54.5 12.6,66.3 12.6,66.3 12.6,66.4 		"/>
	</g>
</g>
</svg>
