<?xml version="1.0" encoding="utf-8"?>
<!-- Generator: Adobe Illustrator 22.1.0, SVG Export Plug-In . SVG Version: 6.00 Build 0)  -->
<svg version="1.1" id="Layer_1" xmlns="http://www.w3.org/2000/svg" xmlns:xlink="http://www.w3.org/1999/xlink" x="0px" y="0px"
	 viewBox="0 0 102 102" style="enable-background:new 0 0 102 102;" xml:space="preserve">
<style type="text/css">
	.st0{fill:#FF742B;}
	.st1{fill:#FFFFFF;}
</style>
<g>
	<g>
		<g>
			<path id="path-0_1_" class="st0" d="M6.6,1h88.9c3.1,0,5.5,2.6,5.5,5.5v89c0,3.1-2.6,5.5-5.5,5.5H6.6C3.4,101.1,1,98.6,1,95.6
				V6.5C1,3.6,3.4,1,6.6,1z"/>
		</g>
	</g>
	<g>
		<path class="st1" d="M14.1,14.2V88h73.8V14.2H14.1z M84.6,84.8H17.4V17.5h67.1L84.6,84.8L84.6,84.8z"/>
		<polygon class="st1" points="62.9,29.7 62.9,47.3 40.9,47.3 40.9,29.7 35.6,29.7 35.6,73 40.9,73 40.9,52.6 62.9,52.6 62.9,73 
			68.2,73 68.2,29.7 		"/>
	</g>
</g>
</svg>
