<?xml version="1.0" encoding="utf-8"?>
<!-- Generator: Adobe Illustrator 22.1.0, SVG Export Plug-In . SVG Version: 6.00 Build 0)  -->
<svg version="1.1" id="Layer_1" xmlns="http://www.w3.org/2000/svg" xmlns:xlink="http://www.w3.org/1999/xlink" x="0px" y="0px"
	 viewBox="0 0 102 102" enable-background="new 0 0 102 102" xml:space="preserve">
<g>
	<g>
		<g>
			<path id="path-0" fill="#F8972F" d="M6.6,1h88.9c3.1,0,5.5,2.5,5.5,5.5v89c0,3.1-2.4,5.5-5.5,5.5H6.6C3.4,101.1,1,98.5,1,95.6
				V6.5C1,3.5,3.4,1,6.6,1z"/>
		</g>
	</g>
	<path fill="#FFFFFF" d="M23.1,80.2l-2.6,2.6L19,81.1l2.7-2.7L15,71.8c-1-1-1.2-1.2-2.7-0.6c-0.5,0.3-1,0.3-1.4-0.1
		c-0.8-0.8,0.1-1.8,0.2-1.9l8.4-8.4c0.1-0.1,1.1-1,1.9-0.2c0.4,0.4,0.4,0.9,0.1,1.4c-0.7,1.3-0.5,1.4,0.6,2.7l15.4,15.4
		c1,1.1,1.2,1.2,2.7,0.6c0.5-0.3,1-0.2,1.4,0.1c0.8,0.8-0.1,1.8-0.2,1.9L33,91.1c-0.1,0.1-1.1,1-1.9,0.2c-0.5-0.4-0.5-0.9-0.2-1.4
		c0.7-1.3,0.5-1.4-0.6-2.7L23.1,80.2L23.1,80.2z M23,101h-3.5c0,0,0,0,0-0.1c0.7-1.3,0.5-1.4-0.6-2.7L3.7,82.8
		c-1.1-1.1-1.2-1.2-2.7-0.6l0,0v-3.5l7.1-7c0.1-0.1,1.1-1,1.9-0.2c0.4,0.4,0.4,0.9,0.1,1.4c-0.7,1.3-0.5,1.4,0.6,2.7L26.2,91
		c1,1.1,1.2,1.2,2.7,0.6c0.5-0.3,1-0.3,1.4,0.1c0.8,1-0.1,2-0.2,2.1L23,101L23,101z"/>
	<path fill="#FFFFFF" d="M65.6,14.4l7.9-7.9l21.9,22.1l-8,7.9c-0.1,0.1-1.1,1-1.9,0.2c-0.4-0.4-0.4-0.9-0.1-1.4
		c0.7-1.3,0.5-1.4-0.6-2.7L69.4,17c-1-1-1.2-1.2-2.7-0.6c-0.5,0.3-1,0.3-1.4-0.1C64.5,15.5,65.3,14.5,65.6,14.4L65.6,14.4z M78.9,1
		h4.6l3.7,3.7c0.1,0.1,0.7,0.7-0.2,1.6c-0.5,0.5-0.9,0.3-1.5,0.1c-3.2-1.6-6.1-1.5-9.1,0.6l-1.6-1.6L78.9,1L78.9,1z M101,18.1v5
		l-4.3,4.3l-1.6-1.6c2-2.8,2.2-6.1,0.7-9.3c-0.2-0.6-0.5-1.2,0-1.8c0.9-0.9,1.7,0,1.8,0.1L101,18.1L101,18.1z M84.4,15.1
		c0.9-1.5,0.3-3.3-0.5-4.7c-0.3-0.6-0.6-1.2,0-1.8c0.9-0.9,1.8,0.3,2,0.5l6.3,6.3c0.2,0.2,1.4,1.1,0.5,2c-0.6,0.6-1.2,0.3-1.8,0
		c-1.3-0.8-3.2-1.4-4.7-0.5L84.4,15.1L84.4,15.1z"/>
	<path fill="#FFFFFF" d="M57.1,97.3l-3.7,3.7h-1.9c0-0.1,0.1-0.2,0.2-0.3c0.2-0.4-0.3-0.8-0.5-1L42.5,91c-0.2-0.2-0.6-0.7-1-0.5
		c-0.4,0.2-0.8,0.5-1.2,0.1s-0.1-0.9,0.3-1.2l4.3-4.3L57.1,97.3L57.1,97.3z"/>
	<path fill="#FFFFFF" d="M84.8,44.7l4.1-4.1l10.5,10.5c0.6,0.6,0.7,0.7,1.4,0.3v1.8l-3.9,4c-0.1,0.1-0.6,0.6-1.1,0.1
		c-0.2-0.2-0.2-0.5-0.1-0.8c0.4-0.7,0.3-0.8-0.3-1.4L84.8,44.7L84.8,44.7z M96,41.3c0.1,0.1,0.4,0.5-0.1,1c-0.4,0.4-0.9,0.1-1.3-0.2
		c-1-0.7-2.3-1.5-3.9-1.3l-0.9-0.9l2.3-2.3L96,41.3L96,41.3z M81.7,47.8l2.3-2.3l0.9,0.9c-0.2,1.4,0.6,2.9,1.3,3.9
		c0.3,0.4,0.6,0.9,0.2,1.3c-0.5,0.5-0.9,0.1-1,0.1L81.7,47.8L81.7,47.8z"/>
	<path fill="#FFFFFF" d="M31.1,51.4c-0.8,1.8-0.1,3,0.6,3.7L47,70.4c0.7,0.7,1.7,1.4,3.7,0.6l1.6,1.6c-6.7,5.7-14.8,3.6-20.6-2.2
		s-8.1-13.9-2.2-20.6L31.1,51.4L31.1,51.4z M51.9,69.5c0.8-1.8,0.1-3-0.6-3.7L36.1,50.6c-0.7-0.7-1.7-1.4-3.7-0.6l-1.6-1.6
		c6.7-5.7,14.8-3.6,20.6,2.2s8.1,13.9,2.2,20.6L51.9,69.5L51.9,69.5z"/>
	<path fill="#FFFFFF" d="M84.5,37.7c-0.4-0.4-0.9-0.4-1.4-0.1c-1.3,0.7-1.4,0.5-2.7-0.6L65,21.4c-1-1-1.2-1.2-0.6-2.7
		c0.2-0.5,0.2-1-0.1-1.4c-0.8-0.8-1.8,0.1-1.9,0.2l-7.9,7.9l6.3,11.7l-0.1,0.1l-12.1-5.9l-7.4,7.5c-0.3,0.4-1.3,1.3-0.3,2.2
		c0.7,0.7,1.5,0,1.9-0.3c0.5-0.5,1-0.2,1.6-0.1c0.6,0.1,1.2,0.4,1.7,0.7l24.4,12.1l0.8-0.8L59.5,30.5l13.8,13.8c1,1,1.2,1.2,0.6,2.7
		c-0.3,0.5-0.3,1,0.1,1.4c0.8,0.8,1.8-0.1,1.9-0.2l8.4-8.4C84.4,39.6,85.3,38.5,84.5,37.7L84.5,37.7z"/>
	<path fill="#FFFFFF" d="M61.4,53.2l-5.1-5.1l-6.6-3.2L49.6,45l9.9,9.9c3.3,4.2,0.2,4.9,1.4,6.1c0.9,0.9,2-0.3,2.3-0.7l3.4-3.4
		c0.3-0.3,1.5-1.4,0.6-2.3C66.3,53.4,65.6,56.5,61.4,53.2L61.4,53.2z"/>
	<path fill="#FFFFFF" d="M45.5,84.2c2.9-2.9,7-3.3,11.5,0.8c4.1,3.8,3.6,8.9,0.8,11.5l-0.9-0.9c0.8-1.1,0-2.1-0.6-2.9l-7.1-7
		c-0.6-0.6-1.6-1.5-2.9-0.6L45.5,84.2L45.5,84.2z"/>
	<path fill="#FFFFFF" d="M51.6,78l4.4-4.4l12.3,12.5L64,90.5c-0.1,0.1-0.6,0.6-1.1,0.1c-0.2-0.2-0.2-0.5-0.1-0.8
		c0.4-0.7,0.3-0.8-0.3-1.4l-8.7-8.7c-0.6-0.6-0.7-0.7-1.4-0.3c-0.3,0.1-0.6,0.1-0.8-0.1C51,78.6,51.5,78,51.6,78L51.6,78z
		 M56.7,72.8l3.7-3.7l3.4,3.4c0.1,0.1,0.4,0.4-0.1,0.9c-0.3,0.3-0.5,0.2-0.8,0c-1.7-0.9-3.5-0.8-5.1,0.3L56.7,72.8L56.7,72.8z
		 M68.1,84.3c1.1-1.4,1.2-3.5,0.4-5.2c-0.1-0.3-0.3-0.7,0-1c0.5-0.5,0.9,0,1,0.1l3.4,3.4l-3.9,3.9L68.1,84.3L68.1,84.3z M62.2,78.4
		c0.5-0.8,0.2-1.8-0.3-2.7c-0.2-0.4-0.4-0.7,0-1c0.5-0.5,1,0.2,1.1,0.3l3.6,3.6c0.1,0.1,0.8,0.6,0.3,1.1c-0.3,0.3-0.7,0.2-1,0
		c-0.7-0.5-1.7-0.8-2.7-0.3L62.2,78.4L62.2,78.4z"/>
	<path fill="#FFFFFF" d="M66.8,62.7c1.5-1.5,2.8-2.2,3.9-2.8c1.9-0.5,3.6,0.1,4.9,1.4c1.3,1.3,1.9,3.1,1.4,4.9
		c-0.3,1.2-1.1,2.2-2.8,3.9l-0.9-0.9c0.8-1.1,0.2-1.8-0.6-2.8L70.3,64c-0.7-0.7-1.5-1.2-2.7-0.5L66.8,62.7L66.8,62.7z M63.9,69.4
		c-0.6-0.6-0.7-0.7-1.4-0.3c-0.3,0.1-0.6,0.1-0.8-0.1c-0.5-0.5,0-1,0.1-1.1l4.4-4.4L76.6,74c0.6,0.6,0.7,0.7,1.4,0.3
		c0.3-0.1,0.6-0.1,0.8,0.1c0.5,0.5,0,1-0.1,1.1l-4.7,4.7c-0.1,0.1-0.5,0.4-1,0c-0.2-0.2-0.3-0.5-0.1-0.7c0.4-0.7,0.2-0.7-0.4-1.3
		L63.9,69.4L63.9,69.4z"/>
	<path fill="#FFFFFF" d="M77.3,53.6c-0.5,1-0.1,1.6,0.3,2l8.6,8.6c0.4,0.4,0.9,0.8,2,0.3l0.9,0.9c-3.9,3.3-8.4,1.9-11.5-1.2
		c-3.4-3.4-4.5-7.9-1.2-11.5L77.3,53.6L77.3,53.6z M89.1,63.9c0.5-1,0.1-1.6-0.3-2l-8.7-8.6c-0.4-0.4-0.9-0.8-2-0.3l-0.9-0.9
		c3.9-3.3,8.4-1.9,11.5,1.2c3.4,3.4,4.5,7.9,1.2,11.5L89.1,63.9L89.1,63.9z"/>
	<path fill="#FFFFFF" d="M12.9,38.9l3.9-3.9l9.9,9.9c0.6,0.6,0.6,0.7,1.3,0.3c0.3-0.1,0.5-0.1,0.7,0.1c0.4,0.4,0,1-0.1,1l-4.4,4.4
		c-0.1,0.1-0.6,0.5-1,0.1c-0.2-0.2-0.2-0.5-0.1-0.7c0.4-0.7,0.3-0.8-0.3-1.3L12.9,38.9L12.9,38.9z M23.3,35.7
		c0.1,0.1,0.4,0.5-0.1,0.9c-0.4,0.4-0.9,0.1-1.3-0.2c-0.9-0.7-2.1-1.4-3.7-1.2l-0.7-0.8l2.2-2.2L23.3,35.7L23.3,35.7z M10,41.8
		l2.2-2.2l0.9,0.9c-0.2,1.3,0.6,2.7,1.2,3.7c0.3,0.4,0.6,0.8,0.2,1.3c-0.4,0.5-0.9,0.1-0.9,0.1L10,41.8L10,41.8z"/>
	<path fill="#FFFFFF" d="M34.8,36.9c0.6,0.6,0.6,0.7,1.3,0.3c0.3-0.1,0.5-0.1,0.7,0.1c0.4,0.4,0,1-0.1,1l-4.4,4.4
		c-0.1,0.1-0.6,0.5-1,0.1c-0.2-0.2-0.2-0.5-0.1-0.7c0.4-0.7,0.3-0.8-0.3-1.3l-8.2-8.3c-0.6-0.6-0.6-0.7-1.3-0.3
		c-0.3,0.1-0.5,0.1-0.7-0.1c-0.4-0.4,0-1,0.1-1l4.4-4.4c0.1-0.1,0.6-0.5,1-0.1c0.2,0.2,0.2,0.5,0.1,0.7c-0.4,0.7-0.3,0.8,0.3,1.3
		L34.8,36.9L34.8,36.9z M33.1,31l-1.3,1.3l-0.9-0.9l1.3-1.3l-3.6-3.6c-0.6-0.6-0.6-0.7-1.3-0.3c-0.3,0.1-0.5,0.1-0.7-0.1
		c-0.4-0.4,0-1,0.1-1l4.4-4.4c0.1-0.1,0.6-0.5,1-0.1c0.2,0.2,0.2,0.5,0.1,0.7c-0.4,0.7-0.3,0.8,0.3,1.3l8.2,8.2
		c0.6,0.6,0.6,0.7,1.3,0.3c0.3-0.1,0.5-0.1,0.7,0.1c0.4,0.4,0,1-0.1,1l-4.4,4.4c-0.1,0.1-0.6,0.5-1,0.1C37,36.5,37,36.2,37.1,36
		c0.4-0.7,0.3-0.8-0.3-1.3L33.1,31L33.1,31z"/>
	<path fill="#FFFFFF" d="M32.5,19.3l4.2-4.2l11.6,11.6l-4.2,4.2c-0.1,0.1-0.6,0.5-1,0.1c-0.2-0.2-0.2-0.5-0.1-0.7
		c0.4-0.7,0.3-0.8-0.3-1.3l-8.2-8.2c-0.6-0.6-0.6-0.7-1.3-0.3c-0.3,0.1-0.5,0.1-0.7-0.1C32,19.9,32.5,19.4,32.5,19.3L32.5,19.3z
		 M37.4,14.5l3.5-3.5l3.2,3.2c0.1,0.1,0.3,0.4-0.1,0.8c-0.3,0.3-0.5,0.2-0.8,0c-1.6-0.8-3.3-0.8-4.8,0.3L37.4,14.5L37.4,14.5z
		 M48.1,25.2c1.1-1.4,1.2-3.3,0.4-4.9c-0.1-0.3-0.3-0.7,0-0.9c0.5-0.5,0.9,0,0.9,0.1l3.2,3.2l-3.6,3.6L48.1,25.2L48.1,25.2z
		 M42.6,19.7c0.5-0.8,0.2-1.7-0.3-2.5c-0.2-0.3-0.3-0.7,0-1c0.5-0.5,0.9,0.1,1,0.3l3.4,3.4c0.1,0.1,0.7,0.6,0.3,1
		c-0.3,0.3-0.6,0.2-1,0c-0.7-0.4-1.6-0.7-2.4-0.3L42.6,19.7L42.6,19.7z"/>
</g>
</svg>
