<?xml version="1.0" encoding="utf-8"?>
<!-- Generator: Adobe Illustrator 22.1.0, SVG Export Plug-In . SVG Version: 6.00 Build 0)  -->
<svg version="1.1" id="Layer_1" xmlns="http://www.w3.org/2000/svg" xmlns:xlink="http://www.w3.org/1999/xlink" x="0px" y="0px"
	 viewBox="0 0 102 102" enable-background="new 0 0 102 102" xml:space="preserve">
<g>
	<path fill="#086CB6" d="M36.8,51.8v4.4c0,0.5,0.4,1.1,0.4,1.1h-8.9c0,0,0.4-0.6,0.4-1.1V45.1c0-0.5-0.4-1-0.4-1h8.9
		c0,0-0.4,0.5-0.4,1v3.2l2.7-3.2c0.4-0.4,0.1-0.9,0.1-0.9h8.9l-4,4.8l5,8l0.4,0.4H39.4c0,0,0.5-0.5,0.3-0.8L36.8,51.8L36.8,51.8
		L36.8,51.8z"/>
</g>
<path fill="#086CB6" d="M25,44.1c0,0-0.4,0.5-0.4,1v11c0,0.5,0.4,1.1,0.4,1.1h-9.3c0,0,0.4-0.6,0.4-1.1v-11c0-0.5-0.4-1-0.4-1H25
	L25,44.1L25,44.1z"/>
<g>
	<path fill="#086CB6" d="M51.2,44.1h15.2v4c0,0-0.5-0.4-0.9-0.4h-5.7v1.1h4.6c0.6,0,0.9-0.4,0.9-0.4V52c0,0-0.3-0.4-0.9-0.4h-4.6
		v0.9h5.6c0.4,0,0.9-0.4,0.9-0.4V57H51.6h-0.4c0,0,0.4-0.5,0.4-1.1V45.1C51.6,44.6,51.2,44.1,51.2,44.1L51.2,44.1L51.2,44.1z"/>
</g>
<g>
	<g>
		<g>
			<path id="path-0_1_" fill="#0051BA" d="M6.6,1h88.9c3.1,0,5.5,2.6,5.5,5.5v89c0,3.1-2.6,5.5-5.5,5.5H6.6C3.6,101.1,1,98.6,1,95.6
				V6.5C1,3.6,3.6,1,6.6,1z"/>
		</g>
	</g>
	<g>
		<path fill="#086CB6" d="M69.2,43.5h11.1c0,0-0.1,0.5,0.1,0.8l4.8,10.6l0.4,0.4h-8.7c0,0,0.4-0.2,0.1-0.7L76,52.8h-3.4l-0.7,1.8
			C71.7,55,72,55.3,72,55.3h-7.1l0.5-0.6l3.8-10.3C69.3,44,69.2,43.5,69.2,43.5L69.2,43.5L69.2,43.5z M74,48.4l0.8,2.2h-1.6L74,48.4
			L74,48.4L74,48.4z"/>
		<path fill="#FEDE1A" d="M51.1,65.7c12,0,24.2-1.4,35.3-6c3.6-1.5,8.3-4.3,8.3-8.7c0-4.4-4.8-7.2-8.3-8.7c-11.2-4.6-23.3-6-35.3-6
			c-12,0-24.3,1.3-35.4,6c-3.3,1.4-8.5,4.5-8.5,8.7c0,4.1,5.2,7.3,8.5,8.7C26.8,64.4,39.2,65.7,51.1,65.7L51.1,65.7z"/>
		<path fill="#0051BA" d="M63.8,52.5c-0.2-0.2-0.5-0.3-0.8-0.3h-4.2V53h5.5c0.3,0,0.5-0.1,0.8-0.3v4.2h-14c0.2-0.2,0.5-0.5,0.5-0.8
			V45.5c0-0.3-0.2-0.6-0.5-0.8h14v3.8c-0.2-0.2-0.5-0.3-0.8-0.3h-5.5V49H63c0.3,0,0.5-0.1,0.8-0.3L63.8,52.5L63.8,52.5L63.8,52.5z
			 M77.1,54.5H74l-0.6,1.8c0,0.1,0,0.1,0,0.2c0,0.2,0.1,0.3,0.1,0.4h-7.1c0.2-0.2,0.3-0.3,0.4-0.5l3.8-10.2c0.1-0.3,0.2-0.5,0.2-0.8
			c0-0.2-0.1-0.4-0.2-0.6H82c-0.1,0.2-0.2,0.4-0.2,0.6c0,0.3,0.1,0.5,0.2,0.8l4.2,10.2c0.1,0.2,0.2,0.4,0.4,0.5h-8.9
			c0.1-0.2,0.1-0.3,0.1-0.5c0-0.1,0-0.2,0-0.3L77.1,54.5L77.1,54.5z M38.2,52.4v3.7c0,0.3,0.2,0.6,0.5,0.8h-8.4
			c0.2-0.2,0.5-0.5,0.5-0.8V45.5c0-0.3-0.2-0.6-0.5-0.8h8.4c-0.2,0.2-0.5,0.5-0.5,0.8v3.7l2.4-3.7c0.1-0.1,0.1-0.2,0.1-0.4
			c0-0.1-0.1-0.3-0.1-0.4h8.3c-0.4,0.2-0.7,0.5-0.9,0.8l-2.9,4.2l4,6.4c0.2,0.3,0.5,0.6,0.9,0.8h-9.7c0.1-0.1,0.2-0.2,0.2-0.3
			c0-0.2-0.1-0.3-0.2-0.5L38.2,52.4L38.2,52.4z M18.6,44.7h8.6c-0.2,0.2-0.5,0.4-0.5,0.8v10.6c0,0.3,0.2,0.6,0.5,0.8h-8.6
			c0.2-0.2,0.4-0.5,0.4-0.8V45.5C19,45.2,18.8,44.9,18.6,44.7L18.6,44.7z"/>
		<path fill="#FEDE1A" d="M74.8,52h1.4l-0.7-1.9L74.8,52z"/>
	</g>
</g>
</svg>
