<?xml version="1.0" encoding="utf-8"?>
<!-- Generator: Adobe Illustrator 22.1.0, SVG Export Plug-In . SVG Version: 6.00 Build 0)  -->
<svg version="1.1" id="Layer_1" xmlns="http://www.w3.org/2000/svg" xmlns:xlink="http://www.w3.org/1999/xlink" x="0px" y="0px"
	 viewBox="0 0 102 102" enable-background="new 0 0 102 102" xml:space="preserve">
<g>
	<g>
		<g>
			<path id="path-0" fill="#2B2B2B" d="M6.6,1h88.9c3.1,0,5.6,2.5,5.6,5.6v88.9c0,3.1-2.5,5.6-5.6,5.6H6.6C3.5,101,1,98.5,1,95.4
				V6.6C1,3.5,3.5,1,6.6,1z"/>
		</g>
	</g>
	<g>
		<g>
			<g>
				<path id="path-1" fill="#FFFFFF" d="M52.4,48.2c0.8,0,1.5,0.3,2,0.9c0.5,0.6,0.8,1.4,0.8,2.4s-0.3,1.9-0.8,2.5s-1.2,1-2,1l0,0
					c0,0-1.5-0.3-2-1c-0.5-0.6-0.8-1.5-0.8-2.5s0.3-1.8,0.8-2.4S51.6,48.2,52.4,48.2L52.4,48.2z M17.5,44.4c-0.7,0-1.3,0.2-1.6,0.7
					c-0.3,0.5-0.5,1.2-0.5,2.3v8.3c0,1,0.2,1.8,0.5,2.3c0.3,0.5,0.9,0.7,1.6,0.7s1.2-0.2,1.6-0.7c0.3-0.5,0.5-1.2,0.5-2.3v-8.3
					c0-1-0.2-1.8-0.5-2.3C18.7,44.7,18.2,44.4,17.5,44.4L17.5,44.4z M24.7,44.4c-0.7,0-1.2,0.3-1.6,0.8c-0.3,0.5-0.5,1.3-0.5,2.3
					v8.3c0,1,0.2,1.8,0.5,2.3s0.9,0.7,1.6,0.7s1.2-0.2,1.6-0.7c0.3-0.5,0.5-1.3,0.5-2.3V51c0-1.1,0.2-1.8,0.5-2.3s0.9-0.7,1.6-0.7
					s1.1,0.2,1.4,0.7s0.5,1.3,0.5,2.4v4.7c0,1,0.2,1.8,0.5,2.3s0.9,0.7,1.6,0.7s1.2-0.2,1.6-0.7c0.3-0.5,0.5-1.3,0.5-2.3V51
					c0-1.1,0.2-1.8,0.5-2.3s0.9-0.7,1.6-0.7c0.7,0,1.1,0.3,1.5,0.8c0.3,0.5,0.5,1.3,0.5,2.4v4.7c0,1,0.2,1.8,0.5,2.3
					s0.9,0.7,1.6,0.7c0.7,0,1.2-0.2,1.6-0.7c0.3-0.5,0.5-1.3,0.5-2.3V50c0-1.7-0.4-3.1-1.3-4c-0.8-0.9-2-1.4-3.5-1.4
					c-0.9,0-1.6,0.2-2.3,0.5s-1.3,0.8-1.9,1.5c-0.5-0.6-1.1-1.1-1.8-1.5c-0.7-0.3-1.5-0.5-2.4-0.5c-0.7,0-1.3,0.1-1.9,0.3
					c-0.5,0.2-1,0.6-1.5,1c-0.3-0.5-0.6-0.8-0.9-1C25.5,44.5,25.1,44.4,24.7,44.4L24.7,44.4z M84.6,44.3c-0.5,0-1,0.1-1.5,0.4
					c-0.5,0.2-0.9,0.6-1.4,1c-0.3-0.4-0.5-0.8-0.9-1c-0.3-0.2-0.7-0.3-1.1-0.3c-0.7,0-1.2,0.2-1.6,0.7c-0.3,0.5-0.5,1.2-0.5,2.3v8.3
					c0,1,0.2,1.8,0.5,2.3s0.9,0.7,1.6,0.7s1.2-0.2,1.6-0.7c0.3-0.5,0.5-1.3,0.5-2.3v-4.3c0-0.8,0.1-1.3,0.3-1.6
					c0.2-0.3,0.5-0.6,1.1-0.8c0.3-0.1,0.7-0.3,1.3-0.5c1.6-0.6,2.3-1.2,2.3-2.1c0-0.6-0.2-1-0.6-1.4C85.7,44.5,85.2,44.3,84.6,44.3
					L84.6,44.3z M64.2,44.4c-0.7,0-1.2,0.2-1.6,0.7c-0.3,0.5-0.5,1.2-0.5,2.3v5.5c0,2,0.5,3.5,1.6,4.5s2.7,1.6,4.7,1.6
					c2.1,0,3.6-0.5,4.7-1.6c1.1-1,1.6-2.5,1.6-4.5v-5.5c0-1-0.2-1.8-0.5-2.3s-0.9-0.7-1.6-0.7s-1.3,0.2-1.6,0.7
					c-0.3,0.5-0.5,1.2-0.5,2.3v4.7c0,1.1-0.2,1.9-0.5,2.3c-0.3,0.5-0.9,0.7-1.7,0.7c-0.8,0-1.3-0.2-1.7-0.7
					c-0.3-0.5-0.5-1.2-0.5-2.3v-4.7c0-1-0.2-1.8-0.5-2.3C65.4,44.7,64.9,44.4,64.2,44.4L64.2,44.4z M51.9,44.3
					c-1.8,0-3.4,0.7-4.7,2.1c-1.3,1.4-1.9,3.1-1.9,5.2c0,2,0.6,3.7,1.8,5.1c1.2,1.4,2.6,2.1,4.3,2.1c0.8,0,1.5-0.2,2.2-0.5
					c0.6-0.3,1.2-0.8,1.6-1.5c0,0.1,0,0.1,0,0.3c0,0.1,0,0.2,0,0.2c0,1.1-0.3,2-0.9,2.6c-0.6,0.6-1.4,0.9-2.4,0.9
					c-0.8,0-1.7-0.2-2.7-0.6c-1-0.4-1.6-0.6-1.8-0.6c-0.5,0-1,0.2-1.3,0.5s-0.5,0.8-0.5,1.3c0,0.9,0.6,1.6,1.7,2.2
					c1.2,0.6,2.6,0.9,4.5,0.9c1.5,0,2.8-0.3,3.9-0.8c1.1-0.5,1.9-1.3,2.6-2.3c0.4-0.6,0.6-1.3,0.8-2.1c0.2-0.9,0.2-2.1,0.2-3.6v-8.3
					c0-1-0.2-1.8-0.5-2.3s-0.9-0.7-1.6-0.7c-0.3,0-0.7,0.1-1,0.4c-0.3,0.2-0.6,0.6-0.8,1c-0.4-0.5-0.9-0.9-1.5-1.1
					C53.2,44.4,52.6,44.3,51.9,44.3L51.9,44.3z"/>
			</g>
		</g>
		<g>
			<g>
				<path id="path-2" fill="#9BC43A" d="M14.9,40.9c0-0.7,0.2-1.2,0.7-1.7c0.5-0.5,1.1-0.7,1.7-0.7c0.7,0,1.2,0.2,1.7,0.7
					s0.7,1,0.7,1.7s-0.2,1.2-0.7,1.7s-1,0.7-1.7,0.7s-1.3-0.2-1.7-0.7C15.1,42.1,14.9,41.6,14.9,40.9z"/>
			</g>
		</g>
	</g>
</g>
</svg>
