<?xml version="1.0" encoding="utf-8"?>
<!-- Generator: Adobe Illustrator 22.1.0, SVG Export Plug-In . SVG Version: 6.00 Build 0)  -->
<svg version="1.1" id="Layer_1" xmlns="http://www.w3.org/2000/svg" xmlns:xlink="http://www.w3.org/1999/xlink" x="0px" y="0px"
	 viewBox="0 0 102 102" enable-background="new 0 0 102 102" xml:space="preserve">
<g>
	<g>
		<g>
			<path id="path-0_1_" fill="#040607" d="M6.6,1h88.9c3.1,0,5.5,2.5,5.5,5.5v89c0,3.1-2.4,5.5-5.5,5.5H6.6C3.4,101.1,1,98.5,1,95.6
				V6.5C1,3.5,3.4,1,6.6,1z"/>
		</g>
	</g>
	<g>
		<path fill="#FFFFFF" d="M24,43.3c-0.7,0-1.3,0.1-1.6,0.2c-0.4,0.2-0.5,0.4-0.7,0.7v13.4c0.2,0.4,0.5,0.7,0.7,0.9
			c0.3,0.2,0.8,0.3,1.6,0.3v4.5H11v-4.5c0.6,0.1,1.2,0,1.5-0.2c0.5-0.2,0.6-0.4,0.8-0.7V44.2c-0.2-0.2-0.3-0.3-0.4-0.4
			c-0.1-0.1-0.3-0.2-0.5-0.3c-0.2-0.1-0.4-0.1-0.6-0.2c-0.3,0-0.5-0.1-0.9-0.2v-4.6h12.9L24,43.3L24,43.3z"/>
		<path fill="#FFFFFF" d="M38.3,38.8c1,0,1.9,0,2.9,0.1c0.9,0.1,1.8,0.2,2.7,0.5c0.8,0.2,1.6,0.5,2.3,0.9c0.7,0.4,1.4,0.9,2,1.6
			c0.5,0.5,0.8,1.1,1.1,1.7c0.3,0.6,0.5,1.2,0.5,1.8c0.1,0.6,0,1.3-0.2,1.8c-0.2,0.6-0.5,1.2-0.9,1.6c-0.3,0.3-0.5,0.5-0.7,0.6
			c-0.2,0.2-0.3,0.3-0.5,0.5c-0.2,0.1-0.3,0.3-0.5,0.4c-0.2,0.2-0.5,0.4-0.8,0.5c1.1,0.5,2,1.1,2.7,1.9c0.7,0.8,1.2,1.7,1.4,2.8
			c0.1,0.6,0.2,1.3,0.1,1.9c-0.1,0.6-0.2,1.2-0.4,1.8c-0.4,0.9-1,1.6-1.9,2.3c-0.8,0.6-1.8,1.2-2.8,1.4c-1.2,0.2-2.3,0.4-3.3,0.4
			c-1.1,0.1-2.3,0.1-3.3,0.1h-11l0.1-4.5c0.4,0,0.8-0.1,1.3-0.3c0.5-0.2,0.7-0.4,1-0.7V44.6c-0.2-0.2-0.3-0.4-0.4-0.5
			c-0.1-0.2-0.3-0.3-0.5-0.4c-0.2-0.1-0.4-0.2-0.6-0.3c-0.3-0.1-0.5-0.1-0.9-0.2v-4.6L38.3,38.8L38.3,38.8z M41.6,46.4
			c0-0.8-0.1-1.4-0.3-1.7c-0.2-0.4-0.5-0.5-0.7-0.7c-0.3-0.1-0.6-0.2-1-0.1c-0.4,0-0.7,0.1-1.1,0l-0.2,4.9c0.4,0,0.7,0,1.1,0
			s0.7,0,1.1-0.1s0.5-0.4,0.8-0.7C41.5,47.8,41.6,47.3,41.6,46.4z M41.6,56c0-0.9-0.1-1.5-0.3-2c-0.2-0.4-0.5-0.6-0.7-0.8
			c-0.3-0.1-0.6-0.2-1-0.1c-0.4,0.1-0.7,0.1-1.1,0.1l-0.2,5.6c0.4,0,0.7,0,1.1,0s0.7,0,1.1-0.2c0.4-0.2,0.5-0.4,0.8-0.8
			C41.5,57.5,41.6,56.9,41.6,56z"/>
		<path fill="#FFFFFF" d="M75.3,38.8H51.9V48l3.9-0.1l0,0h1.4l0.5-4.3c0.1-0.1,0.3-0.1,0.4-0.2c0.5,0,0.8,0,0.9,0.1
			c0.1,0.1,0.2,0.3,0.2,0.5v14c-0.2,0.2-0.4,0.3-0.5,0.4c-0.2,0.1-0.3,0.2-0.5,0.2c-0.2,0.1-0.4,0.1-0.6,0.2c-0.3,0.1-0.5,0.1-1,0.2
			v4.5h14.3v-4.5c-0.5-0.2-0.9-0.2-1.2-0.3c-0.3-0.1-0.5-0.1-0.6-0.2c-0.2-0.1-0.3-0.1-0.5-0.2c-0.1-0.1-0.3-0.2-0.5-0.4V43.7
			c0-0.2,0.1-0.4,0.3-0.4s0.5-0.1,1-0.1c0.1,0,0.1,0,0.1,0.1l0.5,4.5h1.4l0,0h3.8L75.3,38.8L75.3,38.8z"/>
		<polygon fill="#8BC63F" points="79.1,63.3 90,63.3 91,52.6 80.4,52.6 		"/>
	</g>
</g>
</svg>
