<?xml version="1.0" encoding="utf-8"?>
<!-- Generator: Adobe Illustrator 22.1.0, SVG Export Plug-In . SVG Version: 6.00 Build 0)  -->
<svg version="1.1" id="Layer_1" xmlns="http://www.w3.org/2000/svg" xmlns:xlink="http://www.w3.org/1999/xlink" x="0px" y="0px"
	 viewBox="0 0 102 102" style="enable-background:new 0 0 102 102;" xml:space="preserve">
<style type="text/css">
	.st0{fill:#FFFFFF;}
	.st1{fill:#231F20;}
	.st2{fill:#A54546;}
	.st3{fill:#0071AE;}
</style>
<g>
	<g>
		<path id="path-0_1_" class="st0" d="M6.6,1h88.9c3.1,0,5.5,2.5,5.5,5.5v89c0,3.1-2.4,5.5-5.5,5.5H6.6C3.4,101.1,1,98.5,1,95.6V6.5
			C1,3.5,3.4,1,6.6,1z"/>
	</g>
</g>
<g>
	<g>
		<path class="st1" d="M58.3,69.5v1.7c-3.6-0.1-5.9-0.2-7-0.2l-7.9,0.2v-1.7c2,0,3.2-0.1,3.7-0.3c0.4-0.1,0.7-0.4,0.9-0.6
			c0.2-0.4,0.3-1.2,0.4-2.7c0-0.4,0-3,0.1-7.7V45.7c0-2.5,0-4.9-0.1-7.3c0-1.7-0.2-2.8-0.4-3.1s-0.5-0.5-0.9-0.7
			c-0.4-0.1-1.6-0.2-3.7-0.3v-1.7c3.3,0.1,5.7,0.2,7.4,0.2c1.6,0,4.2-0.1,7.4-0.2v1.7c-2,0-3.3,0.1-3.7,0.3
			c-0.4,0.1-0.7,0.4-0.9,0.6c-0.2,0.4-0.3,1.2-0.4,2.7c0,0.4,0,3-0.1,7.7v12.6c0,2.5,0,4.9,0.1,7.1c0,1.7,0.2,2.8,0.4,3.1
			c0.2,0.3,0.5,0.6,0.9,0.7C55.2,69.4,56.4,69.4,58.3,69.5z"/>
	</g>
	<g>
		<path class="st2" d="M28.3,53.1c0-16.6,5.9-30.9,14.4-36.7C25.2,19.9,12.1,34.5,12.1,52c0,16.2,11.4,30,27,34.7
			C32.7,79.8,28.3,67.3,28.3,53.1z"/>
		<path class="st3" d="M59.2,16.4c8.4,5.7,14.3,20,14.3,36.7c0,14.2-4.3,26.7-10.8,33.6c15.7-4.7,27-18.4,27-34.7
			C89.8,34.5,76.6,19.9,59.2,16.4z"/>
	</g>
</g>
</svg>
