<?xml version="1.0" encoding="utf-8"?>
<!-- Generator: Adobe Illustrator 22.1.0, SVG Export Plug-In . SVG Version: 6.00 Build 0)  -->
<svg version="1.1" id="Layer_1" xmlns="http://www.w3.org/2000/svg" xmlns:xlink="http://www.w3.org/1999/xlink" x="0px" y="0px"
	 viewBox="0 0 102 102" enable-background="new 0 0 102 102" xml:space="preserve">
<g>
	<g>
		<g>
			<defs>
				<rect id="SVGID_1_" x="1" y="1" width="100" height="100"/>
			</defs>
			<clipPath id="SVGID_2_">
				<use xlink:href="#SVGID_1_"  overflow="visible"/>
			</clipPath>
			<g clip-path="url(#SVGID_2_)">
				<g>
					<defs>
						<path id="SVGID_3_" d="M31.7,1c-1,0-2,0-3,0s-2,0-3,0c-2.2,0.1-4.4,0.2-6.6,0.6s-4.2,1-6.2,2.1c-2,1-3.8,2.3-5.3,3.9
							C6,9.1,4.7,10.9,3.7,12.9s-1.7,4-2.1,6.2S1.1,23.5,1,25.7c0,1,0,2,0,3s0,1.9,0,2.9v0.7v37.4v0.7c0,1,0,1.9,0,2.9s0,2,0,3
							c0.1,2.2,0.2,4.4,0.6,6.6s1,4.2,2.1,6.2c1,2,2.3,3.8,3.9,5.3c1.6,1.6,3.4,2.9,5.3,3.9c2,1,4,1.7,6.2,2.1s4.4,0.5,6.6,0.6
							c1,0,2,0,3,0s2,0,3,0h0.6h37.4h0.6c1,0,2,0,3,0s2,0,3,0c2.2-0.1,4.4-0.2,6.6-0.6s4.2-1,6.2-2.1c2-1,3.8-2.3,5.3-3.9
							c1.6-1.6,2.9-3.4,3.9-5.3c1-2,1.7-4,2.1-6.2s0.5-4.4,0.6-6.6c0-1,0-2,0-3s0-1.9,0-2.9V31.6c0-1,0-1.9,0-2.9s0-2,0-3
							c-0.1-2.2-0.2-4.4-0.6-6.6s-1-4.2-2.1-6.2c-1-2-2.3-3.8-3.9-5.3C92.8,6,91,4.7,89.1,3.7c-2-1-4-1.7-6.2-2.1S78.5,1.1,76.3,1
							c-1,0-2,0-3,0s-2,0-3,0C70.3,1,31.7,1,31.7,1z"/>
					</defs>
					<clipPath id="SVGID_4_">
						<use xlink:href="#SVGID_3_"  overflow="visible"/>
					</clipPath>
					
						<linearGradient id="SVGID_5_" gradientUnits="userSpaceOnUse" x1="-2439.9065" y1="2112.9048" x2="-2439.8022" y2="2112.9048" gradientTransform="matrix(0 961.0199 -961.0199 0 2030594.625 2344799.5)">
						<stop  offset="0" style="stop-color:#EF4DB7"/>
						<stop  offset="1" style="stop-color:#C643FD"/>
					</linearGradient>
					<rect x="1" y="1" clip-path="url(#SVGID_4_)" fill="url(#SVGID_5_)" width="100" height="100"/>
				</g>
				<g>
					<defs>
						<rect id="SVGID_6_" x="1" y="1" width="100" height="100"/>
					</defs>
					<clipPath id="SVGID_7_">
						<use xlink:href="#SVGID_6_"  overflow="visible"/>
					</clipPath>
					<g clip-path="url(#SVGID_7_)">
						<g>
							<defs>
								<path id="SVGID_8_" d="M50.4,13.7c-0.2,0.1-0.4,0.3-0.5,0.5l-0.1,0.1c-0.2,0.3-0.4,0.7-0.5,1c-0.4,1.1-0.8,2.2-1.2,3.2
									l-6.7,20.6h19.2l-6.7-20.6c-0.4-1.1-0.7-2.2-1.2-3.2c-0.1-0.4-0.3-0.7-0.5-1l-0.1-0.1c-0.2-0.2-0.3-0.4-0.5-0.5
									s-0.4-0.2-0.6-0.2S50.6,13.6,50.4,13.7"/>
							</defs>
							<clipPath id="SVGID_9_">
								<use xlink:href="#SVGID_8_"  overflow="visible"/>
							</clipPath>
							
								<radialGradient id="SVGID_10_" cx="-2439.6245" cy="2118.3289" r="0.1041" gradientTransform="matrix(717.8253 0 0 717.8253 1751227.625 -1520521.375)" gradientUnits="userSpaceOnUse">
								<stop  offset="0" style="stop-color:#FBE3F8"/>
								<stop  offset="0.745" style="stop-color:#FBE3F8"/>
								<stop  offset="0.8082" style="stop-color:#FADEF6"/>
								<stop  offset="0.8798" style="stop-color:#F9D1F0"/>
								<stop  offset="0.9554" style="stop-color:#F6BAE7"/>
								<stop  offset="0.98" style="stop-color:#F5B1E3"/>
								<stop  offset="1" style="stop-color:#F5B1E3"/>
							</radialGradient>
							<rect x="41.4" y="13.5" clip-path="url(#SVGID_9_)" fill="url(#SVGID_10_)" width="19.2" height="25.7"/>
						</g>
						<g>
							<defs>
								<rect id="SVGID_11_" x="1" y="1" width="100" height="100"/>
							</defs>
							<clipPath id="SVGID_12_">
								<use xlink:href="#SVGID_11_"  overflow="visible"/>
							</clipPath>
							<g clip-path="url(#SVGID_12_)">
								<g>
									<defs>
										<path id="SVGID_13_" d="M51,68.8l17.5,12.7c0.9,0.7,1.9,1.3,2.8,1.9c0.3,0.2,0.7,0.4,1.1,0.5h0.1C72.8,84,73,84,73.2,84
											s0.4-0.1,0.6-0.2s0.3-0.3,0.4-0.5s0.1-0.5,0.1-0.7v-0.1c0-0.4-0.1-0.8-0.2-1.2c-0.3-1.1-0.6-2.2-1-3.3l-6.7-20.6L51,68.8z
											"/>
									</defs>
									<clipPath id="SVGID_14_">
										<use xlink:href="#SVGID_13_"  overflow="visible"/>
									</clipPath>
									
										<radialGradient id="SVGID_15_" cx="-2439.6245" cy="2118.3289" r="0.1041" gradientTransform="matrix(717.8253 0 0 717.8253 1751227.625 -1520521.375)" gradientUnits="userSpaceOnUse">
										<stop  offset="0" style="stop-color:#F9E3FB"/>
										<stop  offset="0.7459" style="stop-color:#F9E3FB"/>
										<stop  offset="0.8097" style="stop-color:#F8DEFB"/>
										<stop  offset="0.8826" style="stop-color:#F3D0FA"/>
										<stop  offset="0.9599" style="stop-color:#ECBAF9"/>
										<stop  offset="0.981" style="stop-color:#EAB2F9"/>
										<stop  offset="1" style="stop-color:#EAB2F9"/>
									</radialGradient>
									<rect x="51" y="57.5" clip-path="url(#SVGID_14_)" fill="url(#SVGID_15_)" width="23.4" height="26.6"/>
								</g>
								<g>
									<defs>
										<rect id="SVGID_16_" x="1" y="1" width="100" height="100"/>
									</defs>
									<clipPath id="SVGID_17_">
										<use xlink:href="#SVGID_16_"  overflow="visible"/>
									</clipPath>
									<g clip-path="url(#SVGID_17_)">
										<g>
											<defs>
												<path id="SVGID_18_" d="M19.7,39.2c-1.1,0-2.3,0-3.4,0.1c-0.4,0-0.8,0.1-1.2,0.2H15c-0.3,0.1-0.5,0.2-0.7,0.4
													c-0.2,0.1-0.3,0.3-0.4,0.5c-0.1,0.2-0.1,0.4,0,0.6c0.1,0.2,0.2,0.4,0.3,0.7l0.1,0.1c0.2,0.3,0.5,0.6,0.8,0.8
													c0.9,0.7,1.8,1.4,2.7,2.1l17.5,12.7l5.9-18.3H19.7V39.2z"/>
											</defs>
											<clipPath id="SVGID_19_">
												<use xlink:href="#SVGID_18_"  overflow="visible"/>
											</clipPath>
											
												<radialGradient id="SVGID_20_" cx="-2440.196" cy="2118.0364" r="0.1041" gradientTransform="matrix(978.9961 0 0 978.9961 2388908.5 -2073548.25)" gradientUnits="userSpaceOnUse">
												<stop  offset="0" style="stop-color:#FAE1F8"/>
												<stop  offset="0.6" style="stop-color:#FAE1F8"/>
												<stop  offset="0.85" style="stop-color:#F7D6F7"/>
												<stop  offset="1" style="stop-color:#F7D6F7"/>
											</radialGradient>
											<rect x="13.9" y="39.2" clip-path="url(#SVGID_19_)" fill="url(#SVGID_20_)" width="27.4" height="18.3"/>
										</g>
										<g>
											<defs>
												<rect id="SVGID_21_" x="1" y="1" width="100" height="100"/>
											</defs>
											<clipPath id="SVGID_22_">
												<use xlink:href="#SVGID_21_"  overflow="visible"/>
											</clipPath>
											<g clip-path="url(#SVGID_22_)">
												<g>
													<defs>
														<path id="SVGID_23_" d="M28.7,78c-0.4,1.1-0.7,2.2-1,3.3c-0.1,0.4-0.2,0.8-0.2,1.2v0.1c0,0.3,0,0.5,0.1,0.7
															s0.2,0.4,0.4,0.5c0.2,0.1,0.4,0.2,0.6,0.2s0.5,0,0.7-0.1h0.1c0.4-0.1,0.7-0.3,1.1-0.5c1-0.6,1.9-1.3,2.8-1.9L51,68.8
															l-9.9-7.2l-5.7-4.1L28.7,78z"/>
													</defs>
													<clipPath id="SVGID_24_">
														<use xlink:href="#SVGID_23_"  overflow="visible"/>
													</clipPath>
													
														<radialGradient id="SVGID_25_" cx="-2440.4692" cy="2117.9539" r="0.1041" gradientTransform="matrix(696.9604 0 0 696.9604 1700990.5 -1476022.75)" gradientUnits="userSpaceOnUse">
														<stop  offset="0" style="stop-color:#FAE9FC"/>
														<stop  offset="0.669" style="stop-color:#FAE9FC"/>
														<stop  offset="0.8118" style="stop-color:#F8DEFA"/>
														<stop  offset="0.91" style="stop-color:#F6D4F8"/>
														<stop  offset="1" style="stop-color:#F6D4F8"/>
													</radialGradient>
													<rect x="27.6" y="57.5" clip-path="url(#SVGID_24_)" fill="url(#SVGID_25_)" width="23.4" height="26.6"/>
												</g>
												<g>
													<defs>
														<rect id="SVGID_26_" x="1" y="1" width="100" height="100"/>
													</defs>
													<clipPath id="SVGID_27_">
														<use xlink:href="#SVGID_26_"  overflow="visible"/>
													</clipPath>
													<g clip-path="url(#SVGID_27_)">
														<g>
															<defs>
																<path id="SVGID_28_" d="M60.6,39.2l5.9,18.3L84,44.7c0.9-0.7,1.8-1.4,2.7-2.1c0.3-0.2,0.6-0.5,0.8-0.8l0.1-0.1
																	c0.2-0.2,0.3-0.5,0.3-0.7c0.1-0.2,0-0.4,0-0.6c-0.1-0.2-0.2-0.4-0.4-0.5c-0.2-0.2-0.4-0.3-0.7-0.4h-0.1
																	c-0.4-0.1-0.8-0.2-1.2-0.2c-1.1-0.1-2.3-0.1-3.4-0.1L60.6,39.2L60.6,39.2z"/>
															</defs>
															<clipPath id="SVGID_29_">
																<use xlink:href="#SVGID_28_"  overflow="visible"/>
															</clipPath>
															
																<radialGradient id="SVGID_30_" cx="-2440.4692" cy="2117.9539" r="0.1041" gradientTransform="matrix(696.9604 0 0 696.9604 1700990.5 -1476022.75)" gradientUnits="userSpaceOnUse">
																<stop  offset="0" style="stop-color:#FAE9FB"/>
																<stop  offset="0.68" style="stop-color:#FAE9FB"/>
																<stop  offset="0.8132" style="stop-color:#F8DEF8"/>
																<stop  offset="0.98" style="stop-color:#F5CAF2"/>
																<stop  offset="1" style="stop-color:#F5CAF2"/>
															</radialGradient>
															<rect x="60.6" y="39.2" clip-path="url(#SVGID_29_)" fill="url(#SVGID_30_)" width="27.4" height="18.3"/>
														</g>
														<g>
															<defs>
																<rect id="SVGID_31_" x="1" y="1" width="100" height="100"/>
															</defs>
															<clipPath id="SVGID_32_">
																<use xlink:href="#SVGID_31_"  overflow="visible"/>
															</clipPath>
															<polygon clip-path="url(#SVGID_32_)" fill="#FFFFFF" points="41.4,39.2 35.4,57.5 41.1,61.6 51,68.8 66.5,57.5 
																60.6,39.2 															"/>
														</g>
													</g>
												</g>
											</g>
										</g>
									</g>
								</g>
							</g>
						</g>
					</g>
				</g>
			</g>
		</g>
	</g>
</g>
</svg>
