<?xml version="1.0" encoding="utf-8"?>
<!-- Generator: Adobe Illustrator 22.1.0, SVG Export Plug-In . SVG Version: 6.00 Build 0)  -->
<svg version="1.1" id="Layer_1" xmlns="http://www.w3.org/2000/svg" xmlns:xlink="http://www.w3.org/1999/xlink" x="0px" y="0px"
	 viewBox="0 0 102 102" enable-background="new 0 0 102 102" xml:space="preserve">
<g>
	<g>
		<g>
			<path id="path-0_1_" fill="#984153" d="M6.6,1h88.9c3.1,0,5.5,2.5,5.5,5.5v89c0,3.1-2.4,5.5-5.5,5.5H6.6C3.4,101.1,1,98.5,1,95.6
				V6.5C1,3.5,3.4,1,6.6,1z"/>
		</g>
	</g>
	<g>
		<polygon fill="#984153" points="1,61.2 101,61.2 101,40.9 1,40.9 		"/>
		<polygon fill="#FFFFFF" points="7.1,45.4 13.8,45.4 13.8,49 18,45.3 25.1,45.3 19.6,50.2 26.3,57.1 18.2,57.1 13.8,52.7 
			13.8,57.1 7.1,57.1 		"/>
		<path fill="#FFFFFF" d="M43.6,51c0,7-7.2,6.4-9,6.4s-8.9,0.5-8.9-6.1c0-6.9,6.4-6.4,9.1-6.4C37,44.9,43.6,44.2,43.6,51L43.6,51z
			 M32,51c0,2.3,0.5,4.1,2.8,4.1s2.7-1.9,2.7-4.3c0-2.1-0.4-3.7-2.8-3.7C32.4,47.2,32,48.6,32,51L32,51z"/>
		<polygon fill="#FFFFFF" points="46,57.2 46,45.2 52.5,45.2 52.5,49.4 56.9,49.4 56.9,45.2 63.4,45.2 63.4,57.2 56.9,57.2 
			56.9,52.7 52.4,52.7 52.4,57.2 		"/>
		<path fill="#FFFFFF" d="M66.3,45.2v12h13.6v-3.8c-0.4,0.4-0.8,0.6-1.3,0.6C78,54,73,54,73,54v-8.9h-6.7V45.2z"/>
		<path fill="#FFFFFF" d="M76.5,50v-1c-0.9-0.3-1.1-1-1.1-1.8c0-0.5,0.4-1.7,2.1-1.7c1.5,0,2.3,0.8,2.4,2
			C80.1,48.4,79.2,49.4,76.5,50L76.5,50z"/>
		<path fill="#FFFFFF" d="M95.3,46v3c-1.9-1.3-6.2-1.8-6.2-0.1c0,1.3,3.4,0.9,5.4,1.9c1.5,0.7,2.2,1.5,2.2,3c0,1-1.1,4.4-7.9,4.1
			c-5.2-0.2-6.4-0.9-6.9-1.2v-3.4c0,0,1.6,1.5,4.7,1.7c2.7,0.2,2.7-0.6,2.7-0.9s-0.3-0.7-4.1-1.4c-3.5-0.6-3.6-2.9-3.6-3.6
			c0-0.7,0.6-4,8.1-4C91.2,45,94.7,45.3,95.3,46L95.3,46z"/>
	</g>
</g>
</svg>
