<?xml version="1.0" encoding="utf-8"?>
<!-- Generator: Adobe Illustrator 22.1.0, SVG Export Plug-In . SVG Version: 6.00 Build 0)  -->
<svg version="1.1" id="Layer_1" xmlns="http://www.w3.org/2000/svg" xmlns:xlink="http://www.w3.org/1999/xlink" x="0px" y="0px"
	 viewBox="0 0 102 102" enable-background="new 0 0 102 102" xml:space="preserve">
<g>
	<g>
		<path id="path-0_1_" fill="#E42327" d="M6.6,1h88.9c3.1,0,5.5,2.5,5.5,5.5v89c0,3.1-2.4,5.5-5.5,5.5H6.6C3.4,101.1,1,98.5,1,95.6
			V6.5C1,3.5,3.4,1,6.6,1z"/>
	</g>
</g>
<path fill="#FFFFFF" d="M46,69.3l-3.2-8.5c0,0-5,5.6-12.7,5.6c-6.6,0-11.3-5.8-11.3-15.1c0-11.8,6-16.1,11.8-16.1
	c8.6,0,11.2,5.5,13.6,12.7l3.2,9.7C50.6,67,56.3,74.4,73,74.4c11.9,0,20.1-3.7,20.1-13.4c0-7.9-4.5-11.8-12.8-13.9l-6.1-1.3
	c-4.3-0.9-5.5-2.8-5.5-5.6c0-3.4,2.7-5.2,6.8-5.2c4.7,0,7.1,1.7,7.4,5.9l9.8-1.1C92,31,86,27.5,76.1,27.5c-8.8,0-17.1,3.4-17.1,13.9
	c0,6.5,3.3,10.7,11.2,12.8l6.5,1.5c4.9,1.1,6.5,3.3,6.5,6c0,3.6-3.5,5-10.1,5c-9.8,0-13.9-5.1-16.1-12.2l-3.3-9.7
	c-4.1-12.7-10.5-17.2-23.5-17.2c-13.9,0-21.4,8.9-21.4,24.3c0,14.7,7.4,22.7,21,22.7C40.8,74.5,46,69.3,46,69.3L46,69.3L46,69.3z"/>
</svg>
