<?xml version="1.0" encoding="utf-8"?>
<!-- Generator: Adobe Illustrator 22.1.0, SVG Export Plug-In . SVG Version: 6.00 Build 0)  -->
<svg version="1.1" id="Layer_1" xmlns="http://www.w3.org/2000/svg" xmlns:xlink="http://www.w3.org/1999/xlink" x="0px" y="0px"
	 viewBox="0 0 102 102" enable-background="new 0 0 102 102" xml:space="preserve">
<g>
	<g>
		<g>
			<path id="path-0" fill="#117EB8" d="M6.6,1h88.9c3.1,0,5.6,2.5,5.6,5.6v88.9c0,3.1-2.5,5.6-5.6,5.6H6.6C3.5,101,1,98.5,1,95.4
				V6.6C1,3.5,3.5,1,6.6,1z"/>
		</g>
	</g>
	<g>
		<g>
			<path id="path-1" fill="#FFFFFF" d="M25.9,18.3c-4.3,0-7.8,3.5-7.8,7.7c0,4.3,3.5,7.8,7.8,7.8c4.3,0,7.7-3.5,7.7-7.8
				C33.7,21.8,30.2,18.3,25.9,18.3L25.9,18.3z M19.2,39.7v43h13.4v-43H19.2z M66.6,38.6c-6.5,0-10.9,3.6-12.6,6.9h-0.2v-5.9H41v43
				h13.4V61.4c0-5.6,1.1-11,8-11c6.9,0,6.9,6.4,6.9,11.4v20.9h13.4V59.1C82.7,47.5,80.2,38.6,66.6,38.6L66.6,38.6z"/>
		</g>
	</g>
</g>
</svg>
