<?xml version="1.0" encoding="utf-8"?>
<!-- Generator: Adobe Illustrator 22.1.0, SVG Export Plug-In . SVG Version: 6.00 Build 0)  -->
<svg version="1.1" id="Layer_1" xmlns="http://www.w3.org/2000/svg" xmlns:xlink="http://www.w3.org/1999/xlink" x="0px" y="0px"
	 viewBox="0 0 102 102" enable-background="new 0 0 102 102" xml:space="preserve">
<g>
	<g>
		<path id="path-0_1_" fill="#FDD233" d="M6.6,1h88.9c3.1,0,5.5,2.5,5.5,5.5v89c0,3.1-2.4,5.5-5.5,5.5H6.6C3.4,101.1,1,98.5,1,95.6
			V6.5C1,3.5,3.4,1,6.6,1z"/>
	</g>
</g>
<g>
	<g>
		<path d="M51.9,24.3c-1.6,0.1-4.1,1-6.2,3.2c-1.2,1.3-2,2.6-2,9.1v43.1H42L20.9,33.5V66c0,6.5,0.4,7.8,1.9,9.2c1.7,1.7,4,3,6.3,3.2
			v0.8H11v-0.8c1.9-0.1,3.8-1.1,6.2-3.2c1.3-1.2,2-2.6,2-9.1V33.8c0-3.1-0.2-4.4-1.3-5.8c-1.4-1.9-4.7-3.7-8-3.7v-0.8h12.3L42,66.4
			V36.6c0-6.5-0.5-7.7-1.9-9.2c-1.6-1.8-4.3-2.9-6.3-3.2v-0.8h18.1v0.8H51.9z"/>
		<path d="M92.3,38.4c0,10.4-7.7,15.7-15.3,15.7h-5.1v19.6c0,1.4,0.4,1.8,1.8,2.6c3.4,1.6,5.4,2.1,6,2.1v0.8H58.4v-0.8
			c0.6,0,3-0.9,6-2.5c1.4-0.7,1.8-0.9,1.8-2.3c0-44.6,0-44.6,0-44.6c0-1.4-0.4-1.8-1.8-2.6c-3.1-1.5-5.4-2.1-6-2.1v-0.8h18.3
			C85.5,23.5,92.3,28.3,92.3,38.4z M86.3,39.3c0-10-3.1-14.4-11.5-14.4h-2.9v27.7h3.7C82.7,52.6,86.3,47.9,86.3,39.3z"/>
	</g>
</g>
</svg>
