<?xml version="1.0" encoding="utf-8"?>
<!-- Generator: Adobe Illustrator 22.1.0, SVG Export Plug-In . SVG Version: 6.00 Build 0)  -->
<svg version="1.1" id="Layer_1" xmlns="http://www.w3.org/2000/svg" xmlns:xlink="http://www.w3.org/1999/xlink" x="0px" y="0px"
	 viewBox="0 0 102 102" enable-background="new 0 0 102 102" xml:space="preserve">
<g>
	<g>
		<path id="path-0_1_" fill="#020202" d="M6.6,1h88.9c3.1,0,5.5,2.5,5.5,5.5v89c0,3.1-2.4,5.5-5.5,5.5H6.6C3.4,101.1,1,98.5,1,95.6
			V6.5C1,3.5,3.4,1,6.6,1z"/>
	</g>
</g>
<g>
	<path fill="#B12025" d="M31.9,16.4V51c0,19,0,34.6,0,34.6s1.2-0.1,2.7-0.2C36,85.2,38,85.1,39,85c1.5-0.1,5.9-0.4,6.4-0.4
		c0.2,0,0.2-0.8,0.2-14.6V55.4l0,0l0,0L31.9,16.4L31.9,16.4z"/>
	<polygon fill="#9D1D22" points="45.6,63.1 45.7,55.2 45.6,55.2 45.6,55.2 31.9,16.4 	"/>
	<path fill="#B12025" d="M56.5,16.5v15.3v15.3l13.6,38.6c0,0,0,0-0.1,0c0.1,0,0.1,0,0.1,0s0.1-15.6,0-34.6V16.6H56.5V16.5z"/>
	<polygon fill="#9D1D22" points="56.4,39.3 56.4,47 69.4,84 	"/>
	<path fill="#E32228" d="M31.9,16.4l13.7,38.8l0,0l1.1,3.1c6,17,9.3,26.1,9.3,26.1s0.9,0.1,2,0.1c3.4,0.2,7.5,0.5,10.6,0.9
		c0.7,0.1,1.3,0.1,1.4,0.1L56.4,47l0,0l-1.2-3.6c-1.2-3.5-2-5.8-6.9-19.7c-1.3-3.8-2.4-6.9-2.6-7l-0.1-0.2h-6.8L31.9,16.4L31.9,16.4
		z"/>
</g>
</svg>
