<?xml version="1.0" encoding="utf-8"?>
<!-- Generator: Adobe Illustrator 22.1.0, SVG Export Plug-In . SVG Version: 6.00 Build 0)  -->
<svg version="1.1" id="Layer_1" xmlns="http://www.w3.org/2000/svg" xmlns:xlink="http://www.w3.org/1999/xlink" x="0px" y="0px"
	 viewBox="0 0 102 102" enable-background="new 0 0 102 102" xml:space="preserve">
<g>
	<path fill="#191918" d="M64.6,31c-5-6.4-11.2-9.7-18.8-9.7c-9.5,0-17.5,4-23.9,11.9c-6.3,8-9.6,17.8-9.6,29.6
		c0,9.9,2.5,18,7.5,24.4s11.3,9.6,19,9.6c9.5,0,17.4-4,23.7-11.9S72,67.2,72,55.6C72,45.7,69.6,37.6,64.6,31z"/>
	<path fill="#191918" d="M95.6,1h-89C3.6,1,1,3.6,1,6.5v49.6c2.6-8.7,7.4-16.4,14.8-23.5C26.9,22,40.1,16.7,55.2,16.7
		c9.4,0,17,3.2,22.9,9.3c5.8,6.2,8.8,14.3,8.8,24.3c0,14.5-5.6,27.1-16.8,37.6c-6.4,6-13.7,10.4-21.4,13.1h46.9
		c3.1,0,5.5-2.6,5.5-5.5v-89C101.1,3.6,98.5,1,95.6,1z"/>
</g>
</svg>
