<?xml version="1.0" encoding="utf-8"?>
<!-- Generator: Adobe Illustrator 22.1.0, SVG Export Plug-In . SVG Version: 6.00 Build 0)  -->
<svg version="1.1" id="Layer_1" xmlns="http://www.w3.org/2000/svg" xmlns:xlink="http://www.w3.org/1999/xlink" x="0px" y="0px"
	 viewBox="0 0 102 102" style="enable-background:new 0 0 102 102;" xml:space="preserve">
<style type="text/css">
	.st0{fill:#222222;}
	.st1{fill:#FFFFFF;}
</style>
<g>
	<g>
		<g>
			<path id="path-0" class="st0" d="M6.6,1h88.9c3.1,0,5.6,2.5,5.6,5.6v88.9c0,3.1-2.5,5.6-5.6,5.6H6.6C3.5,101,1,98.5,1,95.4V6.6
				C1,3.5,3.5,1,6.6,1z"/>
		</g>
	</g>
	<g>
		<g>
			<path id="path-1" class="st1" d="M51,34.3c9.2,0,16.7,7.5,16.7,16.7S60.2,67.7,51,67.7S34.3,60.2,34.3,51S41.8,34.3,51,34.3
				L51,34.3z M51,26c-13.8,0-25,11.2-25,25s11.2,25,25,25s25-11.2,25-25S64.8,26,51,26L51,26z"/>
		</g>
	</g>
	<g>
		<g>
			<ellipse id="ellipse-2" class="st1" cx="82.9" cy="19.1" rx="6.9" ry="6.9"/>
		</g>
	</g>
</g>
</svg>
