<?xml version="1.0" encoding="utf-8"?>
<!-- Generator: Adobe Illustrator 22.1.0, SVG Export Plug-In . SVG Version: 6.00 Build 0)  -->
<svg version="1.1" id="Layer_1" xmlns="http://www.w3.org/2000/svg" xmlns:xlink="http://www.w3.org/1999/xlink" x="0px" y="0px"
	 viewBox="0 0 102 102" style="enable-background:new 0 0 102 102;" xml:space="preserve">
<style type="text/css">
	.st0{fill:#BD081C;}
	.st1{fill:#FFFFFF;}
</style>
<g>
	<g>
		<g>
			<path id="path-0" class="st0" d="M6.6,1h88.9c3.1,0,5.6,2.5,5.6,5.6v88.9c0,3.1-2.5,5.6-5.6,5.6H6.6C3.5,101,1,98.5,1,95.4V6.6
				C1,3.5,3.5,1,6.6,1z"/>
		</g>
	</g>
	<g transform="translate(36, 36) scale(1, -1) translate(-36, -36)">
		<g>
			<path id="path-1" class="st1" d="M21.8,21C21.8,9.1,29-1.2,39.3-5.7c-0.1,2,0,4.5,0.5,6.7c0.6,2.4,3.8,15.9,3.8,15.9
				s-0.9,1.9-0.9,4.6c0,4.3,2.5,7.6,5.6,7.6c2.7,0,3.9-2,3.9-4.4c0-2.7-1.7-6.7-2.6-10.4c-0.7-3.1,1.6-5.6,4.6-5.6
				c5.5,0,9.2,7.1,9.2,15.5c0,6.4-4.3,11.2-12.1,11.2c-8.8,0-14.4-6.6-14.4-14c0-2.5,0.7-4.3,1.9-5.7c0.5-0.6,0.6-0.9,0.4-1.6
				c-0.1-0.5-0.5-1.8-0.6-2.3c-0.2-0.7-0.8-1-1.5-0.7c-4.1,1.7-6,6.1-6,11.1c0,8.3,7,18.2,20.8,18.2c11.1,0,18.5-8.1,18.5-16.7
				c0-11.4-6.4-20-15.7-20c-3.1,0-6.1,1.7-7.1,3.6c0,0-1.7-6.7-2.1-8C45.1-3,43.8-5.2,42.7-7c2.6-0.8,5.4-1.2,8.3-1.2
				C67.1-8.2,80.2,4.9,80.2,21S67.1,50.2,51,50.2S21.8,37.1,21.8,21z"/>
		</g>
	</g>
</g>
</svg>
