<?xml version="1.0" encoding="utf-8"?>
<!-- Generator: Adobe Illustrator 22.1.0, SVG Export Plug-In . SVG Version: 6.00 Build 0)  -->
<svg version="1.1" baseProfile="tiny" id="Layer_1" xmlns="http://www.w3.org/2000/svg" xmlns:xlink="http://www.w3.org/1999/xlink"
	 x="0px" y="0px" viewBox="0 0 102 102" xml:space="preserve">
<g>
	<g>
		<g>
			<g>
				<g>
					<path id="path-0" fill="#53ACFD" d="M5,1h92c2.2,0,4,1.8,4,4v92c0,2.2-1.8,4-4,4H5c-2.2,0-4-1.8-4-4V5C1,2.8,2.8,1,5,1z"/>
				</g>
			</g>
		</g>
	</g>
	<g>
		<path fill="#FFFFFF" d="M39,60.8h8c2.3,0,4.5-0.5,6.6-1.5c2-1,3.6-2.3,5.1-3.9c1.4-1.7,2.6-3.6,3.2-5.7c0.8-2.1,1.2-4.3,1.2-6.6
			c0-2.2-0.4-4.3-1.3-6.4c-0.8-2-2-3.9-3.4-5.6c-1.5-1.7-3.2-3-5.2-4c-2.1-1.1-4.3-1.6-6.6-1.6h-21v50.8H39V60.8z M39,37.8h6.8
			c1,0.1,1.9,0.5,2.5,1.2c0.8,0.8,1.3,2.2,1.3,4.3c0,2.2-0.5,3.4-1.2,4.1c-0.6,0.7-1.4,1.2-2.3,1.2H39V37.8z"/>
		<path fill="#FFFFFF" d="M10.1,14.8v72.3c0,2.6,2.1,4.7,4.7,4.7h72.3c2.6,0,4.7-2.1,4.7-4.7V14.8c0-2.6-2.1-4.7-4.7-4.7H14.8
			C12.2,10.1,10.1,12.2,10.1,14.8z M77.5,82.2H24.3c-2.6,0-4.7-2.1-4.7-4.7V24.4c0-2.6,2.1-4.7,4.7-4.7h53.2c2.6,0,4.7,2.1,4.7,4.7
			v53.1C82.2,80.1,80.1,82.2,77.5,82.2z"/>
		<rect x="45" y="66.8" fill="#FFFFFF" width="31.3" height="9.6"/>
	</g>
</g>
</svg>
