<?xml version="1.0" encoding="utf-8"?>
<!-- Generator: Adobe Illustrator 22.1.0, SVG Export Plug-In . SVG Version: 6.00 Build 0)  -->
<svg version="1.1" id="Layer_1" xmlns="http://www.w3.org/2000/svg" xmlns:xlink="http://www.w3.org/1999/xlink" x="0px" y="0px"
	 viewBox="0 0 102 102" enable-background="new 0 0 102 102" xml:space="preserve">
<g>
	<g>
		<g>
			<path id="path-0" fill="#C64339" d="M6.5,1h89c3.1,0,5.5,2.5,5.5,5.5v89c0,3.1-2.4,5.5-5.5,5.5h-89C3.4,101,1,98.5,1,95.5v-89
				C0.9,3.5,3.4,1,6.5,1z"/>
		</g>
	</g>
	<path fill="#FFFFFF" d="M66.7,74L66.7,74c8.7-5.4,14.5-15.4,14.5-27c0-22.7-14.8-30.8-30.2-30.8c-14.5,0-30.3,11.5-30.3,31.2
		c0,22.8,14.7,31.1,30.2,31.1c2.5,0,4.8-0.3,7-0.8c0,0,0,0,0.1,0c6.1,10.8,15,8.2,17.4,7.4c0,0-0.4-1.9-0.9-5.4
		C70.2,79.5,68.3,77.2,66.7,74L66.7,74z M55.1,70.4c-1.3,0.4-2.8,0.4-4.1,0.4c-7.2,0-15.7-3.1-15.7-22.4c0-19.2,9-24.6,16.2-24.6
		S67,28.4,67,47.6c0,8.8-1.8,14.3-4.4,17.8h-0.1c-6-7.7-13.7-5.8-15.6-5c0,0,0.3,1.7,0.7,5C51.7,65.3,53.8,67.5,55.1,70.4
		C55.1,70.3,55.1,70.4,55.1,70.4L55.1,70.4z"/>
</g>
</svg>
