<?xml version="1.0" encoding="utf-8"?>
<!-- Generator: Adobe Illustrator 22.1.0, SVG Export Plug-In . SVG Version: 6.00 Build 0)  -->
<svg version="1.1" id="Layer_1" xmlns="http://www.w3.org/2000/svg" xmlns:xlink="http://www.w3.org/1999/xlink" x="0px" y="0px"
	 viewBox="0 0 102 102" style="enable-background:new 0 0 102 102;" xml:space="preserve">
<style type="text/css">
	.st0{fill:#FFFFFF;}
	.st1{fill:#FF3F18;}
</style>
<g>
	<g>
		<g>
			<path id="path-0" class="st0" d="M6.6,1h88.9c3.1,0,5.5,2.5,5.5,5.5v89c0,3.1-2.4,5.5-5.5,5.5H6.6C3.4,101.1,1,98.5,1,95.6V6.5
				C1,3.5,3.4,1,6.6,1z"/>
		</g>
	</g>
</g>
<g>
	<g id="XMLID_1_">
		<g>
			<path class="st1" d="M50,6c25.7-0.6,46.7,20.4,46,46.3C95.4,75.9,76,96.2,50.5,96C26.1,95.7,6.1,76,6,51C6.1,26,26,6.6,50,6z
				 M82.7,49.7c2.4-1.8,3.8-4.1,3.5-7.1c-0.3-3-1.8-5.3-4.6-6.5c-3-1.3-5.9-1-8.4,1.2c-0.3,0.2-0.5,0.2-0.8,0.1
				c-4.8-3.1-10-4.9-15.7-5.5c-0.6-0.1-1.3-0.1-2-0.2c1.2-3.8,2.4-7.6,3.6-11.3c0.3,0,0.5,0.1,0.8,0.1c2.9,0.6,5.8,1.3,8.7,1.9
				c0.6,0.1,0.9,0.3,1.1,1c0.8,3,3.8,4.9,6.8,4.4c4.1-0.7,6.3-5.1,4.4-8.6c-1.6-2.8-6.6-4.5-9.7-0.8c-0.3,0.4-0.6,0.5-1,0.3
				c-3.8-0.8-7.5-1.6-11.3-2.4c-1.6-0.3-2.3,0.1-2.8,1.6c-1.4,4.3-2.7,8.6-4.1,12.9c-0.1,0.4-0.2,0.6-0.7,0.6c-2.5,0-5,0.3-7.5,0.9
				c-4.5,0.9-8.6,2.6-12.4,5.2c-0.3,0.2-0.6,0.1-0.9,0c-1.3-0.6-2.5-1.3-3.9-1.7c-4.7-1.2-10.3,2.6-9.3,8.8c0.4,2.5,1.8,4.2,3.9,5.6
				c0.3,0.2,0.4,0.4,0.3,0.8c-0.6,3.4-0.2,6.7,1.2,9.8c1.9,4.5,5.3,7.8,9.4,10.3c4.6,2.9,9.8,4.4,15.2,5.1c4.7,0.6,9.4,0.4,14.1-0.7
				C67,73.9,73,71,77.6,65.8c3.6-4.2,5.2-9,4.5-14.5C82,50.5,82.1,50.2,82.7,49.7z"/>
			<path class="st0" d="M86.3,42.6c0.3,3.1-1.2,5.4-3.5,7.1c-0.6,0.4-0.7,0.8-0.6,1.5c0.7,5.5-0.9,10.4-4.5,14.5
				C73,71,67,73.9,60.4,75.4c-4.6,1-9.3,1.3-14.1,0.7c-5.4-0.7-10.6-2.2-15.2-5.1c-4.1-2.6-7.4-5.8-9.4-10.3
				c-1.4-3.2-1.7-6.5-1.2-9.8c0.1-0.4,0-0.6-0.3-0.8c-2-1.4-3.5-3.1-3.9-5.6c-1-6.3,4.6-10.1,9.3-8.8c1.4,0.4,2.6,1.1,3.9,1.7
				c0.3,0.1,0.5,0.2,0.9,0c3.8-2.6,7.9-4.3,12.4-5.2c2.5-0.5,5-0.9,7.5-0.9c0.5,0,0.6-0.3,0.7-0.6c1.4-4.3,2.7-8.6,4.1-12.9
				c0.5-1.5,1.2-2,2.8-1.6c3.8,0.8,7.5,1.6,11.3,2.4c0.5,0.1,0.7,0,1-0.3c3.2-3.7,8.2-2,9.7,0.8c2,3.6-0.2,8-4.4,8.6
				c-3,0.5-6-1.4-6.8-4.4c-0.2-0.6-0.5-0.8-1.1-1c-2.9-0.6-5.8-1.2-8.7-1.9c-0.2,0-0.5-0.1-0.8-0.1c-1.2,3.8-2.4,7.5-3.6,11.3
				c0.7,0.1,1.4,0.1,2,0.2c5.7,0.6,10.9,2.3,15.7,5.5c0.3,0.2,0.5,0.2,0.8-0.1c2.6-2.1,5.4-2.5,8.4-1.2C84.4,37.3,86,39.6,86.3,42.6
				z M62.1,54.7c2.5,0,4.8-2.2,4.7-4.7c0-2.7-2.2-4.8-4.8-4.8c-2.5,0-4.7,2.2-4.7,4.6C57.3,52.5,59.5,54.7,62.1,54.7z M63.2,63.7
				c0.5-0.6,0.4-1.4-0.1-1.9c-0.7-0.7-1.6-0.9-2.3-0.5c-0.3,0.2-0.5,0.4-0.8,0.5c-4.8,2.9-9.9,3.4-15.1,1.2
				c-1.1-0.4-2.1-1.1-3.1-1.7c-0.7-0.4-1.7-0.3-2.4,0.4c-0.5,0.5-0.5,1.3-0.1,2c0.3,0.4,0.6,0.7,1,1c3.3,2.3,6.9,3.2,11.2,3.3
				c0.5,0,1.2-0.1,2-0.1c2.6-0.2,5.2-0.9,7.4-2.3C61.8,65.2,62.6,64.5,63.2,63.7z M40.6,54.7c2.4,0,4.6-2.3,4.6-4.7
				c0-2.6-2.2-4.8-4.8-4.8c-2.6,0-4.7,2.2-4.7,4.8C35.7,52.5,38,54.7,40.6,54.7z"/>
			<path class="st1" d="M66.8,50c0,2.5-2.2,4.7-4.7,4.7c-2.6,0-4.8-2.2-4.8-4.9c0-2.5,2.2-4.6,4.7-4.6C64.7,45.1,66.8,47.3,66.8,50z
				"/>
			<path class="st1" d="M63.1,61.9c0.5,0.5,0.6,1.2,0.1,1.9c-0.6,0.7-1.4,1.4-2.2,1.9c-2.3,1.4-4.8,2.1-7.4,2.3
				c-0.8,0.1-1.5,0.1-2,0.1c-4.2,0-7.9-1-11.2-3.3c-0.4-0.3-0.7-0.6-1-1c-0.5-0.7-0.4-1.5,0.1-2c0.7-0.7,1.7-0.9,2.4-0.4
				c1,0.6,2,1.2,3.1,1.7c5.2,2.2,10.3,1.7,15.1-1.2c0.3-0.2,0.5-0.4,0.8-0.5C61.5,61,62.4,61.2,63.1,61.9z"/>
			<path class="st1" d="M45.3,50c0,2.4-2.3,4.7-4.6,4.7c-2.7,0-4.9-2.2-4.9-4.8c0-2.6,2.2-4.8,4.7-4.8C43.1,45.2,45.3,47.3,45.3,50z
				"/>
		</g>
	</g>
</g>
</svg>
