<?xml version="1.0" encoding="utf-8"?>
<!-- Generator: Adobe Illustrator 22.1.0, SVG Export Plug-In . SVG Version: 6.00 Build 0)  -->
<svg version="1.1" id="Layer_1" xmlns="http://www.w3.org/2000/svg" xmlns:xlink="http://www.w3.org/1999/xlink" x="0px" y="0px"
	 viewBox="0 0 102 102" enable-background="new 0 0 102 102" xml:space="preserve">
<g>
	<g>
		<g>
			<path id="path-0" fill="#010101" d="M6.6,1h88.9c3.1,0,5.5,2.5,5.5,5.5v89c0,3.1-2.4,5.5-5.5,5.5H6.6C3.4,101.1,1,98.5,1,95.6
				V6.5C1,3.5,3.4,1,6.6,1z"/>
		</g>
	</g>
	<g>
		<g>
			<path fill="#FFFFFF" d="M41,77.8C36,75.3,33,71.2,33,66.7c0-7.3,8.1-13.3,18-13.3s18,5.9,18,13.3c0,4.3-2.9,8.4-7.7,10.9l-1-1.6
				c4.1-2.1,6.6-5.6,6.6-9.2c0-6.2-7.1-11.3-16-11.3c-8.8,0-16,5.1-16,11.3c0,3.8,2.7,7.2,7,9.4L41,77.8z"/>
		</g>
		<g>
			<path fill="#010101" d="M74,42.5c0,8.3-10.2,15-22.9,15s-22.9-6.7-22.9-15s10.2-15,22.9-15S74,34.2,74,42.5z"/>
			<path fill="#FFFFFF" d="M51,58.5c-13.2,0-23.8-7.1-23.8-16s10.6-16,23.8-16s23.8,7.1,23.8,16S64.2,58.5,51,58.5z M51,28.5
				c-12,0-22,6.3-22,14.1s10,14.1,22,14.1S73,50.3,73,42.5S63,28.5,51,28.5z"/>
		</g>
		<g>
			<path fill="#FFFFFF" d="M69.6,23.8c-2.8,0-5-2.2-5-5s2.2-5,5-5s5,2.2,5,5S72.2,23.8,69.6,23.8z M69.6,15.7
				c-1.7,0-3.1,1.3-3.1,3.1s1.3,3.1,3.1,3.1c1.7,0,3.1-1.3,3.1-3.1C72.7,17,71.2,15.7,69.6,15.7z"/>
		</g>
		<g>
			<path fill="#FFFFFF" d="M27.7,40.9c-1.9-1.1-3.2-3.2-3.2-5.3c0-3.4,2.8-6.1,6.1-6.1c1.6,0,3.2,0.6,4.3,1.8l-1.3,1.3
				c-0.8-0.8-1.8-1.2-3-1.2c-2.3,0-4.2,1.8-4.2,4.2c0,1.5,0.8,3,2.1,3.7L27.7,40.9z"/>
		</g>
		<g>
			<path fill="#FFFFFF" d="M74.5,40.9l-0.9-1.6c1.3-0.7,2.1-2.1,2.1-3.7c0-2.3-1.8-4.2-4.2-4.2c-1.1,0-2.1,0.4-3,1.2l-1.3-1.3
				c1.1-1.1,2.7-1.8,4.3-1.8c3.4,0,6.1,2.8,6.1,6.1C77.6,37.8,76.4,39.8,74.5,40.9z"/>
		</g>
		<g>
			<path fill="#FFFFFF" d="M39.8,39.6c0-2,1.6-3.8,3.8-3.8c2,0,3.8,1.6,3.8,3.8c0,2-1.6,3.8-3.8,3.8S39.8,41.8,39.8,39.6z"/>
		</g>
		<g>
			<path fill="#FFFFFF" d="M55.5,39.6c0-2,1.6-3.8,3.8-3.8c2,0,3.8,1.6,3.8,3.8c0,2-1.6,3.8-3.8,3.8S55.5,41.8,55.5,39.6z"/>
		</g>
		<g>
			<path fill="#FFFFFF" d="M51,88.2c-10.6,0-11.5-14.6-11.5-32.4h1.9c0,16,0.7,30.4,9.6,30.4c8,0,9.6-11.6,9.6-30.4h1.9
				C62.5,72.2,61.8,88.2,51,88.2z"/>
		</g>
		<g>
			<path fill="#FFFFFF" d="M51.2,28C51.2,28,51,28,51,28c-0.5-0.2-0.7-0.7-0.6-1.2l4.4-12.4L65.4,17c0.5,0.1,0.8,0.6,0.7,1.1
				c-0.1,0.5-0.6,0.8-1.1,0.7l-9-2.1L52,27.5C52,27.8,51.5,28,51.2,28z"/>
		</g>
		<g>
			<path fill="#FFFFFF" d="M68,88.2H33.8v-0.9c0-0.1-0.1-3.3,1.8-5.3c1-1.1,2.4-1.6,4.3-1.6h3.3c0.5,0,0.9,0.4,0.9,0.9
				s-0.4,0.9-0.9,0.9h-3.5c-1.2,0-2.1,0.3-2.9,1c-0.8,0.9-1.1,2.1-1.2,3h30.4c-0.1-0.9-0.4-2.1-1.2-3.1c-0.6-0.6-1.5-1-2.6-1H59
				c-0.5,0-0.9-0.4-0.9-0.9s0.3-0.9,0.9-0.9h3.3c1.6,0,3,0.5,4,1.5c1.9,2,1.8,5.3,1.8,5.4L68,88.2z"/>
		</g>
		<g>
			<path fill="#FFFFFF" d="M51,52.8c-6.1,0-8.6-2.8-8.7-2.9c-0.3-0.4-0.3-1,0.1-1.3c0.4-0.3,1-0.3,1.3,0.1c0.1,0.1,2.1,2.2,7.2,2.2
				c5.2,0,7.5-2.2,7.6-2.2c0.4-0.4,1-0.4,1.3,0c0.4,0.4,0.4,0.9,0,1.3C59.8,49.9,57,52.8,51,52.8z"/>
		</g>
	</g>
</g>
</svg>
