<?xml version="1.0" encoding="utf-8"?>
<!-- Generator: Adobe Illustrator 22.1.0, SVG Export Plug-In . SVG Version: 6.00 Build 0)  -->
<svg version="1.1" id="Layer_1" xmlns="http://www.w3.org/2000/svg" xmlns:xlink="http://www.w3.org/1999/xlink" x="0px" y="0px"
	 viewBox="0 0 102 102" enable-background="new 0 0 102 102" xml:space="preserve">
<g>
	<g>
		<g>
			<path id="path-0" fill="#D63927" d="M6.6,1h88.9c3.1,0,5.5,2.5,5.5,5.5v89c0,3.1-2.4,5.5-5.5,5.5H6.6C3.4,101.1,1,98.5,1,95.6
				V6.5C1,3.5,3.4,1,6.6,1z"/>
		</g>
	</g>
	<path fill="#E6D841" d="M53.7,36.6c4.9,10,6.8-1.9,11.6-4.8c7-4.2,15.9,0.8,15.8,8.2c-0.3,10.6-9.4,7.3-17.8,11.6
		c4,8.2,20.6,1.8,19.2,15.8c-0.3,2.7-2.6,7.3-7.5,8.2c-12,2.1-10.6-9.8-19.2-12.3c-0.6,5.8,3.3,7.7,2.1,13
		c-2.1,9.2-15.1,7.5-16.5-0.7c-0.9-5.9,3.8-6.8,2.1-12.3c-8.2,1.3-7.3,10.3-16.4,9.6c-5.7-0.4-7.5-4.5-7.5-8.2
		c0-10.7,14-5.3,16.5-13c-1.2-3.9-9.1-1-12.4-2.8c-6.2-5.2-5-16.1,2.7-17.1c7.3-1,9,5.3,14.3,8.2c5-4.5-2.2-7.1-2.1-12.3
		c0.3-10.7,16.2-10.4,17.8-1.4C57,30.1,54.6,31.3,53.7,36.6z"/>
</g>
</svg>
