<?xml version="1.0" encoding="utf-8"?>
<!-- Generator: Adobe Illustrator 22.1.0, SVG Export Plug-In . SVG Version: 6.00 Build 0)  -->
<svg version="1.1" id="Layer_1" xmlns="http://www.w3.org/2000/svg" xmlns:xlink="http://www.w3.org/1999/xlink" x="0px" y="0px"
	 viewBox="0 0 102 102" enable-background="new 0 0 102 102" xml:space="preserve">
<g>
	<path fill="#D62D28" d="M1,95.6c0,3.1,2.4,5.5,5.6,5.4h88.9c3.1,0,5.5-2.5,5.5-5.5V51H1V95.6z"/>
	<path fill="#2E3F84" d="M95.5,1H6.6C3.4,1,1,3.5,1,6.5V51h100V6.5C101,3.5,98.4,1,95.5,1z"/>
	<g>
		
			<linearGradient id="SVGID_1_" gradientUnits="userSpaceOnUse" x1="51.051" y1="2425.7756" x2="51.051" y2="2399.2937" gradientTransform="matrix(1 0 0 1 0 -2396)">
			<stop  offset="0" style="stop-color:#FFFFFF;stop-opacity:0.1"/>
			<stop  offset="1" style="stop-color:#FFFFFF;stop-opacity:0.7"/>
		</linearGradient>
		<path fill="url(#SVGID_1_)" d="M38.1,29.8c0.5,0,0.9,0,1.4,0l0,0h42H63.9h-1.3l0,0c0.5,0,0.9,0,1.4,0c15.6,0,27.6-11,31.8-26.5
			H6.3C10.6,18.8,22.5,29.8,38.1,29.8z"/>
	</g>
	<g>
		<path fill="#FFFFFF" d="M60.3,21.1c-0.8,0.9-1.6,1.7-2.4,2.8c-0.8,1-1.7,1.7-2.6,2.7c-0.4,0.4-0.4,0.4-0.1,0.9
			c2.3,3.6,4.7,7,7,10.6c0.1,0.2,0.2,0.4,0.4,0.6c-0.5,0.3-1.1,0.4-1.7,0.5c-1.2,0.2-2.7,0.3-3.9,0c-1.2-0.3-2.2-0.9-3.1-2
			c-0.5-0.7-0.9-1.4-1.4-2.1c-1.7-2.8-3.5-5.4-5.1-8.2c-0.3-0.5-0.3-0.5,0.1-0.9c2.4-2.8,5-5.5,7.7-8.3c0.8-0.9,1.6-1.7,2.9-2.2
			c1.3-0.6,2.8-0.8,4.2-0.7c0.5,0,1,0.1,1.5,0.2c0.4,0.1,0.7,0.2,0.9,0.6c2.4,4.1,4.9,8.1,7.3,12.1c0.2,0.2,0.3,0.5,0.5,0.7
			c0.2-0.2,0.3-0.4,0.4-0.6c1.2-3.1,2.7-6.1,3.9-9.2c0.1-0.3,0.2-0.5,0.4-0.8c1.2-2.3,3.1-3.2,5.3-3c0.8,0.1,1.6,0.2,2.3,0.6
			c-0.6,1.4-1.3,3.1-1.9,4.5c-3.9,8.1-7.4,16.1-11.1,24.2c-0.1,0.3-0.3,0.6-0.4,0.9c-0.7,1.4-1.8,2.3-3.6,2.5
			c-1.2,0.1-2.3,0-3.6-0.4c-0.5-0.2-0.5-0.2-0.3-0.7c1.6-3.6,3.4-7,5-10.5c0.2-0.5,0.2-0.8-0.1-1.2c-2.9-4.4-5.5-8.7-8.4-13.1
			C60.5,21.4,60.5,21.2,60.3,21.1z"/>
		<path fill="#FFFFFF" d="M28.4,14.7c2.9,0,5.2,0.2,7.7,0.5c0.3,0,0.4,0.1,0.4,0.4c0.1,0.8,0.1,1.6,0,2.3c-0.3,1.7-1.4,2.9-3.4,2.9
			c-1.2,0-2.4-0.1-3.9-0.2c-1.2,0-2.4-0.1-3.9,0.1c-0.4,0.1-0.9,0.2-1.2,0.5c-0.7,0.5-0.7,1.2,0.2,1.7c0.5,0.3,1.1,0.4,1.6,0.5
			c1.9,0.4,3.9,0.7,5.8,1.1c1.4,0.3,2.9,0.8,4,1.8c1.4,1.2,2.1,2.9,2.2,4.7c0,0.8,0,1.7-0.2,2.7c-0.6,2-1.9,3.5-3.9,4.4
			c-1.5,0.7-3.4,1-5.1,1c-3.5,0.1-6.8-0.1-10.3-0.4c-0.3,0-0.4-0.1-0.5-0.4c-0.2-1.2-0.1-2.5,0.4-3.7c0.6-1.1,1.5-1.6,3-1.6
			c0.9,0,1.8,0,2.9,0.1c1.2,0.1,2.3,0.1,3.7,0.2c0.7,0,1.5,0,2.2-0.1c0.9-0.2,1.5-0.7,1.5-1.3c0-0.6-0.4-1.1-1.4-1.4
			c-0.9-0.3-1.8-0.4-2.9-0.6c-1.4-0.3-2.9-0.5-4.3-0.8c-1.9-0.4-3.6-1.4-4.7-3.2c-1.6-2.3-1.3-6.1,0.7-8.4c1.3-1.4,3.2-2.1,5-2.7
			C25.7,14.7,27.2,14.7,28.4,14.7z"/>
		<path fill="#FFFFFF" d="M46.7,21.6c0,4.7,0,9.5,0,14.2c0,1.6-0.4,3-2.9,3.4c-1.1,0.2-2.2,0.2-3.5,0.1c-0.3,0-0.4-0.1-0.3-0.4
			c0-0.2,0-0.3,0-0.5c0-9.2,0-18.5,0-27.6c0-0.6,0-1.2,0.2-1.7c0.3-1,0.9-1.6,1.8-2.1c1.2-0.5,2.8-0.5,4.1-0.4
			c0.2,0,0.4,0.1,0.4,0.4c0,0.2,0,0.3,0,0.5C46.7,12,46.7,16.8,46.7,21.6z"/>
	</g>
	<g>
		<path fill="#FFFFFF" d="M90.8,58.7c-0.4,0-0.9,0-1.3,0c-0.8-0.1-1.5-0.1-2.3-0.1c-0.4,0-0.7,0.1-1.1,0.2c-0.4,0.1-0.7,0.4-0.7,0.9
			c0,0.4,0.2,0.8,0.6,1c0.3,0.2,0.6,0.2,0.9,0.3c1.5,0.3,3.2,0.7,4.7,1c0.7,0.2,1.4,0.4,2,0.8c1,0.7,1.5,1.7,1.5,3.1
			c0,0.6-0.1,1.2-0.3,1.8c-0.4,1-1.1,1.6-2,2c-0.8,0.3-1.6,0.5-2.4,0.6c-1.2,0.1-2.4,0-3.8,0c-0.8,0-1.5,0-2.3-0.1
			c-0.7,0-1.4-0.1-2.1-0.1c-0.1,0-0.2,0-0.2-0.2c-0.1-0.5,0-1.1,0.1-1.6c0.2-0.5,0.5-0.8,1-0.9c0.2,0,0.3-0.1,0.5-0.1
			c1,0,2,0.1,3.1,0.1s2,0.1,3.2,0c0.3,0,0.6-0.1,0.9-0.2c0.4-0.1,0.6-0.4,0.7-0.8c0.1-0.4-0.1-0.7-0.4-1c-0.3-0.2-0.7-0.4-1.1-0.5
			c-0.6-0.2-1.2-0.3-1.9-0.4c-0.8-0.2-1.6-0.3-2.4-0.6c-0.8-0.2-1.6-0.5-2.3-1c-0.5-0.4-0.9-0.9-1.1-1.5c-0.3-0.6-0.3-1.1-0.2-1.7
			c0-0.9,0.3-1.7,0.9-2.3c0.5-0.6,1.2-0.9,1.9-1.2c0.7-0.2,1.4-0.4,2.1-0.4c1.5-0.1,3.2,0,4.8,0.1c0.8,0,1.6,0.1,2.7,0.1
			c0.1,0,0.2,0,0.2,0.2c0,0.5,0,0.9-0.1,1.3c-0.2,0.7-0.8,1.3-1.6,1.3C91.8,58.7,91.3,58.7,90.8,58.7z"/>
		<g>
			<path fill="#FFFFFF" d="M16.8,58.7c-1.3-0.1-2.8-0.1-4.1-0.1c-0.5,0-0.9,0.1-1.3,0.2c-0.5,0.2-0.7,0.6-0.6,1.2
				c0.1,0.2,0.2,0.4,0.4,0.6c0.3,0.2,0.5,0.3,0.8,0.3c1.5,0.3,3.2,0.7,4.7,1c0.7,0.2,1.4,0.4,2.1,0.8c1,0.6,1.6,1.6,1.7,3
				c0,0.7,0,1.4-0.3,2.1c-0.4,0.8-0.9,1.4-1.7,1.8c-0.7,0.3-1.4,0.5-2.1,0.6c-1.1,0.2-2.3,0.1-3.6,0.1c-0.6,0-1.2,0-1.8,0
				c-1,0-2.1-0.1-3.3-0.2c-0.1,0-0.2-0.1-0.2-0.2c-0.1-0.5,0-0.9,0.1-1.4c0.2-0.7,0.7-1.2,1.5-1.2c1,0,2,0,3.1,0.1
				c1,0,2.1,0.1,3.3,0c0.3,0,0.7-0.1,1-0.2c0.7-0.3,0.8-1.2,0.2-1.6c-0.3-0.2-0.6-0.4-1-0.5c-1.1-0.3-2.2-0.5-3.5-0.8
				c-0.5-0.1-1-0.2-1.5-0.3c-0.6-0.2-1.2-0.3-1.7-0.7c-0.7-0.5-1.3-1-1.5-1.8c-0.5-1-0.4-2-0.1-3.2c0.3-0.9,1.1-1.5,1.9-1.9
				c0.7-0.3,1.4-0.5,2.1-0.6c1.2-0.2,2.4-0.1,3.7-0.1s2.3,0.1,3.7,0.1c0.2,0,0.5,0,0.7,0.1c0.1,0,0.2,0,0.2,0.2c0,0.5,0,0.9-0.1,1.3
				c-0.2,0.8-0.8,1.3-1.6,1.3C17.5,58.7,17.2,58.7,16.8,58.7z"/>
			<path fill="#FFFFFF" d="M67.6,58.7c0-0.5,0-1,0-1.5c0.2-0.9,0.7-1.4,1.7-1.5c0.1,0,0.2,0,0.2,0c3.6,0,7.1,0,10.7,0h0.1
				c0.3,0,0.3,0,0.3,0.3c0,0.4,0,0.9-0.1,1.3c-0.2,0.8-0.7,1.3-1.6,1.3c-0.8,0-1.7,0-2.7,0c-0.1,0-0.2,0-0.3,0c-0.1,0-0.2,0-0.2,0.1
				c0,0.1,0,0.2,0,0.3c0,3.2,0,6.2,0,9.4c0,0.2,0,0.4,0,0.5c-0.1,0.6-0.4,0.9-0.9,1.1c-0.5,0.2-0.9,0.2-1.4,0.2c-0.3,0-0.6,0-0.9,0
				c-0.1,0-0.2-0.1-0.2-0.2s0-0.2,0-0.2c0-3.7,0-7.3,0-10.9c0-0.4,0.1-0.4-0.4-0.4c-1.3,0-2.8,0-4.1,0
				C67.8,58.7,67.7,58.7,67.6,58.7z"/>
			<path fill="#FFFFFF" d="M62.6,65c0.1-0.1,0.1-0.1,0.2-0.1c0.4-0.1,0.8-0.2,1.1-0.4c1.1-0.5,1.8-1.3,2.2-2.7
				c0.3-0.9,0.3-1.8,0.2-2.9c-0.1-0.6-0.3-1.2-0.7-1.7c-0.5-0.7-1.2-1-2-1.3c-0.8-0.3-1.7-0.3-2.7-0.4c-1.8,0-3.7,0-5.5,0
				c-0.3,0-0.7,0-1,0.1c-0.5,0.1-1,0.4-1.1,1c-0.1,0.2-0.1,0.5-0.1,0.8c0,4.2,0,8.3,0,12.4c0,0.1,0,0.2,0,0.2c0,0.2,0,0.2,0.2,0.2
				c0.5,0,1,0,1.5,0c0.3,0,0.7-0.1,1-0.3c0.3-0.2,0.6-0.4,0.7-0.8c0.1-0.2,0.1-0.5,0.1-0.7c0-1,0-2,0-3.2c0-0.1,0-0.2,0.2-0.2
				c0.5,0,0.9,0,1.4,0c0.1,0,0.2,0.1,0.3,0.2c0.4,0.5,0.9,1.1,1.3,1.6c0.4,0.5,0.7,0.9,1.1,1.4c0.4,0.4,0.7,0.9,1.1,1.3
				c0.4,0.4,0.8,0.6,1.3,0.7c0.3,0.1,0.6,0.1,0.8,0.1c0.7,0,1.3,0,1.9-0.2c0.1,0,0.3-0.1,0.4-0.2C65.7,68.5,64.3,66.8,62.6,65z
				 M61.9,62.1c-0.4,0.2-0.8,0.2-1.3,0.2c-1.1,0-2.2,0-3.5,0c-0.2,0-0.3,0-0.3-0.2c0-1,0-2,0-3.2c0-0.3,0-0.3,0.3-0.3
				c0.6,0,1.2,0,1.9,0c0.6,0,1.3,0,2.1,0.1c0.3,0,0.5,0.1,0.8,0.2c0.4,0.2,0.7,0.5,0.8,1c0.1,0.3,0.1,0.6,0,0.9
				C62.7,61.5,62.4,61.9,61.9,62.1z"/>
			<path fill="#FFFFFF" d="M51.1,59.8c-0.4-1.7-1.5-3.2-3.3-3.9c-0.7-0.3-1.5-0.5-2.3-0.6c-1.3-0.1-2.7-0.1-3.9,0.2
				c-0.7,0.2-1.3,0.4-1.9,0.8c-1.2,0.7-1.9,1.8-2.3,3.4c-0.3,1.3-0.4,2.8-0.3,4.1c0,0.9,0.2,1.7,0.4,2.7c0.4,1.4,1.3,2.5,2.8,3.3
				c0.8,0.4,1.7,0.6,2.8,0.7c0.9,0.1,1.8,0.1,2.9,0c0.9-0.1,1.7-0.3,2.7-0.7c1.2-0.5,2-1.4,2.7-2.8c0.3-0.6,0.4-1.3,0.5-1.9
				c0.1-0.6,0.1-1.3,0.1-1.9C51.4,61.8,51.3,60.8,51.1,59.8z M47.4,65.2c0,0.2-0.1,0.3-0.2,0.5c-0.3,0.9-1,1.4-1.9,1.6
				c-0.8,0.2-1.7,0.2-2.7-0.1c-1-0.3-1.6-1-1.8-2c-0.2-0.7-0.2-1.4-0.2-2.2s0.1-1.6,0.3-2.5c0.4-1.2,1.2-1.8,2.4-2
				c0.6-0.1,1.3-0.1,1.9,0.1c0.9,0.2,1.5,0.7,1.8,1.6c0.3,0.6,0.3,1.3,0.4,2C47.7,63.1,47.6,64.2,47.4,65.2z"/>
			<path fill="#FFFFFF" d="M35.7,60c-0.2-1.7-1-3.1-2.9-3.8c-0.9-0.4-1.8-0.5-3-0.5c-1.8,0-3.7,0-5.5,0c-0.4,0-0.7,0-1.1,0.2
				c-0.4,0.1-0.7,0.4-0.9,0.8c-0.1,0.3-0.2,0.6-0.2,0.9c0,2,0,4.2,0,6.2l0,0c0,0.2,0,0.4,0,0.6c0,1.8,0,3.8,0,5.6
				c0,0.3,0,0.3,0.3,0.3c0.5,0,0.9,0,1.4,0c0.4,0,0.7-0.1,1.1-0.3c0.3-0.2,0.6-0.4,0.6-0.8c0.1-0.2,0.1-0.5,0.1-0.7
				c0-0.8,0-1.6,0-2.5c0-0.4,0-0.3,0.3-0.3c1.1,0,2.3,0,3.6,0c1,0,1.9-0.1,3-0.4c1.4-0.5,2.4-1.4,2.9-3.1
				C35.8,61.6,35.8,60.8,35.7,60z M32.1,60.9c-0.1,1.1-0.8,1.5-1.7,1.7c-0.3,0.1-0.6,0.1-0.9,0.1c-0.5,0-0.9,0-1.4,0
				c-0.6,0-1.2,0-1.8,0c-0.2,0-0.2,0-0.2-0.2c0-1.1,0-2.3,0-3.6c0-0.2,0-0.2,0.2-0.2c1.2,0,2.4,0,3.9,0c0.3,0,0.6,0.1,0.9,0.2
				C31.7,59.2,32.2,59.8,32.1,60.9z"/>
		</g>
	</g>
</g>
</svg>
