<?xml version="1.0" encoding="utf-8"?>
<!-- Generator: Adobe Illustrator 22.1.0, SVG Export Plug-In . SVG Version: 6.00 Build 0)  -->
<svg version="1.1" id="Layer_1" xmlns="http://www.w3.org/2000/svg" xmlns:xlink="http://www.w3.org/1999/xlink" x="0px" y="0px"
	 viewBox="0 0 102 102" enable-background="new 0 0 102 102" xml:space="preserve">
<g>
	<g>
		<g>
			
				<linearGradient id="path-0_1_" gradientUnits="userSpaceOnUse" x1="-625.17" y1="432.67" x2="-625.17" y2="431.67" gradientTransform="matrix(100 0 0 -100 62568 43268)">
				<stop  offset="0" style="stop-color:#FE9B00"/>
				<stop  offset="1" style="stop-color:#FF1E00"/>
				<stop  offset="1" style="stop-color:#FE5D00"/>
			</linearGradient>
			<path id="path-0" fill="url(#path-0_1_)" d="M5,1h92c2.2,0,4,1.8,4,4v92c0,2.2-1.8,4-4,4H5c-2.2,0-4-1.8-4-4V5C1,2.8,2.8,1,5,1z"
				/>
		</g>
	</g>
	<g>
		<g>
			<path id="path-2" fill="#FFFFFF" d="M13.4,53.5c-0.2,0-0.4,0.1-0.5,0.3l-0.8,4.7l0.8,4.6c0,0.2,0.2,0.3,0.5,0.3
				c0.2,0,0.4-0.1,0.5-0.3l1-4.6l-1-4.7C13.8,53.6,13.7,53.5,13.4,53.5L13.4,53.5z M19,50.6c-0.2,0-0.4,0.1-0.4,0.3
				c0,0-0.9,7.6-0.9,7.6l0.9,7.4c0,0.2,0.2,0.3,0.4,0.3c0.2,0,0.4-0.1,0.4-0.3l1.1-7.4l-1.1-7.6C19.4,50.7,19.2,50.6,19,50.6
				L19,50.6z M24.6,48.8c-0.3,0-0.5,0.2-0.5,0.5l-0.8,9.3l0.8,9c0,0.3,0.3,0.5,0.5,0.5c0.3,0,0.5-0.2,0.5-0.5l0.9-9l-0.9-9.3
				C25.1,49,24.8,48.8,24.6,48.8L24.6,48.8z M58.2,31.6c-2.2,0-4.4,0.5-6.3,1.2C51.2,33.1,51,33.4,51,34v32.5c0,0.6,0.5,1.1,1.1,1.2
				c0,0,19.2,0,25.4,0h0c0.9,0.3,1.8,0.5,2.8,0.5c5.4,0,9.7-5.1,9.7-11.3s-4.4-11.3-9.7-11.3c-1.7,0-3.4,0.5-4.8,1.5
				C74.1,38.2,66.9,31.6,58.2,31.6L58.2,31.6z M35.7,39.2c-0.4,0-0.8,0.3-0.8,0.8c0,0-0.6,18.6-0.6,18.6l0.6,8.9
				c0,0.4,0.4,0.8,0.8,0.8c0.4,0,0.8-0.3,0.8-0.8l0.6-8.9l-0.6-18.6C36.4,39.5,36.1,39.2,35.7,39.2L35.7,39.2z M30.2,43.9
				c-0.4,0-0.6,0.3-0.7,0.6l-0.7,14l0.7,9c0,0.4,0.3,0.6,0.7,0.6c0.4,0,0.6-0.3,0.7-0.6v0l0.8-9l-0.8-14
				C30.8,44.2,30.5,43.9,30.2,43.9L30.2,43.9z M41.2,38.9c-0.5,0-0.9,0.4-0.9,0.9l-0.5,18.7l0.5,8.7c0,0.5,0.4,0.9,0.9,0.9
				c0.5,0,0.9-0.4,0.9-0.9v0l0.5-8.7l-0.5-18.7C42.1,39.3,41.7,38.9,41.2,38.9L41.2,38.9z M46.8,36c-0.5,0-1,0.5-1,1.1l-0.4,21.5
				c0,0,0.4,8.6,0.4,8.6c0,0.6,0.5,1.1,1,1.1s1-0.5,1-1.1l0.4-8.6l-0.4-21.5C47.8,36.5,47.3,36,46.8,36L46.8,36z"/>
		</g>
	</g>
</g>
</svg>
