<?xml version="1.0" encoding="utf-8"?>
<!-- Generator: Adobe Illustrator 22.1.0, SVG Export Plug-In . SVG Version: 6.00 Build 0)  -->
<svg version="1.1" id="Layer_1" xmlns="http://www.w3.org/2000/svg" xmlns:xlink="http://www.w3.org/1999/xlink" x="0px" y="0px"
	 viewBox="0 0 102 102" style="enable-background:new 0 0 102 102;" xml:space="preserve">
<style type="text/css">
	.st0{fill:#333333;}
	.st1{fill:#FF6602;}
</style>
<g>
	<g>
		<g>
			<path id="path-0" class="st0" d="M6.5,1h89c3.1,0,5.5,2.6,5.5,5.5v89c0,3.1-2.6,5.5-5.5,5.5h-89C3.4,101,1,98.4,1,95.5V6.6
				C1,3.6,3.6,1,6.5,1z"/>
		</g>
	</g>
	<g>
		<g>
			<path class="st1" d="M44,78l3.8-4c0.6-0.6,0.7-1.1,0.7-1.5L26,50c-0.4-0.4-0.4-1.1,0-1.5l22.3-22.3l0,0l5.4-5.3
				c0.7-0.7,0.6-1.2,0.4-1.4l-0.2-0.2h-10L15,48.2c-0.4,0.4-0.4,1.1,0,1.5l28,28C43.6,78.2,44,78,44,78z"/>
			<path class="st1" d="M53.6,30l22,22c0.4,0.4,0.6,1.3,0.2,1.7L54.2,75.2l0,0l-0.7,0.6l-0.1,0.1l0,0L48.1,81
				c-0.7,0.7-0.6,1.2-0.4,1.4l0.3,0.3h9.9L87,53.5c0.4-0.4,0.4-1.1,0-1.5L59,24c-0.6-0.4-1-0.2-1-0.2l-3.8,4
				C53,29.2,53.6,30,53.6,30z"/>
		</g>
		<path class="st1" d="M59.9,44.6c-0.9-0.7-0.8,0.2-0.8,0.2c0.8,1.1,0.6,4.9,0.6,4.9c0,2-0.2,4.7-1.9,6c-0.2,0.1-0.3,0.2-0.5,0.2
			c-0.1,0-0.3-0.1-0.4-0.1c-0.4-0.2-0.5-0.5-0.6-0.9c-0.1-0.5,0-1,0-1.5c0-1-0.1-2-0.1-3.1c-0.1-1.1-0.2-2.4-0.3-3.5
			c-0.2-3.2-1.6-6.5-1.6-6.5l0,0l0,0c0,0,0.2-0.7-4.1-6.6c0,0-1.4-1-1.5,0.6c-0.1,0.8-0.1,1.6-0.3,2.5c-0.2,0.7-0.5,1.4-0.8,2.1
			c-0.4,0.8-1.1,1.3-1.6,1.9c-0.9,1.1-1.7,2.5-2.6,3.7c-1.5,2.1-2.5,4.9-2.5,7.9c0,6.8,4.8,12.4,10.8,12.4s10.8-5.6,10.8-12.4
			C62.3,49.4,61.4,46.8,59.9,44.6z"/>
	</g>
</g>
</svg>
