<?xml version="1.0" encoding="utf-8"?>
<!-- Generator: Adobe Illustrator 22.1.0, SVG Export Plug-In . SVG Version: 6.00 Build 0)  -->
<svg version="1.1" id="Layer_1" xmlns="http://www.w3.org/2000/svg" xmlns:xlink="http://www.w3.org/1999/xlink" x="0px" y="0px"
	 viewBox="0 0 102 102" enable-background="new 0 0 102 102" xml:space="preserve">
<g>
	<g>
		<g>
			<path id="path-0" fill="#010101" d="M6.6,1h88.9c3.1,0,5.5,2.5,5.5,5.5v89c0,3.1-2.4,5.5-5.5,5.5H6.6C3.4,101.1,1,98.5,1,95.6
				V6.5C1,3.5,3.4,1,6.6,1z"/>
		</g>
	</g>
	<g>
		<path fill="#939397" d="M23.6,55.6h5.1l-0.2,22.6h33.7V55.7h5.3v28H23.6V55.6z"/>
		<path fill="#939397" d="M31.9,68.9h26.4v5.6H31.9V68.9z"/>
		<path fill="#B39B81" d="M32.5,58.8l26.4,2.5L58.4,67L32,64.4L32.5,58.8z"/>
		<path fill="#CCA464" d="M34.8,47.3l25.5,7.2L58.8,60l-25.5-7.2L34.8,47.3z"/>
		<path fill="#DD9D35" d="M41.1,34.4L63.8,48l-3,5L38.1,39.4L41.1,34.4z"/>
		<path fill="#F99C2B" d="M54,22.1l15.5,21.5L64.8,47L49.3,25.5L54,22.1z"/>
		<path fill="#F78E2C" d="M72,16.3l4.4,26.2l-5.7,0.9l-4.4-26.2L72,16.3z"/>
	</g>
</g>
</svg>
