<?xml version="1.0" encoding="utf-8"?>
<!-- Generator: Adobe Illustrator 22.1.0, SVG Export Plug-In . SVG Version: 6.00 Build 0)  -->
<svg version="1.1" id="Layer_1" xmlns="http://www.w3.org/2000/svg" xmlns:xlink="http://www.w3.org/1999/xlink" x="0px" y="0px"
	 viewBox="0 0 102 102" enable-background="new 0 0 102 102" xml:space="preserve">
<g>
	<g>
		<g>
			<rect id="rect-0" x="23.5" y="17.5" fill="#FFFFFF" width="55" height="67"/>
		</g>
	</g>
	<g>
		<g>
			<path id="path-1" fill="#CC0000" d="M6.6,1h88.9c3.1,0,5.6,2.5,5.6,5.6v88.9c0,3.1-2.5,5.6-5.6,5.6H6.6C3.5,101,1,98.5,1,95.4
				V6.6C1,3.5,3.5,1,6.6,1z"/>
		</g>
	</g>
	<g>
		<path fill="#FFFFFF" d="M51,74.8c-13.1,0-23.8-10.7-23.8-23.8c0-13.2,10.7-23.8,23.8-23.8c13.2,0,23.8,10.6,23.8,23.8
			C74.8,64.2,64.1,74.8,51,74.8 M51,15.3c-19.7,0-35.7,16-35.7,35.7c0,19.7,16,35.7,35.7,35.7c19.7,0,35.7-16,35.7-35.7
			C86.7,31.3,70.7,15.3,51,15.3z"/>
		<path fill="#FFFFFF" d="M51,38.8c-6.8,0-12.2,5.5-12.2,12.2c0,6.8,5.5,12.2,12.2,12.2c6.8,0,12.2-5.5,12.2-12.2
			C63.2,44.2,57.7,38.8,51,38.8"/>
	</g>
</g>
</svg>
