<?xml version="1.0" encoding="utf-8"?>
<!-- Generator: Adobe Illustrator 22.1.0, SVG Export Plug-In . SVG Version: 6.00 Build 0)  -->
<svg version="1.1" id="Layer_1" xmlns="http://www.w3.org/2000/svg" xmlns:xlink="http://www.w3.org/1999/xlink" x="0px" y="0px"
	 viewBox="0 0 102 102" enable-background="new 0 0 102 102" xml:space="preserve">
<g>
	<g>
		<g>
			<path id="path-0_1_" fill="#5E83BC" d="M6.6,1h88.9c3.1,0,5.5,2.5,5.5,5.5v89c0,3.1-2.4,5.5-5.5,5.5H6.6C3.4,101.1,1,98.5,1,95.6
				V6.5C1,3.5,3.4,1,6.6,1z"/>
		</g>
	</g>
	<g>
		<path fill="#F7E862" d="M86,52.6c-0.1,0-0.1,0-0.2,0c0-0.7-0.5-1-0.9-1.4c-0.4-0.6-1-0.9-2-0.9c-0.1,0-0.1,0-0.2,0
			c0-0.4,0.3-0.4,0.3-0.9c0.3-0.4,0.7-0.9,0.9-1.5c0.3-0.3,0.3-0.8,0.5-1.1c0-0.1,0-0.2,0-0.3c0.3-0.5,0.4-1.1,0.4-2
			c0.3-0.6,0.3-2.2-0.3-2.5c0-0.2,0-0.3-0.2-0.3c-0.3-0.8-0.9-1.3-1.8-1.4c0-0.2-0.2-0.1-0.3-0.2c0-0.3-0.5-0.1-0.7-0.2
			c0-0.1,0-0.1,0-0.2c-0.3-0.3-1-0.1-1.5-0.2c0.1-0.1,0.2-0.3,0.2-0.5c0.1-0.6,0.3-0.9,0.4-1.5c0.3-0.3,0.1-1,0.4-1.3
			c0.3-0.3,0.3-1.7,0-2c-0.4,0.1,0.1-0.8-0.3-0.7c-0.3,0,0-0.6-0.4-0.6c-0.1-0.7-0.5-0.9-1.1-1.1c-0.3-0.3-0.6-0.6-1.3-0.6
			c-0.1-0.3-0.7-0.1-0.9-0.2c-0.6-0.2-2.2-0.3-2.6,0.2c-0.1,0-0.2,0-0.3,0c-0.2,0-0.3,0-0.4,0c0-0.4,0.2-0.7,0.3-0.9
			c-0.1-0.4,0.2-0.3,0.2-0.7c0.3-0.2,0.1-0.9,0.4-1.1c0.3-0.4,0.3-1.8,0-2.2c-0.1-0.4-0.1-0.9-0.4-0.9c-0.1-0.3-0.2-0.6-0.4-0.7
			c-0.2-0.1-0.3-0.3-0.4-0.3c-0.2-0.3-0.4-0.7-1.1-0.6c0-0.3-0.3-0.3-0.7-0.3c0-0.1,0-0.1,0-0.2c-0.6-0.3-2-0.4-2.8-0.2
			c0,0.1,0,0.1,0,0.2c-0.6-0.1-1,0.1-1.5,0.2c-0.3,0-0.6,0-0.9,0c0-0.3,0-0.5,0-0.9c0-0.7,0-1.3,0-2c0-0.3,0.1-0.9-0.3-0.9
			c-0.5-0.9-1.3-1.5-2.5-1.6c0-0.1,0-0.1,0-0.2c-0.6-0.3-2.1-0.3-2.8,0c-0.3,0.3-1.1,0.1-1.4,0.4c-0.9,0.1-1.3,0.5-2,0.6
			c-0.1,0-0.2,0-0.3,0c-0.6-0.1-0.1-2.6-0.7-1.8c-0.2,0-0.1-0.2-0.2-0.3c-0.2-0.6-0.6-0.9-1.1-1.1c-0.2,0-0.3,0-0.4,0
			c0-0.2-0.3-0.1-0.3-0.3c-0.9,0-1.8,0-2.6,0c-0.6,0.3-1.7,0.3-2.2,0.7c-0.4,0-0.6,0.3-1.1,0.3c-0.8,0.3-1.6,0.6-2.4,0.9
			c-0.5,0.3-1.2,0.4-1.5,0.9c-0.5,0-0.9,0.1-0.9,0.4c-0.4,0.3-1,0.3-1.3,0.9c-1.6,0.5-2.6,1.6-3.9,2.4c0,0.3-0.3,0.3-0.6,0.4
			c-0.3,0.2-0.7,0.2-0.9,0.6c-0.3,0.4-1,0.6-1.4,1.1c0,0.1,0,0.1,0,0.2c-0.7,0.3-1.2,0.8-1.6,1.3c-0.4,0.3-0.8,0.8-1.3,0.9
			c-0.4,0.3-0.7,0.8-1.1,0.9c-0.3,0.3-0.6,0.5-0.9,0.7c-1,0.7-1.9,1.6-2.6,2.5c-0.3,0.3-0.5,0.6-0.9,0.9c-0.9,0.8-1.7,1.6-2.4,2.6
			c-0.4,0.6-0.9,1.1-1.4,1.7c-0.1,0.2-0.3,0.3-0.3,0.4c-0.4,0.3-0.7,0.7-0.9,1.1c-0.3,0.7-0.9,1-1.1,1.6c-0.1,0-0.2,0.2-0.3,0.2
			c-0.5,0.4-0.2-1-0.3-1.5c0-0.3,0-0.4,0-0.7c0.3-0.5,0.5-1.3,0.7-2c0.5-0.6,0.7-1.4,1.1-2c0.4-0.2,0.5-0.7,0.7-1.1
			c0.3-0.6,0.8-1,0.9-1.7c0.1,0,0.1,0,0.2,0c0.5-0.3,0.5-0.9,0.9-1.3c0-0.3,0.3-0.3,0.4-0.5c0.3-0.1,0.4-0.3,0.5-0.5
			c0.5-0.4,1-0.9,1.4-1.4c0.4-0.7,1.2-1,1.7-1.6c1-0.8,2-1.7,3.1-2.4c0.4-0.3,0.9-0.5,1.3-0.9c0.3-0.2,0.6-0.3,0.9-0.5
			c0.5-0.3,1.1-0.7,1.6-0.9c0.3-0.1,0.7-0.3,0.9-0.5c0.1,0,0.1,0,0.2,0c0.5,0,0.8-0.3,0.9-0.5c0.8-0.3,1.4-0.6,2-0.9
			c0.4-0.2-0.2-0.5,0-0.9c-0.3-0.3-1,0-1.1,0.3c-0.4,0.3-1.2,0.3-1.5,0.7c-0.3,0-0.5,0-0.6,0.3c-0.6,0.2-1.2,0.4-1.5,0.9
			c-0.2,0.2-0.5,0.2-0.6,0.4c-1,0.2-1.5,0.9-2.4,1.3c-0.6,0.4-1.2,0.9-1.8,1.3c-0.6,0.3-1.2,0.8-1.6,1.3c-0.8,0.7-1.7,1.3-2.4,2
			c-0.1,0-0.1,0-0.2,0c-0.2,0.1-0.3,0.3-0.4,0.3c-0.6,0.4-1.1,0.9-1.5,1.5c-0.1,0.2-0.3,0.3-0.3,0.4c0,0.1,0,0.1,0,0.2
			c-0.3,0.1-0.4,0.3-0.6,0.6c-0.6,0.8-1.2,1.5-1.8,2.2c-0.4,0.3-0.8,0.7-0.9,1.3c-0.2,0.8-0.8,1-0.9,1.7c-0.8,1.4-1.5,2.9-2,4.7
			c-0.2,0-0.1,0.3-0.2,0.5c-0.4,0.3-0.4,2.3,0,2.5c-0.1,0.5,0.2,0.8,0.3,1.1c0.6,0.8-0.2,1.4-0.4,2c0,0.3-0.2,0.3-0.2,0.5
			c-0.4,0.2-0.5,0.6-0.6,1.1c-0.3,0.2-0.4,0.6-0.4,1.1c-0.3,0.7-0.3,1.4-0.6,2c0,0.9,0,1.7,0,2.5c0.3-0.1-0.1,0.7,0.3,0.6
			c0.1,0.3,0.3,0.5,0.3,0.9c0.2,0.5,0.4,0.9,0.9,1.1c0,0.1,0,0.1,0,0.2c0.3,0.3,0.7,0.6,1.1,0.9c0.4,0.3-0.4,0.9,0,1.3
			c0,0.2-0.2,0.2-0.2,0.4c-0.3,0.3-0.3,0.9-0.4,1.3c0,0.2,0,0.3,0,0.4c-0.4,0,0.1,0.9-0.3,0.9c-0.3,0.3-0.3,1.4,0,1.6
			c0.2,0,0.1,0.3,0.2,0.4c0.3,0.7,0.3,1.6,0.9,2c0,0.3,0.1,0.3,0.3,0.4c0.3,0.5,0.7,0.9,1.1,1.3c0.3,0.1,0.4,0.3,0.7,0.4
			c0.5,0.5,1.5,0.5,2.2,0.9c-0.1,0.3,0.2,0.9-0.2,0.9c-0.3,0.4-0.3,1.8,0,2.2c0.3,0.2,0,0.9,0.4,0.9c0,0.2,0,0.4,0.2,0.4
			c0,0.5,0.2,0.9,0.5,1.1c0,0.4,0.3,0.5,0.4,0.9c0.5,0.8,1.3,1.2,2,1.7c0.1,0,0.2,0,0.3,0c0.1,0.6,1.3,0.1,1.5,0.5
			c0.3,0.3,1.4,0.1,2,0.2c0.1,0.3-0.2,1.1,0.2,1.3c0.3,0.3,0.2,0.8,0.3,1.1c0,0.5,0.3,0.9,0.6,1.1c0.3,0.3,0.3,0.7,0.7,0.9
			c0,0.1,0,0.2,0.2,0.2c0.3,0.5,0.9,0.9,1.5,1.1c0.2,0.3,0.6,0.4,1.1,0.4c0.2,0,0.3,0,0.4,0c0,0.1,0,0.1,0,0.2
			c0.7,0.3,2.2,0.4,3.1,0.2c0.6,0,1.4,0.2,1.5-0.3c0.5-0.1,0.8,0.1,0.9,0.3c0,0.1,0,0.2,0,0.3c0.6,1.1,1.4,2,2.5,2.5
			c0.6,0,0.8,0.5,1.4,0.6c0.3,0.1,0.7,0.1,0.9,0.3c0.8,0,1.5,0,2.4,0c0.8-0.3,1.9-0.2,2.5-0.6c0.6,0,0.9-0.3,1.3-0.4
			c1.5-0.4,2.1,0.9,3.7,0.9c0.1,0,0.2,0,0.2,0.2c0.9,0,1.9,0,2.8,0c0-0.2,0.4-0.1,0.4-0.3c0.3,0,0.4,0,0.7,0c0.7-0.2,1.3-0.4,2-0.6
			c0.5,0,0.9-0.1,1.1-0.4c0.5-0.3,1-0.5,1.6-0.7c0.6-0.3,1.3-0.5,1.8-0.9c0.3-0.1,0.4-0.4,0.9-0.4c0.9-0.4,1.7-1,2.5-1.5
			c0.6-0.2,0.9-0.7,1.4-0.9c0.5-0.5,1.1-1,1.8-1.4c0.9-0.7,1.7-1.5,2.6-2.2c1-0.9,1.8-1.8,2.6-2.8c0.5-0.6,1.1-1.1,1.5-1.8
			c0.9-1.3,1.8-2.6,2.6-3.9c0.5-0.9-0.9-0.9-0.9,0c-0.3,0.1-0.3,0.4-0.6,0.5c-0.3,0.1-0.3,0.6-0.6,0.9c-0.3,0.3-0.6,0.7-0.9,1.1
			c-0.4,0.4-0.8,0.9-1.1,1.3c-1.3,0.9-2.3,2-3.3,3.1c0,0.1-0.2,0.2-0.2,0.3c-0.3,0.1-0.4,0.3-0.5,0.5c-0.4,0.3-0.8,0.8-1.3,0.9
			c-0.4,0.4-1,0.7-1.4,1.1c-0.8,0.5-1.4,1.1-2.4,1.5c-0.7,0.4-1.4,0.8-2,1.3c-0.8,0.5-1.8,0.7-2.5,1.3c-0.3-0.1-0.3,0.1-0.5,0.2
			c-0.6,0-1.1,0.2-1.3,0.5c-0.6,0.2-1.3,0.3-1.8,0.5c-0.5-0.1-0.8,0.1-1.1,0.2c-0.5-0.3-1.6-0.1-2.4-0.2c-0.3-0.7,1.3-0.6,1.5-1.3
			c0.2-0.2,0.4-0.3,0.6-0.4c0.6,0.1,0.8-0.3,0.9-0.5c0.9-0.2,1.3-0.9,2-1.1c0.4-0.3,1.2-0.4,1.5-0.9c0.2-0.2,0.5-0.1,0.4-0.4
			c0.5-0.3,1.1-0.5,1.4-0.9c1.5-0.7,2.5-2,3.9-2.8c0.5-0.2,0.9-0.6,1.1-0.9c0.4-0.2,0.4-0.7,0.9-0.7c0.5-0.3,1-0.7,1.4-1.3
			c0.3-0.2,0.4-0.5,0.9-0.7c2.1-1.5,3.9-3.4,5.5-5.5c0-0.3,0.3-0.3,0.4-0.5c0.9-1.2,2-2.1,2.6-3.5c0.4-0.3,0.7-0.7,0.9-1.3
			c0.4-0.3,0.7-0.8,0.9-1.4c0.4-0.2,0.5-0.6,0.7-0.9c0-0.3,0.1-0.4,0.3-0.6c0.6-0.5,0.5-1.7,0.9-2.5C86.2,54.1,86.2,52.8,86,52.6z
			 M79.7,52.8c-0.1,0-0.1,0-0.2,0c-0.3,0.8-1,1.3-1.5,2c-0.9,0.4-1.4,1.1-2,1.8c-0.3,0.4-0.7,0.8-1.1,1.1c-0.9,0.7-1.5,1.4-2.2,2.4
			c-1.1,1-2.4,2-3.5,3.1c-0.6,0.4-1.1,1-1.8,1.4c-0.1,0-0.1,0-0.2,0c-0.2,0.6-0.9,0.4-1.1,0.9c-1.1,0.9-2.3,1.9-3.6,2.6
			c-0.1,0-0.1,0-0.2,0c-0.5,0.5-1.1,0.9-1.7,1.3c-0.3,0.2-0.6,0.3-0.9,0.5c-0.1,0-0.1,0-0.2,0c-0.3,0.4-0.8,0.5-1.1,0.9
			c-0.3-0.2-1,0.4-0.4,0.4c-0.3,0.4-0.9,0.4-1.4,0.7c-0.1,0.1-0.3,0.2-0.4,0.2c0.1-0.3,0.3-0.4,0.4-0.7c0-0.3,0.1-0.3,0.3-0.4
			c0.3-0.7,0.9-0.9,1.1-1.6c0.2-0.3,0.5-0.5,0.6-0.9c0.3-0.7,0.9-0.9,1.3-1.4c0.5-0.4,0.8-1,1.3-1.5c0.3-0.2,0.5-0.4,0.7-0.7
			c1.3-1,2.5-2.1,3.5-3.5c0.7-0.6,1.4-1.2,2-1.8c0.2-0.1,0.3-0.3,0.4-0.3c0.7-0.8,1.6-1.2,2.2-2c0.4-0.2,0.7-0.6,1.1-0.7
			c0.9-0.8,2-1.4,3.1-2c0.3-0.2,0.9-0.1,0.9-0.5c0.3-0.2,0.9-0.2,0.9-0.6c0.7-0.3,1.3-0.5,1.8-0.9c0.7-0.1,0.7-0.8,1.6-0.5
			c0.3,0,0.4,0,0.7,0c0,0.2-0.2,0.2-0.2,0.4C80.1,52.4,80,52.7,79.7,52.8z M82.9,41.2c0.6,0.4,0.9,0.9,1.1,1.8c0,0.7,0,1.4,0,2
			c-0.1,0.8-0.3,1.5-0.5,2c-0.4-0.1-0.3,0.4-0.4,0.7c-0.1,0.7-0.5,1-0.9,1.5c-0.8,1.8-3.8,1.3-5.1,2.5c-0.4,0-0.4,0.3-0.9,0.3
			c-0.9,0.5-1.9,0.9-2.8,1.5c-0.5,0.3-0.8,0.7-1.4,0.9c-0.1,0-0.1,0-0.2,0c-0.5,0.6-1.4,0.9-2,1.4c0,0.3-0.5,0.2-0.5,0.5
			c-1.2,0.5-2,1.4-2.9,2c-1.2,1-2.6,2-3.6,3.1c-0.1,0-0.1,0-0.2,0c-0.2,0.1-0.3,0.3-0.4,0.3c-0.9,0.9-1.8,1.7-2.6,2.6
			c-0.1,0.2-0.3,0.3-0.3,0.4c0,0.1,0,0.1,0,0.2c-0.6,0.4-1.1,1-1.5,1.7c-0.8,1.1-1.7,2-2.4,3.1c-0.1,0-0.1,0-0.2,0
			c-0.3,0.7-0.9,1.1-1.1,2c-0.4,0.2-0.5,0.6-0.7,0.9c-0.2,0.2-0.4,0.3-0.4,0.7c-0.3,0.8-1.2,0.9-1.8,1.3c-0.4,0.1-0.9,0.3-1.1,0.5
			c-0.1,0.2-0.3,0.3-0.6,0.3c-0.3,0.3-0.9,0.1-0.9,0.6c-0.5-0.1-0.5,0.3-0.9,0.3c-0.3,0.2-0.9,0.3-1.1,0.5c-0.1,0-0.2,0-0.3,0
			c-0.5,0-0.9,0.1-1.1,0.4c-0.1,0-0.2,0.1-0.2,0.2c-0.3,0.1-0.6,0.1-0.7,0.3c-0.2,0-0.3,0-0.6,0c-0.2,0-0.3,0-0.4,0c0-0.7,0-1.4,0-2
			c0.3-0.3,0.3-0.9,0.4-1.4c-0.1-0.4,0.2-0.3,0.2-0.7c0.3-0.1,0.5-0.3,0.4-0.9c0-0.3,0.2-0.3,0.2-0.5c0.4-0.3,0.5-1,0.9-1.5
			c-0.1-0.3,0.1-0.3,0.3-0.3c0.5-0.2,1-0.3,1.3-0.7c0.4-0.1,0.7-0.3,0.9-0.6c0.4,0.1,0.3-0.3,0.7-0.3c0.9-0.6,2-0.9,2.6-1.7
			c0.5-0.2,1.2-0.3,1.4-0.7c0.4-0.4,1.1-0.5,1.5-0.9c0.9-0.4,1.4-1,2.2-1.5c0.3-0.3,0.9-0.4,1.1-0.9c0.1,0,0.2-0.2,0.3-0.2
			c0.5-0.2,0.9-0.6,1.3-0.9c1.2-0.8,2.2-1.7,3.3-2.5c0.1,0,0.1,0,0.2,0c0.6-0.9,1.8-1.3,2.4-2.2c0.1,0,0.1,0,0.2,0
			c0.2-0.3,0.6-0.4,0.9-0.7c0.8-0.7,1.5-1.4,2.4-2c0.2-0.1,0.3-0.3,0.4-0.3c1.3-1.3,2.6-2.4,3.7-3.9c0.6-0.7,1.2-1.4,1.8-2
			c0.8-1.2,1.8-2,2.5-3.3c0.5-0.1,0.6-0.6,0.9-0.9c0-0.3,0.1-0.3,0.3-0.4c0.3-0.6,0.9-1,0.9-1.8c0.3,0,0.3-0.3,0.4-0.5
			c0.3,0,0.2-0.5,0.4-0.6c0.1,0,0.2,0,0.3,0c0.8,0,1.4,0,2.2,0C82.5,40.8,82.6,41.2,82.9,41.2z M51.5,78.9c-0.1,0-0.1,0-0.2,0
			c-0.4,0.7,0.1,2.2-0.3,2.9c-0.5-0.1-0.7,0.3-1.3,0.2c-0.5,0-1.1,0-1.7,0c-0.2,0-0.3,0-0.4,0c0-0.1,0-0.1,0-0.2
			c-0.5-0.1-0.8-0.3-1.4-0.3c-0.3-0.1-0.6-0.2-0.9-0.4c-0.1-0.2-0.3-0.2-0.4-0.3c0-0.3-0.5-0.3-0.4-0.7c0.4-0.1,0.9-0.1,0.9-0.4
			c0.9-0.4,2-0.6,2.6-1.3c0-0.2,0.2-0.1,0.3-0.2c1.3-0.3,2.1-0.9,3.1-1.4c0.1,0.3,0,0.5-0.2,0.7C51.8,78.3,51.5,78.4,51.5,78.9z
			 M63.3,50.8c0.2-0.3,0.4-0.5,0.7-0.7c0.6-0.2,0.8-0.9,1.4-1.1c0.1,0,0.1,0,0.2,0c0.2-0.6,0.9-0.4,1.1-0.9c0-0.1,0-0.1,0-0.2
			c0.4-0.3,0.9-0.4,1.3-0.9c0.5-0.2,0.7-0.7,1.3-0.9c0.4-0.3,0.9-0.6,1.4-0.9c0.3-0.2,0.9-0.1,0.9-0.5c0.2-0.1,0.3-0.3,0.4-0.4
			c0.5-0.1,0.9-0.3,1.1-0.5c0.3,0,0.2-0.3,0.6-0.3c0.9-0.3,1.6-0.9,2.5-1.3c0.5,0,0.9-0.2,1.1-0.6c0.1,0,0.2,0,0.3,0
			c0.1-0.2,0.5,0,0.5-0.3c0.3,0.4-0.5,0.8-0.5,1.3c-0.2,0.1-0.2,0.3-0.3,0.4c-0.4,0.5-0.9,1.1-1.3,1.7c-0.2,0.3-0.3,0.6-0.5,0.7
			c-0.5,0.4-0.8,1-1.3,1.5c-0.3,0.1-0.4,0.3-0.6,0.5c-1.6,1.4-3.1,2.8-4.4,4.4c-0.3,0.3-0.6,0.5-0.9,0.9c-0.3,0.3-0.9,0.5-1.1,0.9
			c-0.8,0.6-1.4,1.4-2.4,2c-0.1,0-0.1,0-0.2,0c-0.1,0.4-0.7,0.4-0.9,0.9c-0.9,0.6-1.6,1.4-2.6,2c-0.4,0.2-0.7,0.5-0.9,0.9
			c-0.1,0-0.2,0.2-0.3,0.2c-0.4,0.2-0.9,0.3-0.9,0.9c-0.2-0.2-0.3,0-0.5,0c-0.1,0-0.1,0-0.2,0c-0.3,0.4-0.8,0.5-1.1,0.9
			c-0.5,0.2-0.9,0.4-1.1,0.9c-1.2,0.8-2.4,1.5-3.6,2.2c-0.1,0-0.1,0-0.2,0c0,0.4-0.7,0.2-0.7,0.6c-0.3,0.2-0.7,0.4-1.1,0.6
			c-0.3,0.1-0.7,0.3-0.9,0.5c-0.3,0-0.2,0.3-0.6,0.3c-0.4,0-0.4,0.3-0.9,0.3c0.1-0.6,0.6-0.8,0.9-1.3c0.1,0,0.1,0,0.2,0
			c0.3-0.4,0.5-0.9,0.9-1.3c0.2-0.5,0.7-0.7,0.9-1.3c0.3-0.3,0.6-0.5,0.9-0.9c0-0.3,0.3-0.3,0.4-0.5c0.1,0,0.1,0,0.2,0
			c0.4-0.6,0.9-1.1,1.4-1.7c0.9-0.5,1.4-1.2,2-2c0.7-0.8,1.4-1.5,2.2-2.2c0.7-0.6,1.4-1.3,2-2c0.4-0.4,1-0.7,1.4-1.3
			c0.2-0.1,0.3-0.3,0.4-0.4c0.5-0.3,0.9-0.8,1.4-1.1C63.2,50.8,63.2,50.8,63.3,50.8z M67.2,39.1c-2,1.6-3.7,3.4-5.4,5.4
			c-0.6,0.6-1.3,1-1.8,1.7c-0.2,0.1-0.3,0.3-0.4,0.3c-0.1,0-0.1,0-0.2,0c-1,1.3-2.6,2.1-3.7,3.1c0,0.3-0.3,0.3-0.5,0.4
			c-0.1,0-0.1,0-0.2,0c0,0.5-1.3,0.6-0.9,0.9c0.1-0.2,0.3-0.2,0.4-0.3c0,0.3-0.3,0.3-0.5,0.4c-0.9,0.3-1.3,0.9-2,1.3
			c-0.8,0.6-1.5,1-2.2,1.6c-0.4,0.2-0.9,0.4-1.3,0.7c-0.7,0.7-1.8,0.9-2.4,1.7c-0.6,0.1-1.1,0.4-1.4,0.9c-0.5-0.1-0.6,0.3-0.9,0.4
			c-0.4,0.3-1,0.3-1.3,0.7c-0.3,0.1-0.6,0.2-0.7,0.4c-0.3,0-0.3,0.2-0.4,0.2c-0.1,0-0.2,0-0.3,0c0-0.3,0.2-0.3,0.2-0.4
			c0.1-0.2,0.2-0.3,0.3-0.5c0.1,0,0.1,0,0.2,0c0.3-0.5,0.8-0.9,1.1-1.4c0.3-0.3,0.3-0.7,0.7-0.9c0.9-0.9,1.6-2,2.5-2.9
			c0.3-0.2,0.5-0.4,0.7-0.7c1.7-1.4,3.1-2.9,4.6-4.4c0.2-0.3,0.5-0.4,0.7-0.9c0.3-0.3,0.6-0.5,0.9-0.9c1-0.8,2-1.6,2.9-2.5
			c0.1,0,0.1,0,0.2,0c0.6-0.8,1.5-1.3,2.2-2c0.6-0.6,1.4-1,2-1.6c0.4,0,0.7-0.1,0.9-0.4c0.7-0.8,1.8-1.1,2.5-2
			c0.3-0.1,0.4-0.4,0.9-0.4c0.8-0.6,1.8-1.1,2.6-1.6c0.6-0.1,0.7-0.6,1.3-0.7c0.9-0.6,2.1-0.9,2.9-1.5c0.1,0,0.2,0,0.3,0
			c0.2,0,0.3,0,0.3,0.3c-0.1,0.3-0.3,0.4-0.4,0.7c-0.5,0.9-1.2,1.7-1.8,2.5C68.6,37.6,67.9,38.4,67.2,39.1z M70.9,32.5
			c-0.5,0.3-1.4,0.3-1.8,0.9c-0.4,0-0.4,0.3-0.9,0.3c-0.7,0.3-1.4,0.5-1.8,0.9c-0.1,0.1-0.3,0.2-0.4,0.2c-0.5,0.1-0.9,0.3-1.1,0.7
			c-0.3,0-0.2,0.3-0.6,0.3c-0.5,0.2-0.9,0.6-1.4,0.9c-0.4-0.1-0.6,0.2-0.7,0.4c-0.9,0.6-1.7,1.1-2.5,1.7c-0.4,0.4-0.9,0.8-1.5,1.1
			c-0.1,0-0.1,0-0.2,0c-0.8,0.8-1.8,1.3-2.6,2c-1,0.9-2.2,1.7-3.1,2.8c-0.5,0.3-1,0.6-1.4,1.1c-0.5,0.4-1,0.9-1.5,1.3
			C47,48.8,44.8,51,43,53.4c-0.2,0.3-0.5,0.4-0.7,0.9c-0.4,0.3-0.8,0.6-0.9,1.1c-0.4,0.6-0.9,0.9-1.3,1.6c-1.9,1.4-2.4,4.3-4.9,5
			c-0.6,0-1.9,0.5-2.6,0.9c-0.7-0.1-0.9,0.3-1.5,0.3c-0.7,0-1.1,0.3-1.8,0.3c-0.5,0-1,0-1.5,0c-0.1-0.3,0.4-0.6,0-0.7
			c0.1-0.1,0.2-0.3,0.2-0.4c0.4-0.3,0.7-0.9,0.7-1.5c0.2-0.1,0-0.5,0.3-0.5c0.3-0.2,0.3-0.6,0.4-0.9c0.3-1.2,1.1-1.9,1.5-2.9
			c0.3-0.2,0.6-0.3,0.6-0.9c0-0.3,0.5-0.3,0.4-0.7c0.3-0.3,0.9-0.3,1.1-0.7c0.9-0.3,1.5-0.9,2.4-1.1c0.5,0,0.8-0.3,0.9-0.5
			c0.3,0,0.5-0.3,0.7-0.4c0.5-0.3,1-0.6,1.5-0.9c0.7-0.3,1.4-0.7,1.8-1.3c0.4,0.1,0.3-0.3,0.7-0.3c0.8-0.6,1.8-1,2.5-1.8
			c0.7-0.4,1.4-0.8,2-1.4c0.9-0.4,1.6-0.9,2.2-1.7c1.4-0.7,2.2-1.9,3.5-2.6c0.1,0,0.1,0,0.2,0c0.3-0.3,0.5-0.6,0.9-0.9
			c0.6-0.2,0.8-0.6,1.1-0.9c0.3-0.1,0.3-0.4,0.7-0.5c1.2-0.8,2.1-1.8,3.1-2.8c0.1-0.3,0.3-0.4,0.6-0.6c0.9-0.8,1.8-1.6,2.5-2.6
			c0.3-0.4,0.6-0.8,0.9-1.1c0.1-0.2,0.3-0.3,0.3-0.4c0.1,0,0.1,0,0.2,0c0.3-0.5,0.8-0.7,0.9-1.3c0.1-0.2,0.2-0.3,0.3-0.6
			c0.1,0,0.1,0,0.2,0c0.3-0.3,0.6-0.7,0.9-1.1c0.1-0.2,0.2-0.3,0.3-0.5c0.5-0.3,0.6-0.9,0.9-1.3c0.4-0.2,0.5-0.7,0.7-1.1
			c0.2-0.3,0.3-0.8,0.6-1.1c0.2-0.8,1.4-0.6,2-0.9c0.3,0,0.4-0.3,0.9-0.2c0.9,0,1.9,0,2.8,0c0.4,0.1,0.8,0.3,1.1,0.4
			c0.3,0.3,0.8,0.6,0.9,0.9c0.2,0.9,0.3,1.7,0.3,2.8c0,0.1,0,0.2,0,0.3c-0.3,0.1-0.5,0.9-0.3,1.1c0,0.4,0,0.7-0.3,0.9
			c-0.5,0.3-0.5,1.1-1.1,1.4C71.5,32.2,71.4,32.6,70.9,32.5z M33.9,65.5c-0.1,0.3-0.3,0.5-0.3,0.9c-0.1,0-0.1,0-0.2,0
			c-0.3,0.7-0.8,1.2-0.9,2c-0.2,0-0.1,0.2-0.2,0.3c-0.2,0.2-0.2,0.5-0.3,0.7c-0.1,0-0.1,0-0.2,0c-0.1,0.3-0.3,0.6-0.3,1.1
			c0,0.5-0.3,0.7-0.3,1.1c-0.2,0.8-1.2,0.3-1.7,0.2c-0.1,0-0.2,0-0.3,0c0-0.1,0-0.1,0-0.2c-0.9-0.3-1.5-0.9-2-1.6
			c-0.1-0.1-0.2-0.3-0.2-0.4c-0.2-0.3-0.3-0.7-0.3-1.3c0-0.6,0-1.2,0-1.8c0.6,0,1.1-0.1,1.5-0.3c1.1-0.3,2.4-0.3,3.1-0.9
			c0.8,0,1.4-0.3,1.8-0.6c0.2,0,0.3,0,0.4,0c0.6,0,0.1,0.3,0.2,0.6c0,0.1,0,0.1,0,0.2C33.9,65.5,33.9,65.5,33.9,65.5z M24.8,56.2
			c-0.3,0.1-0.7,0.2-1,0.3C24.1,56.4,24.4,56.3,24.8,56.2L24.8,56.2z M25.8,56c-0.2,0.1-0.3,0.1-0.5,0.2
			C25.4,56.1,25.6,56.1,25.8,56z M50,34.5c0.1,0,0.1,0,0.2,0c0.3-0.7,1.1-0.6,1.4-1.3c0.7-0.7,1.6-1,2.2-1.8
			c0.7-0.3,1.2-0.7,1.8-1.1c0.2-0.5,1-0.3,1.3-0.9c0.4-0.3,0.9-0.5,1.3-0.9c1.4-0.6,2.6-1.4,3.9-2c0-0.2,0.2-0.1,0.3-0.2
			c0.3-0.2,0.9-0.2,0.9-0.5c0.3-0.1,0.8-0.1,0.9-0.4c0.7-0.1,0.6,0.2,0.4,0.5c-1,0.9-1.4,2.5-2.5,3.3c-0.1,0-0.1,0-0.2,0
			c-0.5,1-1.4,1.6-2,2.5c-0.3,0.1-0.3,0.4-0.7,0.6c-1.1,0.9-2,2.1-3.1,3.1c-0.5,0.4-1,0.9-1.4,1.4c-0.1,0.2-0.3,0.3-0.3,0.4
			c-0.5,0.5-1.2,0.9-1.7,1.5c-0.7,0.5-1.3,1.2-2,1.7c-0.4,0.3-1.1,0.6-1.4,1.1c-0.1,0-0.1,0-0.2,0c-0.2,0.6-0.9,0.4-1.1,0.9
			c-1.8,1.4-3.6,2.7-5.5,3.9c-0.1,0-0.1,0-0.2,0c-0.1,0.3-0.6,0.3-0.7,0.7c-0.8,0.3-1.3,0.9-2,1.1c-0.4,0.1-0.9,0.2-0.9,0.6
			c-0.5,0.2-0.9,0.5-1.3,0.9c-0.9,0.1-1.5,0.6-2.2,0.9c-0.2,0-0.4,0-0.4-0.2c0.3-0.9,1-1.4,1.5-2c0.1,0,0.1,0,0.2,0
			c0.2-0.5,0.6-0.7,0.9-1.1c0.3-0.3,0.3-0.7,0.7-0.9c0.3-0.3,0.9-0.5,0.9-1.1c0.6-0.3,0.9-1,1.4-1.5c2-1.7,3.9-3.6,5.7-5.7
			c0.4-0.4,1-0.7,1.4-1.3c0.6-0.6,1.3-1.1,2-1.7C49.4,35.1,49.8,34.9,50,34.5z M58.4,19.9c0.6-0.3,1.5-0.1,2-0.5c0.1,0,0.1,0,0.2,0
			c1.2,0,2.3,0,3.5,0c0.6-0.1,0.7,0.4,1.3,0.4c0.1,0.6,0.4,0.9,0.4,1.6c0,0.4,0,0.9,0,1.4c0,0.1,0,0.1,0,0.1l0,0V23c0,0,0,0,0,0.1
			c0,0,0,0,0,0.1c0,0,0,0,0,0.1c0,0,0,0,0,0.1l0,0c0,0,0,0,0,0.1l0,0c0,0,0,0,0,0.1l0,0c0,0,0,0,0,0.1l0,0c0,0,0,0,0,0.1l0,0
			c0,0,0,0,0,0.1c0,0,0,0,0,0.1l0,0l0,0l0,0c0,0,0,0,0,0.1l0,0c0,0,0,0,0,0.1l0,0c0,0,0,0,0,0.1l0,0v0.1l0,0l0,0l0,0
			c0,0.1-0.1,0.1-0.2,0.2c-0.2,0.1-0.4,0.1-0.6,0.2l0,0c-0.1,0-0.1,0-0.2,0.1c0,0,0,0-0.1,0c0,0-0.1,0-0.1,0.1c0,0,0,0-0.1,0
			c0,0-0.1,0-0.1,0.1c0,0,0,0-0.1,0s-0.1,0.1-0.1,0.1c-0.2,0-0.3,0-0.4,0c-0.4-0.1-0.4,0.3-0.7,0.3c-0.4,0.1-0.9,0.1-0.9,0.4
			c-0.6,0.2-1.1,0.3-1.5,0.7c0,0.2-0.2,0.1-0.3,0.2c-0.4,0.1-0.8,0.3-0.9,0.5c-0.3,0.1-0.6,0.2-0.7,0.4c-0.2,0.1-0.3,0.2-0.6,0.3
			c-0.4,0.1-0.9,0.2-0.9,0.6c-0.6,0.4-1.1,0.9-1.8,1.1c-0.1,0-0.1,0-0.2,0c-0.5,0.6-1.3,0.9-2,1.4c-0.4,0.2-0.9,0.3-0.9,0.9
			c-0.9,0.3-1.3,1-2,1.4c-0.1,0-0.1,0-0.2,0c-0.2,0.6-0.9,0.4-1.1,0.9c-0.1,0.3-0.5,0.3-0.7,0.6c-0.1,0-0.1,0-0.2,0
			c-0.1,0.4-0.7,0.4-0.9,0.9c-0.8,0.6-1.4,1.4-2.4,2c-0.1,0-0.1,0-0.2,0c-0.4,0.8-1.3,1.1-1.8,1.8C43,39,43,39,43,39
			c-2.3,1.8-4.4,3.8-6.2,6.2c-0.2,0.3-0.5,0.4-0.7,0.9c-0.4,0.3-0.9,0.7-1.1,1.3c-0.2,0.4-0.7,0.6-0.9,0.9c-0.3,0.5-0.7,0.9-0.9,1.3
			c-0.6,0.7-1.3,1.4-1.7,2.2c-0.1,0-0.1,0-0.2,0c-0.3,0.2-0.6,0.4-0.7,0.9c-0.1,0-0.2,0-0.3,0c-1.1,0.3-2.3,0.7-3.7,0.7
			c-0.4,0.1-1.2-0.2-1.4,0.2c-0.3,0-0.8,0-1.1,0c-0.3,0.1-0.5,0-0.7-0.2c-0.2-0.5,0.3-0.4,0.3-0.9c0-0.2,0-0.3,0.2-0.3
			c0.3-0.3,0.5-0.4,0.5-0.9c0.1-0.2,0.2-0.3,0.3-0.5c0.4-0.2,0.5-0.7,0.7-1.1c0.2-0.4,0.3-0.9,0.7-1.1c0.4-0.3,0.6-0.8,0.9-1.3
			c0.2-0.3,0.3-0.5,0.6-0.9c0.4-0.6,0.7-1.4,1.4-1.7c0.3-0.2,0.7-0.4,1.3-0.4c0.5-0.1,1-0.2,1.3-0.6c0.3,0,0.6-0.1,0.7-0.3
			c0.1-0.2,0.3-0.3,0.6-0.3c0.4-0.3,0.9-0.3,1.3-0.7c0.2-0.2,0.5-0.2,0.6-0.4c0.9-0.2,1.4-0.6,2-1.1c0.5-0.2,1.2-0.3,1.4-0.7
			c0.4-0.3,0.9-0.5,1.3-0.9c0.3-0.3,1-0.4,1.3-0.9c0.2-0.3,0.7-0.3,0.9-0.7c0.3-0.1,0.5-0.4,0.9-0.6c0.1,0,0.1,0,0.2,0
			c0.2-0.6,0.9-0.4,1.1-0.9c0.9-0.6,1.5-1.5,2.5-2c0.1,0,0.1,0,0.2,0c0.7-0.9,1.5-1.4,2.4-2.2c0.2-0.1,0.3-0.3,0.4-0.3
			c0.5-0.4,1-0.9,1.4-1.4c0.8-0.6,1.4-1.3,2-2c0.1-0.3,0.6-0.3,0.5-0.9c0.3-0.3,0.3-0.7,0.7-0.9c0.1,0,0.1,0,0.2,0
			c0.2-0.5,0.5-0.9,0.9-1.3c0.2-0.2,0.2-0.5,0.4-0.6c0.3-0.5,0.8-0.9,0.9-1.5c0.1-0.2,0.3-0.3,0.3-0.4c0.3-0.3,0.5-0.4,0.6-0.9
			c0.1-0.1,0.2-0.3,0.2-0.6c0.5,0.1,0.1-0.8,0.6-0.9c0.6,0,1.1-0.2,1.4-0.5C58.2,20,58.3,19.9,58.4,19.9z M45.8,27.4
			c0.3-0.5,0.9-0.6,1.3-1.1c0.7-0.3,1.1-0.9,1.8-1.3c0.7-0.6,1.7-0.9,2.4-1.5c0.1-0.4,0.8-0.3,0.9-0.7c0.8-0.1,1.1-0.5,1.7-0.9
			c0.2-0.2,0.5-0.2,0.5-0.4c0.6,0.2,0.5-0.3,1.1-0.3c0,0.1,0,0.1,0,0.2c-0.3,0.3-0.4,0.6-0.6,0.9c0,0.1,0,0.2,0,0.3
			c-0.1,0-0.1,0-0.2,0c-0.2,0.3-0.3,0.5-0.5,0.9c-0.4,1-1.2,1.6-1.8,2.5c-0.3,0.1-0.4,0.3-0.5,0.6c-1.4,1-2.6,2.4-3.7,3.6
			c-0.1,0.2-0.3,0.3-0.3,0.4c-0.4,0.4-0.9,0.6-1.3,1.1c-1.4,1.4-3.1,2.5-4.6,3.7c-0.7,0.3-1.2,0.7-1.8,1.1c-1.1,0.9-2.4,1.7-3.7,2.4
			c-0.3,0.1-0.7,0.3-0.9,0.6c-0.2,0.1-0.3,0.2-0.6,0.3c-0.4,0.1-0.8,0.3-0.9,0.5c-0.4,0.2-0.8,0.4-1.3,0.6c-0.3,0.2-0.7,0.1-0.9,0.4
			c-0.4-0.1-0.3,0.2-0.7,0.2c0.1-0.1,0.2-0.3,0.2-0.4c0.5-0.6,1.1-1.1,1.5-1.8c0.3-0.2,0.5-0.4,0.7-0.7c2-1.6,3.7-3.4,5.4-5.4
			c0.3-0.3,0.7-0.6,0.9-0.9c0.9-0.8,1.9-1.5,2.8-2.4c1-0.8,1.9-1.7,2.9-2.4C45.8,27.4,45.8,27.4,45.8,27.4z M22.8,41.1
			c0.5-0.3,0.8-1,0.9-1.6c0.6-0.3,0.7-1.2,1.3-1.5c0.1,0,0.1,0,0.2,0c0.3-0.4,0.5-0.9,0.9-1.3c0.3-0.3,0.3-0.7,0.7-0.9
			c0.1,0,0.1,0,0.2,0c0.3-0.5,0.8-1,1.1-1.5c0.3-0.3,0.6-0.5,0.9-0.9c1.9-1.4,3.5-3.1,5-5c0.4-0.4,1-0.7,1.4-1.3
			c0.4-0.3,0.8-0.7,1.1-1.1c3.3-2.6,6.6-5.1,10.4-7.2c0.7-0.3,1.4-0.5,1.8-0.9c0.9-0.3,1.7-0.5,2.4-0.9c0.1,0,0.1,0,0.2,0
			c0.3,0.3,1.2,0,1.4-0.3c0.1,0,0.2,0,0.3,0c0.6,0,1.2,0,1.8,0c0.6,0.1,0.9,0.4,1.4,0.7c0,0.2,0,0.4,0.2,0.4c0,0.8,0,1.4,0,2.2
			c-0.3,0-0.7,0-0.7,0.4c-0.7,0-0.9,0.4-1.5,0.5c-0.5,0-0.8,0.3-0.9,0.6c-0.3,0.1-0.6,0.2-0.7,0.4c-0.3,0.2-0.7,0.4-1.1,0.6
			c-0.4,0.2-0.9,0.3-1.1,0.7c-1.7,1.2-3.4,2.3-5.1,3.5c-0.1,0-0.1,0-0.2,0c-0.3,0.7-1.2,0.8-1.7,1.4c-0.3,0.3-0.8,0.8-1.3,0.9
			c-0.1,0-0.1,0-0.2,0c-0.5,0.7-1.3,1-1.8,1.6c-0.2,0.1-0.3,0.3-0.4,0.3c-1.1,0.9-2.1,1.8-3.1,2.8c-2.4,1.8-4.4,4-6.4,6.2
			c-0.2,0.5-0.6,0.7-0.9,1.1c0,0.3-0.3,0.3-0.4,0.6c-0.7,0.3-0.7,1.3-1.6,1.3c-0.8,0-1.5,0-2.4,0c-0.5,0.1-0.6-0.3-1.1-0.2
			c0-0.2-0.2-0.1-0.3-0.2c-0.3-0.4-0.9-0.3-0.6-1.1C22.5,41.3,22.6,41.2,22.8,41.1z M21.5,45.3c0.4,0.3,1,0.3,1.7,0.3
			c0.3,0.5,1.6-0.3,1.7,0.4c-0.3,0.8-1.1,1.2-1.4,2c-0.1,0-0.1,0-0.2,0c-0.3,0.6-0.8,1.1-1.1,1.6c-0.3,0.3-0.6,0.5-0.7,0.9
			c0,0.1,0,0.1,0,0.2c-0.4,0.1-0.4,0.6-0.5,0.9c0,0.2-0.2,0.1-0.3,0.2c-0.3-0.3-0.6-0.8-0.7-1.4c0.1-0.4-0.2-0.3-0.2-0.7
			c0-0.7,0-1.3,0-2c0.2-0.6,0.2-1.3,0.4-1.8c0-0.5,0.3-0.7,0.4-1.1C21,45.1,21.2,45.2,21.5,45.3z M24.4,63c-0.3-0.1-0.6-0.2-0.9-0.3
			c-0.4-0.4-0.9-0.6-1.3-1.1c0-0.1-0.1-0.2-0.2-0.2c-0.1-0.4-0.4-0.6-0.4-1.1c0-1.1,0-2.2,0-3.3c0-0.2,0-0.4,0.2-0.4
			c1-0.1,2.6,0.3,3.1-0.3c1,0,2.2-0.6,2.9-0.4c-0.3,0.9-1,1.4-1.3,2.2c-0.1,0-0.1,0-0.2,0C26.4,58.5,26,58.6,26,59
			c-0.2,0.7-0.6,1-0.9,1.6C25.2,61.6,24.7,62.2,24.4,63z M34.5,76c0.1-0.5-0.3-0.7-0.2-1.3c0.3,0,0.4-0.1,0.6-0.3
			c0.2-0.1,0.7,0.2,0.7-0.2c0.9-0.1,1.7-0.3,2.4-0.7c0.4,0.1,0.4-0.3,0.9-0.2c0.8-0.3,1.7-0.5,2.4-0.9c0.3,0,0.3-0.2,0.6-0.2
			c0.6,0,0,0.3,0.2,0.7c0,0.3-0.2,0.3-0.2,0.5c-0.1,0-0.1,0-0.2,0c-0.2,0.8-0.5,1.4-0.7,2.2c0,0.3-0.3,0.4-0.2,0.9
			c-0.1,0-0.2,0-0.3,0c-0.1,0.6-0.1,1.4-0.3,1.8c-0.8,0-1.4,0-2.2,0c-0.8-0.1-1.3-0.3-1.8-0.7c0-0.1,0-0.1,0-0.2
			c-0.6-0.1-0.6-0.7-1.1-0.9C35,76.6,35,76.1,34.5,76z M43.2,69.2c-0.7,0.1-1.2,0.4-1.7,0.9c-0.5,0.1-0.9,0.2-1.3,0.4
			c-0.7,0.1-1.2,0.3-1.7,0.6c-0.3-0.1-0.3,0.3-0.7,0.2C37,71.5,36,71.7,35,71.9c-0.1,0-0.1,0-0.2,0c-0.2,0-0.3,0-0.6,0
			c0-0.5,0-1,0.2-1.4c0-0.1,0-0.2,0-0.3c0.3-0.2,0.2-0.7,0.4-0.9c0.2-0.6,0.4-1,0.6-1.7c0.3-0.3,0.5-0.5,0.6-0.9
			c0.2-0.8,0.6-1.1,0.9-1.8c0.7-0.4,0.9-1.4,1.5-2c0.9-0.3,1.9-0.6,2.4-1.3c0.1,0,0.2,0,0.3,0c0.7-0.3,1.4-0.7,2-1.1
			c0.7-0.3,1.4-0.7,2-1.3c0.5-0.2,1.2-0.3,1.4-0.7c0.1,0,0.2-0.2,0.3-0.2c0.5-0.2,0.9-0.4,1.3-0.9c0.5-0.4,1.1-0.6,1.5-1.1
			c0.3-0.3,1-0.3,1.1-0.9c0.4-0.3,0.9-0.4,1.3-0.9c0.1-0.1,0.3-0.1,0.3-0.3c0.4-0.3,0.9-0.4,1.1-0.9c0.2-0.1,0.3-0.2,0.5-0.3
			c0.1,0,0.1,0,0.2,0c0.2-0.6,0.9-0.4,1.1-0.9c0.6-0.6,1.4-0.9,2-1.5c0.7-0.7,1.4-1.3,2.2-2c0.3-0.2,0.5-0.6,0.9-0.7
			c0.8-0.5,1.4-1.1,2-1.8c0.7-0.6,1.4-1.2,2-2c0-0.1,0.1-0.2,0.2-0.2c0.6-0.5,1.2-1,1.7-1.7c0.2-0.5,0.6-0.7,0.9-1.1
			s0.8-0.7,0.9-1.1c0.4-0.3,0.9-0.7,1.1-1.3c0.3-0.1,0.4-0.4,0.5-0.7c0.2-0.3,0.5-0.5,0.5-0.9c0.4-0.2,0.6-0.7,0.9-1.1
			c0.4-0.3,0.7-0.7,0.9-1.3c0.3-0.2,0.4-0.6,0.7-0.9c0.4-0.4,0.8-0.9,0.9-1.6c-0.1-0.3,0.5-0.2,0.5-0.4c0.4,0.1,0.5-0.3,0.9-0.2
			c0.3,0,0.4-0.3,0.9-0.2c0.7,0,1.4,0,2,0c0.7-0.1,0.9,0.3,1.4,0.4c0.3,0.3,0.6,0.7,0.9,0.9c-0.1,0.5,0.3,0.5,0.3,0.9
			c0,0.7,0,1.4,0,2c0,0.6-0.1,1-0.3,1.4c0,0.1,0,0.2,0,0.3c-0.1,0-0.1,0-0.2,0c-0.3,1.2-0.8,2.4-2.2,2.5c0,0.2-0.3,0.1-0.4,0.2
			C75,41.2,73.4,41.9,72,43c-2,0.9-3.6,2.2-5.4,3.3c-0.1,0-0.1,0-0.2,0c-0.3,0.4-0.9,0.5-1.1,0.9c-0.2,0.1-0.3,0.2-0.5,0.3
			c-0.1,0-0.1,0-0.2,0c-0.3,0.3-0.8,0.6-1.1,0.9c-0.7,0.6-1.7,1-2.2,1.8c-0.1,0-0.1,0-0.2,0c-0.4,0.4-1.1,0.7-1.4,1.3
			c-0.7,0.3-1,0.9-1.7,1.3c-0.6,0.5-1.2,1-1.8,1.5c-2.3,1.8-4.4,3.8-6.2,6.2c-0.8,0.9-1.4,1.8-2.2,2.6c-0.3,0.5-0.6,0.9-0.9,1.3
			c-0.1,0-0.1,0-0.2,0c-0.3,0.7-0.9,1-1.1,1.6c-0.3,0.7-1,1-1.3,1.8c-0.3,0.3-0.6,0.6-0.9,0.9C43.6,69,43.5,69.2,43.2,69.2z
			 M84.5,56.3c-0.5,0.3-0.6,0.9-0.9,1.4c-0.3,0.1-0.5,0.3-0.4,0.7c-0.2,0.3-0.4,0.5-0.6,0.9c-0.6,0.9-1.2,1.8-2,2.5
			c-0.4,0.2-0.5,0.7-0.9,0.9c-0.2,0.1-0.3,0.3-0.4,0.3c-0.6,0.5-1.2,1-1.7,1.7c-0.1,0.1-0.1,0.3-0.3,0.3c-0.9,0.9-1.9,1.7-2.6,2.8
			c-0.6,0.5-1.1,1-1.7,1.5c-0.7,0.6-1.3,1.2-2,1.7c-0.1,0-0.1,0-0.2,0c-0.2,0.6-0.9,0.4-1.1,0.9c-0.9,0.9-2,1.6-3.1,2.4
			c-0.1,0-0.1,0-0.2,0c-0.3,0.4-0.8,0.5-1.1,0.9c-0.3,0.6-1.3,0.6-1.6,1.1c-0.1,0-0.1,0-0.2,0c-0.2,0.4-0.9,0.3-0.9,0.9
			c-0.9,0.4-1.7,0.8-2.4,1.4c-0.5-0.1-0.7,0.2-0.9,0.4c-0.9,0.2-1.3,0.7-2,0.9c-0.3,0.2-0.8,0.3-0.9,0.6c-0.3,0-0.4,0.1-0.6,0.3
			c-0.4,0-0.9,0.3-1.1-0.2c0.1-0.5-0.2-0.7-0.2-1.1c0-0.5,0-1.1,0-1.6c0-0.3,0-0.7,0-0.9c0-0.3-0.1-0.5,0.2-0.5c0.1,0,0.1,0,0.2,0
			c0.1-0.4,0.3-0.9,0.6-1.1c0.3-0.3,1-0.2,1.1-0.7c0.1,0,0.1,0,0.2,0c1.6-1.4,3.8-2.2,5.3-3.7c2.5-1.4,4.5-3.4,6.8-5.1
			c0.1,0,0.1,0,0.2,0c0.4-0.5,1.1-0.8,1.4-1.4c0.3,0,0.3-0.3,0.5-0.4c0.3-0.2,0.5-0.6,0.9-0.7c0.8-0.5,1.4-1.2,2-2
			c0.8-0.7,1.5-1.4,2.2-2.2c0.8-0.7,1.5-1.3,2-2.2c0-0.1,0-0.1,0-0.2c0.7-0.5,1-1.3,1.6-1.8c0.4-0.3,0.6-0.7,0.9-1.1
			c0.3-0.5,0.6-1.1,0.9-1.5c0.3,0,0.2-0.5,0.5-0.6c0.3-0.3,1.2-0.1,1.8-0.2c0.3,0,0.3,0.2,0.4,0.2c0,0.1,0,0.1,0,0.2
			c0.5,0.1,0.6,0.5,0.9,0.9c0,0.1,0,0.2,0,0.3c0,0.5,0,1,0,1.5c0.1,0.4-0.2,0.5-0.2,0.9C84.7,55.5,84.5,55.8,84.5,56.3z"/>
	</g>
</g>
</svg>
