<?xml version="1.0" encoding="utf-8"?>
<!-- Generator: Adobe Illustrator 22.1.0, SVG Export Plug-In . SVG Version: 6.00 Build 0)  -->
<svg version="1.1" id="Layer_1" xmlns="http://www.w3.org/2000/svg" xmlns:xlink="http://www.w3.org/1999/xlink" x="0px" y="0px"
	 viewBox="0 0 102 102" enable-background="new 0 0 102 102" xml:space="preserve">
<g>
	<g>
		<g>
			<path id="path-0" fill="#303E4D" d="M6.6,1h88.9c3.1,0,5.6,2.5,5.6,5.6v88.9c0,3.1-2.5,5.6-5.6,5.6H6.6C3.5,101,1,98.5,1,95.4
				V6.6C1,3.5,3.5,1,6.6,1z"/>
		</g>
	</g>
	<g>
		<g>
			<path id="path-1" fill="#FFFFFE" d="M66.8,67.7c-1.2,0.6-3.4,1-5,1.1c-5,0.1-6-3.5-6-6.1V43.2h12.5v-9.4H55.8V17.9c0,0-9,0-9.1,0
				c-0.1,0-0.4,0.1-0.4,0.5c-0.5,4.9-2.8,13.4-12.3,16.8v8.1h6.3v20.4c0,7,5.1,16.9,18.7,16.7c4.6-0.1,9.7-2,10.8-3.7"/>
		</g>
	</g>
</g>
</svg>
