<?xml version="1.0" encoding="utf-8"?>
<!-- Generator: Adobe Illustrator 22.1.0, SVG Export Plug-In . SVG Version: 6.00 Build 0)  -->
<svg version="1.1" id="Layer_1" xmlns="http://www.w3.org/2000/svg" xmlns:xlink="http://www.w3.org/1999/xlink" x="0px" y="0px"
	 viewBox="0 0 102 102" enable-background="new 0 0 102 102" xml:space="preserve">
<g>
	<g>
		<g>
			<path id="path-0_1_" fill="#22253D" d="M6.6,1h88.9c3.1,0,5.5,2.5,5.5,5.5v89c0,3.1-2.4,5.5-5.5,5.5H6.6C3.4,101.1,1,98.5,1,95.6
				V6.5C1,3.5,3.4,1,6.6,1z"/>
		</g>
	</g>
	<g>
		<path fill="#83CEC6" d="M51,37.8c-7.2,0-13.2-5.9-13.2-13.2c0-3.5,1.3-6.8,3.9-9.3c2.4-2.4,5.8-3.9,9.3-3.9
			c7.2,0,13.2,5.9,13.2,13.2C64.3,31.9,58.3,37.8,51,37.8 M14.1,43.1c0-0.7,0.5-1.2,1.2-1.2h35.5c6.4,0,11.6,5.2,11.6,11.5v10.3
			c0,0.7-0.6,1.2-1.2,1.2l0,0c0,0,0,0-0.1,0H25.7c-6.4,0-11.5-5.2-11.5-11.5L14.1,43.1L14.1,43.1z M77.4,41.7h10.2
			c0.7,0,1.2,0.6,1.2,1.2v10.3c0,6.4-5.2,11.5-11.5,11.5H67.2c-0.7,0-1.2-0.5-1.3-1.2l0,0V53.3C65.9,46.9,71,41.7,77.4,41.7
			 M61.3,68.3H40.8c-0.7,0-1.2,0.6-1.2,1.2v20.7c0,0.7,0.6,1.2,1.3,1.2H51c6.4,0.1,11.5-5.1,11.5-11.4V69.7
			C62.5,68.9,62,68.3,61.3,68.3"/>
	</g>
</g>
</svg>
