<?xml version="1.0" encoding="utf-8"?>
<!-- Generator: Adobe Illustrator 22.1.0, SVG Export Plug-In . SVG Version: 6.00 Build 0)  -->
<svg version="1.1" id="Layer_1" xmlns="http://www.w3.org/2000/svg" xmlns:xlink="http://www.w3.org/1999/xlink" x="0px" y="0px"
	 viewBox="0 0 102 102" enable-background="new 0 0 102 102" xml:space="preserve">
<g>
	<g>
		<g>
			<path id="path-0" fill="#54ACEE" d="M5,1h92c2.2,0,4,1.8,4,4v92c0,2.2-1.8,4-4,4H5c-2.2,0-4-1.8-4-4V5C1,2.8,2.8,1,5,1z"/>
		</g>
	</g>
	<g>
		<g>
			<path id="path-1" fill="#FFFFFF" d="M87.1,28.9c-2.7,1.2-5.5,2-8.5,2.4c3.1-1.9,5.4-4.8,6.5-8.3c-2.9,1.7-6,3-9.4,3.7
				c-2.7-2.9-6.6-4.8-10.8-4.8c-8.2,0-14.8,6.8-14.8,15.1c0,1.2,0.1,2.3,0.4,3.4c-12.3-0.6-23.2-6.6-30.5-15.8c-1.3,2.2-2,4.8-2,7.6
				c0,5.2,2.6,9.8,6.6,12.5c-2.4-0.1-4.7-0.8-6.7-1.9c0,0.1,0,0.1,0,0.2c0,7.3,5.1,13.4,11.9,14.8c-1.2,0.3-2.6,0.5-3.9,0.5
				c-1,0-1.9-0.1-2.8-0.3c1.9,6,7.4,10.4,13.8,10.5c-5.1,4-11.5,6.5-18.4,6.5c-1.2,0-2.4-0.1-3.5-0.2c6.6,4.3,14.3,6.8,22.7,6.8
				c27.3,0,42.2-23,42.2-42.9c0-0.7,0-1.3,0-2C82.6,34.6,85.1,31.9,87.1,28.9L87.1,28.9z"/>
		</g>
	</g>
</g>
</svg>
