<?xml version="1.0" encoding="utf-8"?>
<!-- Generator: Adobe Illustrator 22.1.0, SVG Export Plug-In . SVG Version: 6.00 Build 0)  -->
<svg version="1.1" id="Layer_1" xmlns="http://www.w3.org/2000/svg" xmlns:xlink="http://www.w3.org/1999/xlink" x="0px" y="0px"
	 viewBox="0 0 102 102" enable-background="new 0 0 102 102" xml:space="preserve">
<g>
	<path fill="#3D2E81" d="M21.7,48.3l9.6,9L55,33.7l11.7,11.7l26.1-26.1l8.1,8.1V6.5C101,3.5,98.6,1,95.5,1H6.6C3.6,1,1,3.6,1,6.5
		v62.7L21.7,48.3z"/>
	<path fill="#3D2E81" d="M92.9,28.2L66.8,54.4L55.1,42.6L31.4,66.2l-9.6-9L1,78v17.6c0,3.1,2.6,5.5,5.6,5.4h88.9
		c3.1,0,5.5-2.6,5.5-5.5V36.2L92.9,28.2z"/>
</g>
</svg>
