<?xml version="1.0" encoding="utf-8"?>
<!-- Generator: Adobe Illustrator 22.1.0, SVG Export Plug-In . SVG Version: 6.00 Build 0)  -->
<svg version="1.1" id="Layer_1" xmlns="http://www.w3.org/2000/svg" xmlns:xlink="http://www.w3.org/1999/xlink" x="0px" y="0px"
	 viewBox="0 0 102 102" enable-background="new 0 0 102 102" xml:space="preserve">
<g>
	<g>
		<g>
			<path id="path-0_1_" fill="#EC4029" d="M6.6,1h88.9c3.1,0,5.5,2.5,5.5,5.5v89c0,3.1-2.4,5.5-5.5,5.5H6.6C3.4,101.1,1,98.5,1,95.6
				V6.5C1,3.5,3.4,1,6.6,1z"/>
		</g>
	</g>
	<g id="XMLID_2_">
		<path id="XMLID_15_" fill="#FFFFFF" d="M16.3,65.9v-9.8L9.8,38.5H13L17.8,52l5.5-16.3h3.1l-7.1,20.5v9.7H16.3z"/>
		<path id="XMLID_33_" fill="#FFFFFF" d="M35.7,65.9h-2.6c-0.1-0.4-0.2-1-0.3-1.5h-0.2c-0.8,1-1.9,1.8-3.6,1.8c-2.8,0-4.6-2-4.6-5.8
			c0-4.1,2.1-6.7,7.5-6.7h0.4v-1.1c0-2.6-0.8-3.6-2.6-3.6c-1.5,0-2.9,0.8-3.8,1.6l-0.5-2.8c0.9-0.7,2.7-1.5,4.6-1.5
			c3.4,0,5.3,1.4,5.3,6.1v9.1C35.4,63.3,35.5,65.1,35.7,65.9z M32.4,55.8h-0.3c-3.7,0-4.5,1.6-4.5,4.1c0,2.2,0.7,3.7,2.2,3.7
			c1,0,2-0.7,2.6-1.5V55.8L32.4,55.8z M42,65.9h-3V46.6h3v1.6h0.2c0.5-0.7,1.9-1.9,3.8-1.9c2.6,0,3.9,1.4,3.9,4.4v15.2h-3.1V51
			c0-1.4-0.6-1.9-1.8-1.9S42.7,50,41.9,51L42,65.9L42,65.9z M52.8,56.9c0-7.1,2.7-10.6,6.5-10.6c0.9,0,1.8,0.3,2.4,0.7v-8.5h3v27.4
			h-2.2l-0.2-1.6h-0.2c-0.8,1-1.9,1.8-3.5,1.8C54.9,66.2,52.8,62.9,52.8,56.9z M61.8,49.6c-0.6-0.6-1.2-0.9-2.2-0.9
			c-2.4,0-3.6,3.7-3.6,7.6c0,4.5,0.8,7.2,3.1,7.2c1.5,0,2.2-0.7,2.8-1.5L61.8,49.6L61.8,49.6z M74.2,66.2c-4,0-6.4-3.2-6.4-9.1
			c0-6.2,1.7-10.7,5.8-10.7c3.2,0,5.3,2.4,5.3,9V57h-8.1c0,4.4,1.2,6.6,3.6,6.6c1.6,0,2.9-0.7,3.7-1.3l0.7,2.2
			C77.5,65.5,76,66.2,74.2,66.2z M70.9,54.4h4.9c0-3.3-0.5-5.7-2.2-5.7C71.7,48.8,71,51,70.9,54.4z M91.8,46.6l-3.6,9l4,10.2h-3.1
			l-3-8l-2.9,8h-3l4-10l-3.7-9.3h3.1l2.4,6.9l2.7-6.9L91.8,46.6L91.8,46.6z"/>
	</g>
</g>
</svg>
