<?xml version="1.0" encoding="utf-8"?>
<!-- Generator: Adobe Illustrator 22.1.0, SVG Export Plug-In . SVG Version: 6.00 Build 0)  -->
<svg version="1.1" id="Layer_1" xmlns="http://www.w3.org/2000/svg" xmlns:xlink="http://www.w3.org/1999/xlink" x="0px" y="0px"
	 viewBox="0 0 102 102" enable-background="new 0 0 102 102" xml:space="preserve">
<g>
	<g>
		<g>
			<path id="path-0" fill="#E53F3C" d="M6.6,1h88.9c3.1,0,5.5,2.5,5.5,5.5v89c0,3.1-2.4,5.5-5.5,5.5H6.6C3.4,101.1,1,98.5,1,95.6
				V6.5C1,3.5,3.4,1,6.6,1z"/>
		</g>
	</g>
	<g>
		<path fill="#FFFFFF" d="M57.5,60.8c-1.2,1.2-0.2,3.4-0.2,3.4l9,14.9c0,0,1.4,1.9,2.8,1.9c1.3,0,2.6-1,2.6-1l7-10.1
			c0,0,0.7-1.2,0.7-2.3c0-1.6-2.3-2-2.3-2l-16.7-5.4C60.3,60.2,58.7,59.8,57.5,60.8z"/>
		<path fill="#FFFFFF" d="M56.7,53.4c0.8,1.4,3.3,1,3.3,1l16.7-4.9c0,0,2.2-0.9,2.6-2.1s-0.4-2.8-0.4-2.8l-8-9.4
			c0,0-0.7-1.2-2.1-1.3c-1.5-0.1-2.6,1.7-2.6,1.7l-9.4,14.8C56.7,50.5,55.9,52,56.7,53.4z"/>
		<path fill="#FFFFFF" d="M48.9,47.5c1.9-0.5,2.2-3.4,2.2-3.4L51,20.3c0,0-0.3-3-1.6-3.8c-2-1.2-2.7-0.6-3.3-0.5l-13.9,5.1
			c0,0-1.3,0.4-2,1.5c-1,1.6,1,4,1,4l14.4,19.6C45.6,46.5,47,48,48.9,47.5z"/>
		<path fill="#FFFFFF" d="M45.4,57.1c0-1.8-2.2-3-2.2-3l-14.8-7.5c0,0-2.2-0.9-3.3-0.3c-0.8,0.5-1.5,1.3-1.6,2.1l-1,11.9
			c0,0-0.1,2,0.4,3.1c0.7,1.3,3.3,0.4,3.3,0.4l17.4-3.9C44.2,59.6,45.3,59.6,45.4,57.1z"/>
		<path fill="#FFFFFF" d="M49.7,63.6c-1.5-0.8-3.3,0.8-3.3,0.8L34.8,77.3c0,0-1.4,1.9-1.1,3.2c0.3,1.1,0.9,1.7,1.7,2l11.7,3.7
			c0,0,1.4,0.3,2.4,0c1.5-0.4,1.2-2.9,1.2-2.9L51,65.9C51.1,66,51.1,64.3,49.7,63.6z"/>
	</g>
</g>
</svg>
