<?xml version="1.0" encoding="utf-8"?>
<!-- Generator: Adobe Illustrator 22.1.0, SVG Export Plug-In . SVG Version: 6.00 Build 0)  -->
<svg version="1.1" id="Layer_1" xmlns="http://www.w3.org/2000/svg" xmlns:xlink="http://www.w3.org/1999/xlink" x="0px" y="0px"
	 viewBox="0 0 102 102" enable-background="new 0 0 102 102" xml:space="preserve">
<g>
	<g>
		<g>
			<rect id="rect-0" x="23.5" y="17.5" fill="#FFFFFF" width="55" height="67"/>
		</g>
	</g>
	<g>
		<g>
			<path id="path-1" fill="#FF0000" d="M6.6,1h88.9c3.1,0,5.6,2.5,5.6,5.6v88.9c0,3.1-2.5,5.6-5.6,5.6H6.6C3.5,101,1,98.5,1,95.4
				V6.6C1,3.5,3.5,1,6.6,1z"/>
		</g>
	</g>
	<g>
		<g>
			<path id="path-2" fill="#FFFFFE" d="M43.7,40.9l18.6,9.7L43.7,60.9V40.9L43.7,40.9z M51,26.1L51,26.1c-10.1,0-22.8,0.5-25.4,0.9
				c-4.6,0.7-7.1,2.8-8.4,8.2C16.6,37,16,46.8,16,50.6v0.8c0,3.8,0.6,13.6,1.1,15.4c1.3,5.4,3.8,7.4,8.4,8.2
				c2.7,0.4,15.4,0.9,25.5,0.9l0,0c10.1,0,22.8-0.5,25.5-0.9c4.6-0.7,7.1-2.8,8.4-8.2C85.4,65,86,55.2,86,51.4v-0.8
				c0-3.8-0.6-13.6-1.1-15.4c-1.3-5.4-3.8-7.4-8.4-8.2C73.8,26.6,61.1,26.1,51,26.1L51,26.1z"/>
		</g>
	</g>
</g>
</svg>
