<?xml version="1.0" encoding="utf-8"?>
<!-- Generator: Adobe Illustrator 22.1.0, SVG Export Plug-In . SVG Version: 6.00 Build 0)  -->
<svg version="1.1" id="Layer_1" xmlns="http://www.w3.org/2000/svg" xmlns:xlink="http://www.w3.org/1999/xlink" x="0px" y="0px"
	 viewBox="0 0 102 102" enable-background="new 0 0 102 102" xml:space="preserve">
<g>
	<g>
		<g>
			<path id="path-0_1_" fill="#010101" d="M6.6,1h88.9c3.1,0,5.5,2.5,5.5,5.5v89c0,3.1-2.4,5.5-5.5,5.5H6.6C3.4,101.1,1,98.5,1,95.6
				V6.5C1,3.5,3.4,1,6.6,1z"/>
		</g>
	</g>
	<g>
		<path fill="#FFFFFF" d="M29.6,55.2c0-1.4,0-2.9,0-4.3c0.1,0,0.1,0,0.1,0c0.5-7.4,2.3-13.2,5.7-17.8c3.2-4.3,8-8.3,14.7-8.8
			c7.7-0.7,13.2,2.3,16.8,6.6c3.7,4.3,5.6,10.2,5.6,17.9c0,7.5-1.9,13.5-5.1,18.5c-3,4.6-7.2,8.8-13.4,10.1
			c-7.6,1.5-13.9-1.5-17.6-5.3C32.3,68.1,30.3,62.6,29.6,55.2z M41.5,32.4c-2.9,5.3-4.1,14.6-3.1,22.7c1,8.2,3.9,16.5,9.5,19.1
			c4.7,2.1,9.4-0.4,11.5-3.3c6.3-8.6,5.4-30-0.6-39c-1.9-2.9-5.1-5.5-10-5C45.1,27.5,42.8,29.9,41.5,32.4z"/>
		<path fill="#FFFFFF" d="M40.6,39.6c0.5,0.2,0.3,0.9,0.4,1.3c0.2,1.4,0.5,2.9,0.8,4.3c0.3,1.3,0.9,4,2.1,4.5
			c1.5,0.7,4.6,0.2,6.6,0.2c1.8,0,4.9,0.5,6.7,0c1.3-0.3,2.1-2.9,2.3-4.3c0.4-1.9,0.5-4,1-5.6c0.5,0.1,0.5,0.8,0.6,1.2
			c1.3,6.3,1.7,14.6,0.4,21.4c-0.2,0.9-0.3,2.1-0.8,2.7c-0.6-0.2-0.4-1-0.4-1.4c-0.1-1.7-0.2-3.7-0.5-5.3c-0.3-1.7-1-4.5-2.5-5.1
			c-1.5-0.5-4.3-0.1-6.2-0.1c-1.8,0-4.5-0.4-6.1,0.1c-2.9,0.9-2.3,7.6-2.9,11c-0.7,0-0.5-0.9-0.6-1.2c-1.5-6.6-2.9-15.6-1.1-23.4
			C40.4,39.7,40.4,39.6,40.6,39.6C40.5,39.6,40.6,39.6,40.6,39.6z"/>
	</g>
</g>
</svg>
